**ABCDEFGHIJKLMNOPQRSTUVWXYZabcdefghijklmnopqrstuvwxyz**************************
**PARASOLID !"#$%&'()*+,-./:;<=>?@[\]^_`{|}~0123456789**************************
**PART1;
MC=AMD64;
MC_MODEL=AMD64 Family 23 Model 113 Stepping 0, AuthenticAMD;
MC_ID=unknown;
OS=Windows_NT;
OS_RELEASE=unknown;
FRU=Parasolid Version 30.0, build 298, 12-15-2017;
APPL=SOLIDWORKS 2018-2018134;
SITE=;
USER=unknown;
FORMAT=text;
GUISE=transmit;
KEY=SKR1.3 Controller Mount;
FILE=SKR1.3 Controller Mount.x_t;
DATE=Sat Mar  7 08:08:58 2020;
**PART2;
SCH=SCH_3000298_30000;
USFLD_SIZE=0;
**PART3;
**END_OF_HEADER*****************************************************************
T51 : TRANSMIT FILE created by modeller version 300029823 SCH_3000298_30000_1300
6205 0 12 33 CCCCCCI4 mesh1006 0 I8 polyline1008 0 CCCCCCCDI5 owner1040 0 CCCCCC
I13 boundary_mesh1006 0 I17 boundary_polyline1008 0 CCCA16 index_map_offset0 0 1
 dA9 index_map82 0 A17 node_id_index_map82 0 A20 schema_embedding_map82 0 A5 chi
ld12 0 A14 lowest_node_id0 0 1 dZ1 1870 0 2 0 0 0 0 0 0 1e3 1e-8 0 3 0 1 0 1 1 4
 5 6 7 0 0 8 9 10 0 0 0 0 0 0 70 11 CI9 list_type0 0 1 uI10 notransmit0 0 1 lCCC
DCCDI12 finger_index0 0 1 dI12 finger_block1012 0 CZ2 0 4 T1 0 0 2 20 1 11 11 13
 255 4 174 0 1 0 12 0 0 13 0 51 255 5 1600 0 14 15 0 0 +-.059835 .02258845726811
99 .01615012990546445 3469446951953615e-31 3021311898744775e-31 1 .005 1 0 -3469
446951953615e-31 31 255 6 1577 0 9 16 0 0 +-.059835 .0225884572681199 -.01215 -1
456221176056082e-31 -277555756156289e-30 -1 0 1 -277555756156289e-30 .005 29 255
 7 1558 0 10 17 0 -.064835 .0225884572681199 -.05215 19 8 CCCCCCCA5 owner12 0 Z8
 52 0 1 13 0 18 V0 16 255 9 1571 0 ?19 0 20 6 0 0 1 18 255 10 1556 0 21 0 22 7 ?
1 17 255 21 0 23 24 25 10 26 20 0 27 +18 22 1553 0 28 10 29 17 ?1 17 28 0 30 31
 27 22 32 33 0 34 +18 29 1545 0 26 22 35 36 ?1 29 17 1555 0 22 36 7 -.064835 .02
25884572681199 -.01215 29 36 1547 0 29 37 17 -.0641651270189222 .025088457268119
9 -.05215 29 37 1544 0 35 38 36 -.0641651270189222 .0250884572681199 -.01215 18
 35 1542 0 19 29 39 37 ?1 29 38 1268 0 39 40 37 -.0583848431141765 .035100202673
31205 -.0488174230413715 18 39 1266 0 41 35 42 38 ?1 29 40 854 0 42 43 38 -.0648
35 0 -.01215 18 42 852 0 44 39 45 40 ?1 29 43 126 0 46 47 40 -.064835 0 .04815 1
8 46 109 0 48 49 50 43 ?1 29 47 129 0 50 51 43 .060835 0 -.05215 18 50 112 0 52
 46 53 47 ?1 29 51 130 0 53 54 47 .064835 0 -.04815 18 53 113 0 55 50 56 51 ?1 2
9 54 131 0 56 57 51 .064835 0 .04815 18 56 114 0 58 53 59 54 ?1 29 57 132 0 59 6
0 54 .060835 0 .05215 18 59 115 0 61 56 62 57 ?1 29 60 133 0 62 63 57 -.060835 0
 .05215 18 62 116 0 64 59 65 60 ?1 29 63 51 0 45 66 60 -.064835 .003 .04815 18 4
5 49 0 67 42 68 63 ?1 29 66 42 0 68 69 63 .060835 .003 -.05215 18 68 40 0 70 45
 71 66 ?1 29 69 39 0 71 72 66 .064835 .003 -.04815 18 71 37 0 73 68 74 69 ?1 29
 72 36 0 74 75 69 .064835 .003 .04815 18 74 34 0 76 71 77 72 ?1 29 75 33 0 77 78
 72 .060835 .003 .05215 18 77 31 0 79 74 49 75 ?1 29 78 30 0 49 80 75 -.060835 .
003 .05215 18 49 28 0 81 77 46 78 ?1 29 80 960 0 65 82 78 -.064835 .003 -.01215
 18 65 900 0 83 62 84 80 ?1 29 82 965 0 84 85 80 -.068835 0 -.05215 18 84 908 0
 86 65 87 82 ?1 29 85 968 0 87 88 82 -.068835 0 -.01215 18 87 903 0 89 84 90 85
 ?1 29 88 1084 0 90 91 85 -.064835 .003 -.05215 18 90 1038 0 24 87 92 88 ?1 29 9
1 1219 0 92 93 88 -.068835 .025 -.01215 18 92 1162 0 94 90 95 91 ?1 29 93 1227 0
 95 96 91 -.068835 .025 -.05215 18 95 1159 0 97 92 98 93 ?1 29 96 1500 0 99 100
 93 -.0589067967697245 .0341961524227066 -.01215 18 99 1411 0 101 102 103 96 ?1
 29 100 1503 0 103 104 96 -.0589067967697245 .0341961524227066 -.05215 18 103 14
08 0 105 99 0 100 ?1 29 104 1504 0 98 106 100 -.0618489447293143 .03710020267331
205 -.0488174230413715 18 98 1418 0 107 95 108 104 ?1 29 106 1505 0 109 110 104
 -.0618489447293143 .03710020267331205 -.0154825769586285 18 109 1413 0 111 112
 102 106 ?1 29 110 1506 0 112 113 106 -.0623708983848623 .0361961524227066 -.012
15 18 112 1414 0 114 108 109 110 ?1 29 113 1509 0 108 115 110 -.0623708983848623
 .0361961524227066 -.05215 18 108 1417 0 116 98 112 113 ?1 29 115 1510 0 102 0 1
13 -.0583848431141765 .03510020267331205 -.0154825769586285 18 102 1412 0 117 10
9 99 115 ?1 17 117 0 118 111 119 102 120 121 0 122 -15 255 118 1436 0 111 123 0
 17 111 0 118 114 117 109 122 124 0 125 +17 119 0 118 117 114 99 126 127 0 120 -
17 120 0 128 129 130 99 117 121 0 0 +16 121 1395 0 ?120 127 124 131 0 0 1 17 122
 0 132 133 125 102 111 124 0 130 -15 132 1432 0 107 134 0 17 133 0 132 107 122 3
9 130 135 0 136 -17 125 0 132 122 107 109 137 138 0 139 +16 124 1394 0 ?111 121
 135 140 0 0 1 17 130 0 128 120 136 102 133 135 0 0 +15 128 1275 0 129 141 0 17
 136 0 128 130 142 39 105 143 0 0 -16 135 1393 0 ?130 124 144 145 0 0 1 16 144 1
377 0 ?114 135 138 146 0 0 1 31 145 1488 0 135 147 148 0 --.0543708983848622 .04
205255888325765 -.03215 .866025403784438 -.5 -1493973248101922e-31 .5 .866025403
784438 0 .0185 31 147 1489 0 149 150 145 0 +-.065835 .03019615242270665 -.04815
 -.866025403784438 .5 1110223024625156e-31 -.5 -.866025403784438 0 .008 31 148 1
487 0 143 145 131 0 --.0623708983848623 .0281961524227066 -.04815 .8660254037844
38 -.5 -1493973248101922e-31 .5 .866025403784438 0 .008 16 143 1373 0 ?105 138 1
51 148 0 0 1 31 131 1483 0 121 148 152 0 +-.0623708983848623 .02819615242270665
 -.01615 .866025403784438 -.5 -1493973248101922e-31 .5 .866025403784438 0 .008 3
0 255 152 1482 0 153 131 154 0 +-.01935847343714705 .0113629173006446 -.05215 -.
866025403784438 .5 1493973248101922e-31 16 153 1402 0 ?116 155 127 152 0 0 1 30
 154 1479 0 127 152 140 0 +-.01935847343714705 .0113629173006446 -.01215 -.86602
5403784438 .5 1493973248101922e-31 16 127 1396 0 ?126 153 121 154 0 0 1 30 140 1
478 0 124 154 156 0 +-.01883651978159905 .01226696755125002 -.0154825769586285 -
.866025403784438 .5 1493973248101922e-31 30 156 1477 0 155 140 157 0 +-.01883651
978159905 .01226696755125002 -.0488174230413715 -.866025403784438 .5 14939732481
01922e-31 16 155 1403 0 ?107 149 153 156 0 0 1 30 157 1216 0 158 156 159 0 +-.05
60688016476025 .0471117041658545 -.01215 .5 .866025403784438 -3131813946007495e-
31 16 158 1137 0 ?160 161 162 157 0 0 1 30 159 1213 0 163 157 164 0 +-.056068801
6476025 .0471117041658545 -.05215 -.5 -.866025403784438 2717682160485985e-31 16
 163 1295 0 ?97 162 149 159 0 0 1 30 164 1210 0 162 159 165 0 +-.052604700032464
8 .0451117041658545 -.05215 -.5 -.866025403784438 283676357993108e-30 16 162 126
4 0 ?25 158 163 164 0 0 1 30 165 1204 0 161 164 166 0 +-.0526047000324648 .04511
17041658545 -.01215 .5 .866025403784438 -3131813946007495e-31 16 161 1543 0 ?101
 167 158 165 0 0 1 30 166 957 0 168 165 169 0 +-.068835 0 -.01215 34694469519536
15e-31 0 1 16 168 886 0 ?170 171 172 166 0 0 1 30 169 956 0 171 166 173 0 +-.068
835 .025 -.01215 0 1 -277555756156289e-30 16 171 889 0 ?174 175 168 169 0 0 1 30
 173 955 0 175 169 176 0 +-.068835 .025 -.05215 -3469446951953615e-31 0 -1 16 17
5 892 0 ?177 178 171 173 0 0 1 30 176 954 0 178 173 179 0 +-.068835 0 -.05215 0
 -1 0 16 178 895 0 ?180 181 175 176 0 0 1 30 179 952 0 182 176 183 0 +-.064835 .
025 -.01215 0 1 -277555756156289e-30 16 182 871 0 ?184 172 167 179 167 167 1 30
 183 950 0 172 179 185 0 +-.064835 0 -.05215 0 -1 0 16 172 1557 0 ?24 168 182 18
3 0 0 1 30 185 946 0 181 183 186 0 +-.068835 0 -.01215 1 0 -1456221176056082e-31
 16 181 877 0 ?187 188 178 185 0 0 1 31 186 690 0 189 185 190 0 +.050925 0 -.038
05 0 1 0 0 0 1 .00145 16 189 628 0 ?191 192 193 186 0 0 1 31 190 689 0 193 186 1
94 0 +.050925 .013 -.03805 0 1 0 0 0 1 .00145 16 193 631 0 ?195 189 196 190 0 0
 1 31 194 688 0 196 190 197 0 +.050925 0 .03805 0 1 0 0 0 1 .00145 16 196 610 0
 ?198 193 199 194 0 0 1 31 197 687 0 199 194 200 0 +.050925 .013 .03805 0 1 0 0
 0 1 .00145 16 199 613 0 ?201 196 202 197 0 0 1 31 200 686 0 202 197 203 0 +-.05
0925 0 .03805 0 1 0 0 0 1 .00145 16 202 592 0 ?204 199 188 200 0 0 1 31 203 685
 0 188 200 205 0 +-.050925 .013 .03805 0 1 0 0 0 1 .00145 16 188 595 0 ?206 202
 181 203 0 0 1 31 205 684 0 207 203 208 0 +-.050925 0 -.03805 0 1 0 0 0 1 .00145
 16 207 646 0 ?209 210 192 205 0 0 1 31 208 683 0 192 205 211 0 +-.050925 .013 -
.03805 0 1 0 0 0 1 .00145 16 192 649 0 ?212 207 189 208 0 0 1 31 211 345 0 213 2
08 214 0 +.060835 .003 -.04815 0 1 0 0 0 1 .00175 16 213 325 0 ?215 216 210 211
 0 0 1 31 214 344 0 210 211 217 0 +.060835 0 -.04815 0 1 0 0 0 1 .00175 16 210 3
22 0 ?218 213 207 214 0 0 1 31 217 307 0 219 214 220 0 +-.060835 .003 .04815 0 1
 0 0 0 1 .00175 16 219 287 0 ?221 222 216 217 0 0 1 31 220 306 0 216 217 223 0 +
-.060835 0 .04815 0 1 0 0 0 1 .00175 16 216 284 0 ?224 219 213 220 0 0 1 31 223
 269 0 225 220 226 0 +.060835 .003 .04815 0 1 0 0 0 1 .00175 16 225 249 0 ?227 2
28 222 223 0 0 1 31 226 268 0 222 223 229 0 +.060835 0 .04815 0 1 0 0 0 1 .00175
 16 222 246 0 ?230 225 219 226 0 0 1 31 229 231 0 231 226 232 0 +-.059835 .003 -
.04715 0 1 0 0 0 1 .00175 16 231 211 0 ?233 234 228 229 0 0 1 31 232 230 0 228 2
29 235 0 +-.059835 0 -.04715 0 1 0 0 0 1 .00175 16 228 208 0 ?236 231 225 232 0
 0 1 31 235 5 0 237 232 238 0 +-.060835 .003 .04815 0 1 0 0 0 1 .004 16 237 4 0
 ?239 240 241 235 0 0 1 30 238 8 0 240 235 242 0 +-.060835 .003 .05215 1 0 11406
08844235594e-31 16 240 7 0 ?79 243 237 238 0 0 1 31 242 11 0 243 238 244 0 +.060
835 .003 .04815 0 1 0 0 0 1 .004 16 243 10 0 ?76 245 240 242 0 0 1 30 244 14 0 2
45 242 246 0 +.064835 .003 .04815 0 0 -1 16 245 13 0 ?73 247 243 244 0 0 1 31 24
6 17 0 247 244 248 0 +.060835 .003 -.04815 0 1 0 0 0 1 .004 16 247 16 0 ?70 249
 245 246 0 0 1 30 248 20 0 249 246 250 0 +.060835 .003 -.05215 -1 0 172509171390
749e-30 16 249 19 0 ?251 252 247 248 0 0 1 30 250 26 0 253 248 254 0 +-.064835 .
003 -.04715 1456221176056082e-31 0 1 16 253 25 0 ?83 255 252 250 252 252 1 31 25
4 125 0 234 250 256 0 +-.060835 0 .04815 0 1 0 0 0 1 .004 16 234 105 0 ?257 258
 231 254 0 0 1 30 256 124 0 258 254 259 0 +-.060835 0 .05215 1 0 114060884423559
4e-31 16 258 101 0 ?61 260 234 256 0 0 1 31 259 123 0 260 256 261 0 +.060835 0 .
04815 0 1 0 0 0 1 .004 16 260 97 0 ?58 262 258 259 0 0 1 30 261 122 0 262 259 26
3 0 +.064835 0 .04815 0 0 -1 16 262 93 0 ?55 264 260 261 0 0 1 31 263 121 0 264
 261 265 0 +.060835 0 -.04815 0 1 0 0 0 1 .004 16 264 89 0 ?52 266 262 263 0 0 1
 30 265 120 0 266 263 267 0 +.060835 0 -.05215 -1 0 172509171390749e-30 16 266 8
5 0 ?86 241 264 265 0 0 1 30 267 118 0 241 265 268 0 +-.064835 0 -.04715 1456221
176056082e-31 0 1 16 241 853 0 ?48 237 266 267 0 0 1 30 268 166 0 255 267 269 0
 +-.064835 .003 .04815 0 -1 0 16 255 134 0 ?270 271 253 268 0 0 1 30 269 169 0 2
71 268 272 0 +.060835 .003 -.05215 0 -1 0 16 271 137 0 ?273 274 255 269 0 0 1 30
 272 170 0 274 269 275 0 +.064835 .003 -.04815 0 -1 0 16 274 138 0 ?276 277 271
 272 0 0 1 30 275 171 0 277 272 278 0 +.064835 .003 .04815 0 -1 0 16 277 139 0 ?
279 280 274 275 0 0 1 30 278 172 0 280 275 281 0 +.060835 .003 .05215 0 -1 0 16
 280 140 0 ?282 283 277 278 0 0 1 30 281 173 0 283 278 284 0 +-.060835 .003 .052
15 0 -1 0 16 283 141 0 ?285 286 280 281 0 0 1 31 284 399 0 286 281 287 0 +-.0509
25 .003 -.03805 0 1 0 0 0 1 .00676326980708465 16 286 396 0 ?288 289 283 284 0 0
 1 31 287 430 0 289 284 290 0 +.050925 .003 -.03805 0 1 0 0 0 1 .006763269807084
65 16 289 427 0 ?291 292 286 287 0 0 1 31 290 461 0 292 287 293 0 +-.050925 .003
 .03805 0 1 0 0 0 1 .00676326980708465 16 292 458 0 ?294 295 289 290 0 0 1 31 29
3 492 0 295 290 296 0 +.050925 .003 .03805 0 1 0 0 0 1 .00676326980708465 16 295
 489 0 ?297 298 292 293 0 0 1 31 296 725 0 298 293 299 0 +-.050925 .013 .03805 0
 1 0 0 0 1 .004 16 298 722 0 ?300 301 295 296 0 0 1 31 299 731 0 301 296 302 0 -
-.050925 .01050637923351684 .03805 0 1 0 0 0 1 .0054396926207859 16 301 728 0 ?3
03 304 298 299 0 0 1 31 302 737 0 304 299 305 0 +.050925 .013 .03805 0 1 0 0 0 1
 .004 16 304 734 0 ?306 307 301 302 0 0 1 31 305 743 0 307 302 308 0 -.050925 .0
1050637923351684 .03805 0 1 0 0 0 1 .0054396926207859 16 307 740 0 ?309 310 304
 305 0 0 1 31 308 749 0 310 305 311 0 +.050925 .013 -.03805 0 1 0 0 0 1 .004 16
 310 746 0 ?312 313 307 308 0 0 1 31 311 755 0 313 308 314 0 -.050925 .010506379
23351684 -.03805 0 1 0 0 0 1 .0054396926207859 16 313 752 0 ?315 316 310 311 0 0
 1 31 314 761 0 316 311 317 0 +-.050925 .013 -.03805 0 1 0 0 0 1 .004 16 316 758
 0 ?318 319 313 314 0 0 1 31 317 767 0 319 314 320 0 --.050925 .0105063792335168
4 -.03805 0 1 0 0 0 1 .0054396926207859 16 319 764 0 ?321 322 316 317 0 0 1 30 3
20 1550 0 322 317 323 0 +-.0641651270189222 .0250884572681199 -.05215 -346944695
1953615e-31 -302131189874478e-30 -1 16 322 1548 0 ?324 33 319 320 0 0 1 30 323 1
561 0 33 320 16 0 --.064835 .0225884572681199 -.01215 -3469446951953615e-31 -302
1311898744775e-31 -1 16 33 1559 0 ?28 20 322 323 0 0 1 31 16 1576 0 20 323 6 0 +
-.059835 .0225884572681199 -.05215 172509171390749e-30 0 1 1 0 -172509171390749e
-30 .005 16 20 1564 0 ?21 9 33 16 0 0 1 17 324 0 128 142 129 29 325 322 0 25 +17
 142 0 128 136 324 103 25 162 0 0 -17 129 0 128 324 120 35 101 161 0 325 -17 325
 0 326 327 26 35 324 322 0 0 -17 25 0 23 21 328 29 142 162 0 0 +15 23 1329 0 328
 12 0 17 328 0 23 25 329 103 116 153 0 142 -17 329 0 23 328 330 108 97 163 0 0 -
17 116 0 331 332 105 108 328 153 0 333 +15 331 1456 0 105 334 0 17 332 0 331 41
 116 98 333 149 0 137 -17 105 0 331 116 41 103 136 143 0 328 +17 333 0 335 97 13
7 108 332 149 0 329 +15 335 1174 0 160 336 0 17 97 0 335 337 333 95 329 163 0 17
7 +17 137 0 335 333 139 98 125 138 0 0 -16 149 1404 0 ?333 163 155 147 0 0 1 17
 139 0 335 137 160 109 114 144 0 0 -16 138 1374 0 ?125 144 143 150 0 0 1 31 150
 1490 0 138 146 147 0 +-.057835 .04405255888325765 -.03215 -.866025403784438 .5
 1110223024625156e-31 -.5 -.866025403784438 0 .0185 31 146 1491 0 144 338 150 0
 --.065835 .03019615242270665 -.01615 -.866025403784438 .5 1110223024625156e-31
 -.5 -.866025403784438 0 .008 31 338 1495 0 339 340 146 0 --.0623708983848623 .0
281961524227066 -.04815 .866025403784438 -.5 -1493973248101922e-31 .5 .866025403
784438 0 .0014 16 339 1340 0 ?341 342 343 338 0 0 1 31 340 1496 0 343 344 338 0
 +-.065835 .03019615242270665 -.04815 -.866025403784438 .5 1110223024625156e-31
 -.5 -.866025403784438 0 .0014 16 343 1337 0 ?345 339 0 340 0 0 1 31 344 1497 0
 151 346 340 0 --.0623708983848623 .02819615242270665 -.01615 .866025403784438 -
.5 -1493973248101922e-31 .5 .866025403784438 0 .0014 16 151 1358 0 ?347 143 342
 344 0 0 1 31 346 1498 0 342 0 344 0 +-.065835 .03019615242270665 -.01615 -.8660
25403784438 .5 1110223024625156e-31 -.5 -.866025403784438 0 .0014 16 342 1355 0
 ?348 151 339 346 0 0 1 17 348 0 349 348 348 0 350 342 0 0 +15 349 1370 0 348 35
1 352 17 350 0 353 350 350 0 348 342 0 0 -15 353 1311 0 350 336 335 14 255 336 1
171 354 ?141 355 356 4 357 -0 0 141 355 18 81 255 1 354 1831 358 336 359 0 0 360
 361 14 141 1183 360 ?134 336 362 4 363 +0 0 134 336 18 14 355 933 364 ?336 365
 30 4 366 +0 0 336 365 18 15 356 1317 0 367 336 353 50 255 357 1198 0 336 363 36
8 0 +-.0560688016476025 .0471117041658545 .01615012990546445 .866025403784438 -.
5 -1493973248101922e-31 .5 .866025403784438 0 13 18 53 0 0 0 0 0 0 8 12 14 12 13
31 369 ?370 0 23 4 371 -0 0 370 0 18 81 1 369 1834 358 12 372 0 364 373 374 14 3
70 861 373 ?375 12 376 4 377 -0 0 375 12 18 50 371 160 0 12 377 378 0 +.060835 .
003 -.05215 172509171390749e-30 0 1 1 0 -172509171390749e-30 50 377 158 0 370 37
9 371 0 +-.064835 .003 -.04715 1 0 -1456221176056082e-31 -1456221176056082e-31 0
 -1 51 378 161 0 380 371 381 0 -.060835 .003 -.04815 0 -1 0 .004 0 0 -1 14 380 1
49 382 ?383 384 385 4 378 -0 0 383 384 18 50 381 162 0 384 378 386 0 +.064835 .0
03 .04815 -1 0 0 0 0 1 14 384 151 387 ?380 388 389 4 381 -0 0 380 388 18 51 386
 163 0 388 381 390 0 -.060835 .003 .04815 0 -1 0 .004 0 0 -1 14 388 153 391 ?384
 392 393 4 386 -0 0 384 392 18 50 390 164 0 392 386 394 0 +-.060835 .003 .05215
 1140608844235594e-31 0 -1 -1 0 -1140608844235594e-31 14 392 155 395 ?388 396 39
7 4 390 -0 0 388 396 18 51 394 165 0 396 390 398 0 --.060835 .003 .04815 0 -1 0
 .004 0 0 -1 14 396 157 399 ?392 400 401 4 394 -0 0 392 400 18 52 255 398 786 0
 402 394 403 0 +-.050925 .013 .03805 0 -1 0 .004 .5 .866025403784437 0 0 -1 14 4
02 779 404 ?405 406 407 4 398 +0 0 405 406 18 52 403 799 0 405 398 408 0 +.05092
5 .013 .03805 0 -1 0 .004 .5 .866025403784437 0 0 -1 14 405 792 409 ?410 402 411
 4 403 +0 0 410 402 18 52 408 812 0 410 403 15 0 +.050925 .013 -.03805 0 -1 0 .0
04 .5 .866025403784437 0 0 -1 14 410 805 412 ?413 405 414 4 408 +0 0 413 405 18
 52 15 825 0 413 408 5 0 +-.050925 .013 -.03805 0 -1 0 .004 .5 .866025403784437
 0 0 -1 14 413 818 415 ?416 410 417 4 15 +0 0 416 410 18 81 1 415 1844 358 413 4
18 0 412 419 420 14 416 918 419 ?365 413 421 4 422 -0 0 365 413 18 15 417 819 0
 423 413 424 17 423 0 417 423 423 0 321 319 0 0 -15 424 820 0 425 413 0 17 425 0
 424 425 425 0 318 316 0 0 -17 318 0 426 318 318 0 425 316 0 0 +15 426 759 0 318
 427 428 14 427 412 429 ?430 431 426 4 432 +0 0 430 431 18 15 428 563 0 433 427
 0 17 433 0 428 433 433 0 212 192 0 0 -17 212 0 434 212 212 0 433 192 0 0 +15 43
4 656 0 212 406 0 14 406 652 435 ?402 436 437 4 438 -0 0 402 436 18 81 1 435 184
7 358 406 439 0 429 440 441 14 436 634 440 ?406 442 443 4 444 -0 0 406 442 18 15
 437 655 0 445 406 434 51 438 671 0 406 446 447 0 +-.050925 0 -.03805 0 1 0 .001
45 0 0 1 51 446 674 0 442 448 438 0 +-.050925 0 .03805 0 1 0 .00145 0 0 1 50 447
 516 0 449 438 450 0 +.050925 .013 .03805 0 1 0 0 0 1 14 449 505 451 ?452 453 45
4 4 447 +0 0 452 453 18 52 450 515 0 453 447 455 0 +.050925 .013 .03805 0 -1 0 .
005 .1736481776669305 .984807753012208 0 0 1 14 453 500 456 ?449 457 458 4 450 +
0 0 449 457 18 50 455 485 0 457 450 459 0 +-.050925 .013 .03805 0 1 0 0 0 1 14 4
57 474 460 ?453 461 462 4 455 +0 0 453 461 18 52 459 484 0 461 455 463 0 +-.0509
25 .013 .03805 0 -1 0 .005 .1736481776669305 .984807753012208 0 0 1 14 461 469 4
64 ?457 465 466 4 459 +0 0 457 465 18 50 463 454 0 465 459 467 0 +.050925 .013 -
.03805 0 1 0 0 0 1 14 465 443 468 ?461 430 469 4 463 +0 0 461 430 18 52 467 453
 0 430 463 432 0 +.050925 .013 -.03805 0 -1 0 .005 .1736481776669305 .9848077530
12208 0 0 1 14 430 438 470 ?465 427 471 4 467 +0 0 465 427 18 50 432 423 0 427 4
67 472 0 +-.050925 .013 -.03805 0 1 0 0 0 1 52 472 422 0 431 432 473 0 +-.050925
 .013 -.03805 0 -1 0 .005 .1736481776669305 .984807753012208 0 0 1 14 431 407 47
4 ?427 475 476 4 472 +0 0 427 475 18 51 473 341 0 475 472 477 0 -.060835 .003 -.
04815 0 -1 0 .00175 0 0 -1 14 475 328 478 ?431 479 480 4 473 +0 0 431 479 18 51
 477 303 0 479 473 481 0 --.060835 .003 .04815 0 -1 0 .00175 0 0 -1 14 479 290 4
82 ?475 483 484 4 477 +0 0 475 483 18 51 481 265 0 483 477 485 0 -.060835 .003 .
04815 0 -1 0 .00175 0 0 -1 14 483 252 486 ?479 383 487 4 481 +0 0 479 383 18 51
 485 227 0 383 481 488 0 --.059835 .003 -.04715 0 -1 0 .00175 0 0 -1 14 383 214
 489 ?483 380 490 4 485 +0 0 483 380 18 50 488 2 0 375 485 379 0 +-.060835 .003
 .04815 0 1 0 0 0 1 14 375 319 491 ?400 370 492 4 488 +0 0 400 370 18 50 379 117
 0 400 488 377 0 +-.060835 0 .04815 0 1 0 0 0 1 14 400 313 493 ?396 375 494 4 37
9 -0 0 396 375 18 81 1 493 1861 358 400 495 0 491 496 497 15 494 586 0 204 400 4
98 17 204 0 494 204 204 0 499 202 0 0 +15 498 580 0 198 400 500 17 198 0 498 198
 198 0 501 196 0 0 +15 500 574 0 191 400 502 17 191 0 500 191 191 0 503 189 0 0
 +15 502 568 0 209 400 504 17 209 0 502 209 209 0 445 207 0 0 +15 504 76 0 505 4
00 506 17 505 0 504 507 64 46 257 234 0 0 -15 506 197 0 236 400 508 17 236 0 506
 236 236 0 509 228 0 0 +15 508 235 0 230 400 510 17 230 0 508 230 230 0 511 222
 0 0 +15 510 273 0 224 400 512 17 224 0 510 224 224 0 513 216 0 0 +15 512 311 0
 218 400 0 17 218 0 512 218 218 0 514 210 0 0 +17 514 0 515 514 514 0 218 210 0
 0 -15 515 332 0 514 475 0 17 513 0 516 513 513 0 224 216 0 0 -15 516 294 0 513
 479 0 17 511 0 517 511 511 0 230 222 0 0 -15 517 256 0 511 483 0 17 509 0 518 5
09 509 0 236 228 0 0 -15 518 218 0 509 383 0 17 507 0 504 519 505 42 48 241 0 18
7 -17 64 0 504 505 520 62 61 258 0 285 -17 257 0 401 521 270 62 505 234 0 0 +15
 401 156 0 257 396 0 17 521 0 401 522 257 49 285 283 0 0 -17 270 0 401 257 522 4
6 523 255 0 505 +17 522 0 401 270 521 45 239 237 0 0 -17 523 0 376 524 48 45 270
 255 0 522 -15 376 859 0 44 370 0 17 524 0 376 44 523 65 67 252 0 31 -17 48 0 37
6 523 44 46 507 241 0 270 +17 44 0 376 48 524 42 184 182 0 507 -17 184 0 421 34
 187 65 44 182 0 0 +15 421 921 0 34 416 0 17 34 0 421 19 184 22 31 167 0 327 +17
 187 0 421 184 89 42 519 181 0 0 +17 89 0 421 187 94 87 174 171 0 170 -17 519 0
 504 525 507 87 187 181 0 0 -17 525 0 504 526 519 84 170 168 0 0 -17 526 0 504 5
27 525 50 86 266 0 0 -17 170 0 528 174 180 87 525 168 0 519 +15 528 932 0 170 36
5 0 17 174 0 528 177 170 92 89 171 0 0 +17 180 0 528 170 177 84 330 178 0 525 +1
7 177 0 528 180 174 95 337 175 0 330 +17 330 0 23 329 86 95 180 178 0 0 -17 86 0
 23 330 273 84 526 266 0 180 +17 273 0 23 86 529 50 530 271 0 526 +17 529 0 23 2
73 24 68 251 249 0 0 -17 530 0 385 531 52 68 273 271 0 529 -15 385 148 0 52 380
 0 17 531 0 385 276 530 71 70 247 0 0 -17 52 0 385 530 276 50 527 264 0 273 +17
 276 0 385 52 531 53 532 274 0 527 +17 527 0 504 533 526 53 52 264 0 0 -17 533 0
 504 520 527 56 55 262 0 0 -17 520 0 504 64 533 59 58 260 0 0 -17 55 0 389 532 2
79 53 533 262 0 276 +15 389 150 0 55 384 0 17 532 0 389 534 55 71 276 274 0 531
 -17 279 0 389 55 534 56 535 277 0 533 +17 534 0 389 279 532 74 73 245 0 0 -17 5
35 0 393 536 58 74 279 277 0 534 -15 393 152 0 58 388 0 17 536 0 393 282 535 77
 76 243 0 0 -17 58 0 393 535 282 56 520 260 0 279 +17 282 0 393 58 536 59 537 28
0 0 520 +17 537 0 397 81 61 77 282 280 0 536 -15 397 154 0 61 392 0 17 81 0 397
 285 537 49 79 240 0 239 -17 61 0 397 537 285 59 64 258 0 282 +17 285 0 397 61 8
1 62 521 283 0 257 +17 79 0 538 76 239 77 81 240 0 537 +17 239 0 538 79 67 49 52
2 237 0 521 +15 538 3 0 239 375 539 17 67 0 538 239 83 45 524 252 0 523 +17 83 0
 538 67 251 65 540 253 0 524 +16 252 856 0 ?67 253 249 250 253 253 1 17 251 0 53
8 83 70 90 529 249 0 540 +17 540 0 30 27 31 90 83 253 0 0 -15 30 1127 0 27 355 0
 17 27 0 30 28 540 10 24 172 0 32 -17 31 0 30 540 28 65 34 167 0 184 -16 167 874
 0 ?34 182 161 179 182 182 1 17 24 0 23 529 21 90 27 172 0 251 +17 32 0 326 26 3
27 10 28 33 0 0 -15 326 1589 0 327 14 0 17 26 0 326 325 32 29 21 20 0 324 -17 32
7 0 326 32 325 22 19 9 0 0 -17 19 0 421 101 34 35 327 9 0 129 +17 101 0 421 126
 19 99 129 161 0 119 +17 126 0 421 94 101 112 119 127 0 160 +17 94 0 421 89 126
 92 160 158 0 337 -17 160 0 335 139 337 112 94 158 0 0 +17 337 0 335 160 97 92 1
77 175 0 174 -14 14 1588 496 ?0 541 326 4 5 -0 0 0 541 18 81 1 496 1862 358 14 5
42 0 493 543 544 14 541 1349 543 ?14 351 545 4 546 -0 0 14 351 18 81 1 543 1863
 358 541 547 0 496 548 549 14 351 1367 548 ?541 334 349 4 550 -0 0 541 334 18 15
 545 1352 0 345 541 551 51 546 1472 0 541 550 552 0 +-.0228225750522848 .0053629
1730064461 -.04815 -.866025403784438 .5 1493973248101922e-31 .0014 -.5 -.8660254
03784438 0 51 550 1475 0 351 0 546 0 +-.0228225750522848 .00536291730064461 -.01
615 -.866025403784438 .5 1493973248101922e-31 .0014 -.5 -.866025403784438 0 51 5
52 1469 0 334 546 553 0 +-.0228225750522848 .00536291730064461 -.04815 -.8660254
03784438 .5 1493973248101922e-31 .008 -.5 -.866025403784438 0 14 334 1453 554 ?3
51 123 331 4 552 +0 0 351 123 18 51 553 1465 0 123 552 555 0 --.0228225750522848
 .00536291730064461 -.01615 -.866025403784438 .5 1493973248101922e-31 .008 -.5 -
.866025403784438 0 14 123 1433 556 ?334 134 118 4 553 -0 0 334 134 18 51 555 146
4 0 134 553 363 0 +-.0148225750522848 .01921932376119565 -.03215 -.8660254037844
38 .5 1493973248101922e-31 .0185 -.5 -.866025403784438 0 14 134 1429 557 ?123 14
1 132 4 555 -0 0 123 141 18 50 363 1201 0 141 555 357 0 +-.0526047000324648 .045
1117041658545 .01615012990546445 .866025403784438 -.5 -1493973248101922e-31 .5 .
866025403784438 0 81 1 557 1867 358 134 558 0 556 559 560 80 255 1 358 561 562 9
000 1 1 1 1 1 1 1 1 0 FFFFTFTFFFFFFF1 81 1 558 1736 563 134 0 557 564 565 566 81
 1 556 1866 358 123 565 0 554 557 567 81 1 559 1868 358 365 568 0 557 569 570 82
 255 1 560 -645726068 14 365 930 559 ?355 416 528 4 368 -0 0 355 416 18 81 1 568
 1732 563 365 0 559 571 572 573 81 1 569 1869 358 442 574 0 559 575 576 82 1 570
 1882128521 14 442 598 569 ?436 452 577 4 446 -0 0 436 452 18 81 1 574 1724 563
 442 0 569 578 579 580 81 1 575 1870 358 452 578 0 569 0 581 82 1 576 -211497767
9 14 452 616 575 ?442 449 582 4 448 -0 0 442 449 18 81 1 578 1723 563 452 0 575
 583 574 584 82 1 581 -2118909839 80 1 563 0 585 8001 0 0 0 0 3 5 0 0 0 FFFFTFTF
FFFFFF2 81 1 583 1722 563 449 0 451 586 578 587 83 255 3 584 1 0 0 81 1 451 1849
 358 449 583 0 440 456 588 81 1 586 1721 563 453 0 456 589 583 590 83 3 587 1 0
 0 81 1 456 1850 358 453 586 0 451 460 591 81 1 589 1720 563 457 0 460 592 586 5
93 83 3 590 1 0 0 81 1 460 1851 358 457 589 0 456 464 594 81 1 592 1719 563 461
 0 464 595 589 596 83 3 593 1 0 0 81 1 464 1852 358 461 592 0 460 468 597 81 1 5
95 1718 563 465 0 468 598 592 599 83 3 596 1 0 0 81 1 468 1853 358 465 595 0 464
 470 600 81 1 598 1717 563 430 0 470 601 595 602 83 3 599 1 0 0 81 1 470 1854 35
8 430 598 0 468 474 603 81 1 601 1716 563 427 0 429 604 598 605 83 3 602 1 0 0 8
1 1 429 1846 358 427 601 0 419 435 606 81 1 604 1715 563 431 0 474 607 601 608 8
3 3 605 1 0 0 81 1 474 1855 358 431 604 0 470 478 609 81 1 607 1714 563 475 0 47
8 610 604 611 83 3 608 1 0 0 81 1 478 1856 358 475 607 0 474 482 612 81 1 610 17
13 563 479 0 482 613 607 614 83 3 611 1 0 0 81 1 482 1857 358 479 610 0 478 486
 615 81 1 613 1712 563 483 0 486 616 610 617 83 3 614 1 0 0 81 1 486 1858 358 48
3 613 0 482 489 618 81 1 616 1711 563 383 0 489 619 613 620 83 3 617 1 0 0 81 1
 489 1859 358 383 616 0 486 491 621 81 1 619 1710 563 380 0 382 622 616 623 83 3
 620 1 0 0 81 1 382 1836 358 380 619 0 373 387 624 81 1 622 1709 563 384 0 387 6
25 619 626 83 3 623 1 0 0 81 1 387 1837 358 384 622 0 382 391 627 81 1 625 1708
 563 388 0 391 628 622 629 83 3 626 1 0 0 81 1 391 1838 358 388 625 0 387 395 63
0 81 1 628 1707 563 392 0 395 631 625 632 83 3 629 1 0 0 81 1 395 1839 358 392 6
28 0 391 399 633 81 1 631 1706 563 396 0 399 495 628 634 83 3 632 1 0 0 81 1 399
 1840 358 396 631 0 395 404 635 81 1 495 1705 563 400 0 493 636 631 637 83 3 634
 1 0 0 81 1 636 1704 563 375 0 491 638 495 639 83 3 637 1 0 0 81 1 491 1860 358
 375 636 0 489 493 640 81 1 638 1703 563 370 0 373 372 636 641 83 3 639 1 0 0 81
 1 373 1835 358 370 638 0 369 382 642 81 1 372 1702 563 12 0 369 0 638 643 83 3
 641 1 0 0 83 3 643 1 0 0 82 1 642 1893597302 82 1 640 -1744895879 81 1 404 1841
 358 402 644 0 399 409 645 82 1 635 -1769144215 81 1 644 1727 563 402 0 404 439
 646 647 81 1 409 1842 358 405 646 0 404 412 648 82 1 645 -885456781 81 1 646 17
28 563 405 0 409 644 649 650 81 1 412 1843 358 410 649 0 409 415 651 82 1 648 -8
84211597 81 1 649 1729 563 410 0 412 646 418 652 82 1 651 -882966413 81 1 418 17
30 563 413 0 415 649 571 653 83 3 652 1 0 0 81 1 571 1731 563 416 0 419 418 568
 654 83 3 653 1 0 0 81 1 419 1845 358 416 571 0 415 429 655 83 3 654 1 0 0 82 1
 655 1889206413 83 3 650 1 0 0 81 1 439 1726 563 406 0 435 579 644 656 83 3 647
 1 0 0 81 1 579 1725 563 436 0 440 574 439 657 83 3 656 1 0 0 81 1 440 1848 358
 436 579 0 435 451 658 83 3 657 1 0 0 82 1 658 -2122841999 82 1 633 -1769406359
 82 1 630 -1769668503 82 1 627 -1769930647 82 1 624 -1770192791 82 1 621 -176324
5975 82 1 618 -1759182743 82 1 615 -1755119511 82 1 612 -1751056279 82 1 609 347
3523 82 1 606 3211379 82 1 603 7471219 82 1 600 7209075 82 1 597 11403379 82 1 5
94 11141235 82 1 591 15335539 82 1 588 15073395 79 255 15 585 SDL/TYSA_COLOUR15
 582 619 0 501 452 659 51 448 677 0 452 444 446 0 +.050925 0 .03805 0 1 0 .00145
 0 0 1 51 444 680 0 436 422 448 0 +.050925 0 -.03805 0 1 0 .00145 0 0 1 50 422 9
39 0 416 366 444 0 +-.068835 .025 -.01215 -1456221176056082e-31 -277555756156289
e-30 -1 0 1 -277555756156289e-30 50 366 942 0 355 368 422 0 +-.064835 0 22494159
31299125e-32 1 0 -3469446951953615e-31 -3469446951953615e-31 0 -1 50 368 943 0 3
65 357 366 0 +-.068835 0 230766477834137e-31 1 0 -3469446951953615e-31 -34694469
51953615e-31 0 -1 17 501 0 582 501 501 0 198 196 0 0 -15 659 620 0 201 452 0 17
 201 0 659 201 201 0 660 199 0 0 +17 660 0 661 660 660 0 201 199 0 0 -15 661 545
 0 660 449 0 83 3 580 1 0 0 15 577 601 0 499 442 662 17 499 0 577 499 499 0 204
 202 0 0 -15 662 602 0 206 442 0 17 206 0 662 206 206 0 663 188 0 0 +17 663 0 66
4 663 663 0 206 188 0 0 -15 664 551 0 663 457 0 81 1 572 1733 563 355 0 364 568
 359 665 83 3 573 1 0 0 81 1 364 1833 358 355 572 0 360 369 666 81 1 359 1734 56
3 336 0 354 572 564 667 83 3 665 1 0 0 81 1 564 1735 563 141 0 360 359 558 668 8
3 3 667 1 0 0 81 1 360 1832 358 141 564 0 354 364 669 83 3 668 1 0 0 82 1 669 -1
061551987 82 1 666 1887764621 81 1 565 1737 563 123 0 556 558 670 671 81 1 554 1
865 358 334 670 0 548 556 672 82 1 567 -642449268 81 1 670 1738 563 334 0 554 56
5 673 674 81 1 548 1864 358 351 673 0 543 554 675 82 1 672 -639369076 81 1 673 1
739 563 351 0 548 670 547 676 82 1 675 -623705972 81 1 547 1740 563 541 0 543 67
3 542 677 83 3 676 1 0 0 81 1 542 1741 563 14 0 496 547 0 678 83 3 677 1 0 0 83
 3 678 1 0 0 83 3 674 1 0 0 83 3 671 1 0 0 83 3 566 1 0 0 79 14 562 SWEntUnchang
ed17 345 0 545 345 345 0 367 343 0 0 +15 551 1353 0 679 541 0 17 679 0 551 679 6
79 0 341 339 0 0 -17 341 0 362 341 341 0 679 339 0 0 +15 362 1287 0 341 141 680
 15 680 1281 0 347 141 128 17 347 0 680 347 347 0 681 151 0 0 +17 681 0 352 681
 681 0 347 151 0 0 -15 352 1371 0 681 351 0 17 367 0 356 367 367 0 345 343 0 0 -
82 1 549 -612892532 82 1 544 -590806899 17 70 0 538 251 73 68 531 247 0 530 +17
 73 0 538 70 76 71 534 245 0 532 +17 76 0 538 73 79 74 536 243 0 535 +15 539 240
 0 682 375 683 17 682 0 539 682 682 0 227 225 0 0 -15 683 316 0 684 375 0 17 684
 0 683 684 684 0 215 213 0 0 -17 215 0 480 215 215 0 684 213 0 0 +15 480 331 0 2
15 475 515 17 227 0 487 227 227 0 682 225 0 0 +15 487 255 0 227 483 517 17 445 0
 437 445 445 0 209 207 0 0 -17 503 0 443 503 503 0 191 189 0 0 -15 443 637 0 503
 436 685 15 685 638 0 195 436 0 17 195 0 685 195 195 0 686 193 0 0 +17 686 0 687
 686 686 0 195 193 0 0 -15 687 557 0 686 465 0 82 1 497 -1745420167 15 492 491 0
 688 375 689 17 688 0 492 688 688 0 297 295 0 0 -15 689 460 0 690 375 691 17 690
 0 689 690 690 0 294 292 0 0 -15 691 429 0 692 375 693 17 692 0 691 692 692 0 29
1 289 0 0 -15 693 398 0 694 375 695 17 694 0 693 694 694 0 288 286 0 0 -15 695 2
78 0 696 375 697 17 696 0 695 696 696 0 221 219 0 0 -15 697 202 0 698 375 538 17
 698 0 697 698 698 0 233 231 0 0 -17 233 0 490 233 233 0 698 231 0 0 +15 490 217
 0 233 383 518 17 221 0 484 221 221 0 696 219 0 0 +15 484 293 0 221 479 516 17 2
88 0 699 288 288 0 694 286 0 0 +15 699 410 0 288 431 0 17 291 0 700 291 291 0 69
2 289 0 0 +15 700 441 0 291 430 0 17 294 0 701 294 294 0 690 292 0 0 +15 701 472
 0 294 461 0 17 297 0 702 297 297 0 688 295 0 0 +15 702 503 0 297 453 0 15 476 7
65 0 321 431 699 17 321 0 476 321 321 0 423 319 0 0 +15 471 753 0 315 430 700 17
 315 0 471 315 315 0 703 313 0 0 +17 703 0 414 703 703 0 315 313 0 0 -15 414 806
 0 703 410 704 15 704 807 0 705 410 0 17 705 0 704 705 705 0 312 310 0 0 -17 312
 0 469 312 312 0 705 310 0 0 +15 469 747 0 312 465 687 15 466 729 0 303 461 701
 17 303 0 466 303 303 0 706 301 0 0 +17 706 0 407 706 706 0 303 301 0 0 -15 407
 780 0 706 402 707 15 707 781 0 708 402 0 17 708 0 707 708 708 0 300 298 0 0 -17
 300 0 462 300 300 0 708 298 0 0 +15 462 723 0 300 457 664 15 458 741 0 309 453
 702 17 309 0 458 309 309 0 709 307 0 0 +17 709 0 411 709 709 0 309 307 0 0 -15
 411 793 0 709 405 710 15 710 794 0 711 405 0 17 711 0 710 711 711 0 306 304 0 0
 -17 306 0 454 306 306 0 711 304 0 0 +15 454 735 0 306 449 661 82 1 441 -2126839
695 82 1 420 -881721229 82 1 374 -595787635 82 1 361 -1061158772 17 114 0 118 11
9 111 112 139 144 0 126 +17 41 0 331 105 332 39 107 155 0 133 -17 107 0 132 125
 133 98 41 155 0 332 +19 13 175 0 1 0 8 4 S0 74 4 CI16 index_map_offset0 0 1 dCC
Z20 11 2 0 0 575 542 0 0 0 0 0 0 0 0 0 0 0 0 0 0 0 0 0 0 1 0 
