  0
SECTION
  2
HEADER
  9
$ACADVER
  1
AC1015
  9
$ACADMAINTVER
 70
     6
  9
$DWGCODEPAGE
  3
ANSI_1252
  9
$INSBASE
 10
0.0
 20
0.0
 30
0.0
  9
$EXTMIN
 10
-232.5
 20
-45.0
 30
0.0
  9
$EXTMAX
 10
47.5
 20
45.0
 30
0.0
  9
$LIMMIN
 10
0.0
 20
0.0
  9
$LIMMAX
 10
420.0
 20
297.0
  9
$ORTHOMODE
 70
     0
  9
$REGENMODE
 70
     1
  9
$FILLMODE
 70
     1
  9
$QTEXTMODE
 70
     0
  9
$MIRRTEXT
 70
     1
  9
$LTSCALE
 40
1.0
  9
$ATTMODE
 70
     1
  9
$TEXTSIZE
 40
3.5
  9
$TRACEWID
 40
1.0
  9
$TEXTSTYLE
  7
Standard
  9
$CLAYER
  8
0
  9
$CELTYPE
  6
ByLayer
  9
$CECOLOR
 62
   256
  9
$CELTSCALE
 40
1.0
  9
$DISPSILH
 70
     0
  9
$DIMSCALE
 40
1.0
  9
$DIMASZ
 40
3.302
  9
$DIMEXO
 40
1.0
  9
$DIMDLI
 40
3.75
  9
$DIMRND
 40
0.0
  9
$DIMDLE
 40
0.0
  9
$DIMEXE
 40
1.0
  9
$DIMTP
 40
0.0
  9
$DIMTM
 40
0.0
  9
$DIMTXT
 40
3.5
  9
$DIMCEN
 40
2.5
  9
$DIMTSZ
 40
0.0
  9
$DIMTOL
 70
     0
  9
$DIMLIM
 70
     0
  9
$DIMTIH
 70
     1
  9
$DIMTOH
 70
     1
  9
$DIMSE1
 70
     0
  9
$DIMSE2
 70
     0
  9
$DIMTAD
 70
     1
  9
$DIMZIN
 70
     0
  9
$DIMBLK
  1

  9
$DIMASO
 70
     1
  9
$DIMSHO
 70
     1
  9
$DIMPOST
  1

  9
$DIMAPOST
  1

  9
$DIMALT
 70
     0
  9
$DIMALTD
 70
     3
  9
$DIMALTF
 40
0.0393700787
  9
$DIMLFAC
 40
1.0
  9
$DIMTOFL
 70
     1
  9
$DIMTVP
 40
0.0
  9
$DIMTIX
 70
     0
  9
$DIMSOXD
 70
     0
  9
$DIMSAH
 70
     0
  9
$DIMBLK1
  1

  9
$DIMBLK2
  1

  9
$DIMSTYLE
  2
ISO-25
  9
$DIMCLRD
 70
     0
  9
$DIMCLRE
 70
     0
  9
$DIMCLRT
 70
     0
  9
$DIMTFAC
 40
1.0
  9
$DIMGAP
 40
1.524
  9
$DIMJUST
 70
     0
  9
$DIMSD1
 70
     0
  9
$DIMSD2
 70
     0
  9
$DIMTOLJ
 70
     0
  9
$DIMTZIN
 70
     0
  9
$DIMALTZ
 70
     0
  9
$DIMALTTZ
 70
     0
  9
$DIMUPT
 70
     0
  9
$DIMDEC
 70
     2
  9
$DIMTDEC
 70
     2
  9
$DIMALTU
 70
     2
  9
$DIMALTTD
 70
     3
  9
$DIMTXSTY
  7
Standard
  9
$DIMAUNIT
 70
     0
  9
$DIMADEC
 70
     2
  9
$DIMALTRND
 40
0.0
  9
$DIMAZIN
 70
     0
  9
$DIMDSEP
 70
    44
  9
$DIMATFIT
 70
     3
  9
$DIMFRAC
 70
     0
  9
$DIMLDRBLK
  1

  9
$DIMLUNIT
 70
     2
  9
$DIMLWD
 70
    -2
  9
$DIMLWE
 70
    -2
  9
$DIMTMOVE
 70
     0
  9
$LUNITS
 70
     2
  9
$LUPREC
 70
     2
  9
$SKETCHINC
 40
1.0
  9
$FILLETRAD
 40
10.0
  9
$AUNITS
 70
     0
  9
$AUPREC
 70
     2
  9
$MENU
  1
.
  9
$ELEVATION
 40
0.0
  9
$PELEVATION
 40
0.0
  9
$THICKNESS
 40
0.0
  9
$LIMCHECK
 70
     0
  9
$CHAMFERA
 40
0.0
  9
$CHAMFERB
 40
0.0
  9
$CHAMFERC
 40
0.0
  9
$CHAMFERD
 40
0.0
  9
$SKPOLY
 70
     0
  9
$TDCREATE
 40
2457157.867503843
  9
$TDUCREATE
 40
2457158.075837176
  9
$TDUPDATE
 40
2457157.867587327
  9
$TDUUPDATE
 40
2457158.07592066
  9
$TDINDWG
 40
0.0000000116
  9
$TDUSRTIMER
 40
0.0000000116
  9
$USRTIMER
 70
     1
  9
$ANGBASE
 50
0.0
  9
$ANGDIR
 70
     0
  9
$PDMODE
 70
     0
  9
$PDSIZE
 40
-1.0
  9
$PLINEWID
 40
0.0
  9
$SPLFRAME
 70
     0
  9
$SPLINETYPE
 70
     6
  9
$SPLINESEGS
 70
     8
  9
$HANDSEED
  5
1CF
  9
$SURFTAB1
 70
     6
  9
$SURFTAB2
 70
     6
  9
$SURFTYPE
 70
     6
  9
$SURFU
 70
     6
  9
$SURFV
 70
     6
  9
$UCSBASE
  2

  9
$UCSNAME
  2

  9
$UCSORG
 10
0.0
 20
0.0
 30
0.0
  9
$UCSXDIR
 10
1.0
 20
0.0
 30
0.0
  9
$UCSYDIR
 10
0.0
 20
1.0
 30
0.0
  9
$UCSORTHOREF
  2

  9
$UCSORTHOVIEW
 70
     0
  9
$UCSORGTOP
 10
0.0
 20
0.0
 30
0.0
  9
$UCSORGBOTTOM
 10
0.0
 20
0.0
 30
0.0
  9
$UCSORGLEFT
 10
0.0
 20
0.0
 30
0.0
  9
$UCSORGRIGHT
 10
0.0
 20
0.0
 30
0.0
  9
$UCSORGFRONT
 10
0.0
 20
0.0
 30
0.0
  9
$UCSORGBACK
 10
0.0
 20
0.0
 30
0.0
  9
$PUCSBASE
  2

  9
$PUCSNAME
  2

  9
$PUCSORG
 10
0.0
 20
0.0
 30
0.0
  9
$PUCSXDIR
 10
1.0
 20
0.0
 30
0.0
  9
$PUCSYDIR
 10
0.0
 20
1.0
 30
0.0
  9
$PUCSORTHOREF
  2

  9
$PUCSORTHOVIEW
 70
     0
  9
$PUCSORGTOP
 10
0.0
 20
0.0
 30
0.0
  9
$PUCSORGBOTTOM
 10
0.0
 20
0.0
 30
0.0
  9
$PUCSORGLEFT
 10
0.0
 20
0.0
 30
0.0
  9
$PUCSORGRIGHT
 10
0.0
 20
0.0
 30
0.0
  9
$PUCSORGFRONT
 10
0.0
 20
0.0
 30
0.0
  9
$PUCSORGBACK
 10
0.0
 20
0.0
 30
0.0
  9
$USERI1
 70
     0
  9
$USERI2
 70
     0
  9
$USERI3
 70
     0
  9
$USERI4
 70
     0
  9
$USERI5
 70
     0
  9
$USERR1
 40
0.0
  9
$USERR2
 40
0.0
  9
$USERR3
 40
0.0
  9
$USERR4
 40
0.0
  9
$USERR5
 40
0.0
  9
$WORLDVIEW
 70
     1
  9
$SHADEDGE
 70
     3
  9
$SHADEDIF
 70
    70
  9
$TILEMODE
 70
     1
  9
$MAXACTVP
 70
    64
  9
$PINSBASE
 10
0.0
 20
0.0
 30
0.0
  9
$PLIMCHECK
 70
     0
  9
$PEXTMIN
 10
1.0000000000E+20
 20
1.0000000000E+20
 30
1.0000000000E+20
  9
$PEXTMAX
 10
-1.0000000000E+20
 20
-1.0000000000E+20
 30
-1.0000000000E+20
  9
$PLIMMIN
 10
0.0
 20
0.0
  9
$PLIMMAX
 10
420.0
 20
297.0
  9
$UNITMODE
 70
     0
  9
$VISRETAIN
 70
     1
  9
$PLINEGEN
 70
     0
  9
$PSLTSCALE
 70
     1
  9
$TREEDEPTH
 70
  3020
  9
$CMLSTYLE
  2
Standard
  9
$CMLJUST
 70
     0
  9
$CMLSCALE
 40
20.0
  9
$PROXYGRAPHICS
 70
     1
  9
$MEASUREMENT
 70
     1
  9
$CELWEIGHT
370
    -1
  9
$ENDCAPS
280
     0
  9
$JOINSTYLE
280
     0
  9
$LWDISPLAY
290
     1
  9
$INSUNITS
 70
     4
  9
$HYPERLINKBASE
  1

  9
$STYLESHEET
  1

  9
$XEDIT
290
     1
  9
$CEPSNTYPE
380
     0
  9
$PSTYLEMODE
290
     1
  9
$FINGERPRINTGUID
  2
{037B905E-0CBC-42B8-9716-420BD06D68B6}
  9
$VERSIONGUID
  2
{FAEB1C32-E019-11D5-929B-00C0DF256EC4}
  9
$EXTNAMES
290
     1
  9
$PSVPSCALE
 40
0.0
  9
$OLESTARTUP
290
     0
  0
ENDSEC
  0
SECTION
  2
CLASSES
  0
CLASS
  1
ACDBDICTIONARYWDFLT
  2
AcDbDictionaryWithDefault
  3
ObjectDBX Classes
 90
        0
280
     0
281
     0
  0
CLASS
  1
VISUALSTYLE
  2
AcDbVisualStyle
  3
ObjectDBX Classes
 90
     4095
280
     0
281
     0
  0
CLASS
  1
MATERIAL
  2
AcDbMaterial
  3
ObjectDBX Classes
 90
     1153
280
     0
281
     0
  0
CLASS
  1
SCALE
  2
AcDbScale
  3
ObjectDBX Classes
 90
     1153
280
     0
281
     0
  0
CLASS
  1
SUN
  2
AcDbSun
  3
SCENEOE
 90
     1153
280
     0
281
     0
  0
CLASS
  1
ACDBPLACEHOLDER
  2
AcDbPlaceHolder
  3
ObjectDBX Classes
 90
        0
280
     0
281
     0
  0
CLASS
  1
LAYOUT
  2
AcDbLayout
  3
ObjectDBX Classes
 90
        0
280
     0
281
     0
  0
ENDSEC
  0
SECTION
  2
TABLES
  0
TABLE
  2
VPORT
  5
8
330
0
100
AcDbSymbolTable
 70
     1
  0
VPORT
  5
29
330
8
100
AcDbSymbolTableRecord
100
AcDbViewportTableRecord
  2
*Active
 70
     0
 10
0.0
 20
0.0
 11
1.0
 21
1.0
 12
-92.5
 22
0.0
 13
0.0
 23
0.0
 14
10.0
 24
10.0
 15
10.0
 25
10.0
 16
0.0
 26
0.0
 36
1.0
 17
0.0
 27
0.0
 37
0.0
 40
91.8
 41
3.1111111111
 42
50.0
 43
0.0
 44
0.0
 50
0.0
 51
0.0
 71
     0
 72
   100
 73
     1
 74
     3
 75
     0
 76
     0
 77
     0
 78
     0
281
     0
 65
     1
110
0.0
120
0.0
130
0.0
111
1.0
121
0.0
131
0.0
112
0.0
122
1.0
132
0.0
 79
     0
146
0.0
  0
ENDTAB
  0
TABLE
  2
LTYPE
  5
5
330
0
100
AcDbSymbolTable
 70
     6
  0
LTYPE
  5
14
330
5
100
AcDbSymbolTableRecord
100
AcDbLinetypeTableRecord
  2
ByBlock
 70
     0
  3

 72
    65
 73
     0
 40
0.0
  0
LTYPE
  5
15
330
5
100
AcDbSymbolTableRecord
100
AcDbLinetypeTableRecord
  2
ByLayer
 70
     0
  3

 72
    65
 73
     0
 40
0.0
  0
LTYPE
  5
16
330
5
100
AcDbSymbolTableRecord
100
AcDbLinetypeTableRecord
  2
Continuous
 70
     0
  3
Solid line
 72
    65
 73
     0
 40
0.0
  0
LTYPE
  5
6A
330
5
100
AcDbSymbolTableRecord
100
AcDbLinetypeTableRecord
  2
HIDDEN
 70
     0
  3
Hidden __ __ __ __ __ __ __ __ __ __ __ __ __ __
 72
    65
 73
     2
 40
1.905
 49
1.27
 74
     0
 49
-0.635
 74
     0
  0
LTYPE
  5
6B
330
5
100
AcDbSymbolTableRecord
100
AcDbLinetypeTableRecord
  2
PHANTOM
 70
     0
  3
Phantom ______  __  __  ______  __  __  ______
 72
    65
 73
     6
 40
12.7
 49
6.35
 74
     0
 49
-1.27
 74
     0
 49
1.27
 74
     0
 49
-1.27
 74
     0
 49
1.27
 74
     0
 49
-1.27
 74
     0
  0
LTYPE
  5
6C
330
5
100
AcDbSymbolTableRecord
100
AcDbLinetypeTableRecord
  2
CENTER
 70
     0
  3
Center ____ _ ____ _ ____ _ ____ _ ____ _ ____
 72
    65
 73
     4
 40
10.16
 49
6.35
 74
     0
 49
-1.27
 74
     0
 49
1.27
 74
     0
 49
-1.27
 74
     0
  0
LTYPE
  5
6D
330
5
100
AcDbSymbolTableRecord
100
AcDbLinetypeTableRecord
  2
CENTERX2
 70
     0
  3
Center (2x) ________  __  ________  __  _____
 72
    65
 73
     4
 40
20.32
 49
12.7
 74
     0
 49
-2.54
 74
     0
 49
2.54
 74
     0
 49
-2.54
 74
     0
  0
LTYPE
  5
6E
330
5
100
AcDbSymbolTableRecord
100
AcDbLinetypeTableRecord
  2
DOT2
 70
     0
  3
Dot (.5x) ........................................
 72
    65
 73
     2
 40
0.635
 49
0.0
 74
     0
 49
-0.635
 74
     0
  0
ENDTAB
  0
TABLE
  2
LAYER
  5
2
330
0
100
AcDbSymbolTable
 70
     1
  0
LAYER
  5
10
330
2
100
AcDbSymbolTableRecord
100
AcDbLayerTableRecord
  2
0
 70
     0
 62
     7
  6
Continuous
370
    -3
390
F
  0
ENDTAB
  0
TABLE
  2
STYLE
  5
3
330
0
100
AcDbSymbolTable
 70
     1
  0
STYLE
  5
11
330
3
100
AcDbSymbolTableRecord
100
AcDbTextStyleTableRecord
  2
Standard
 70
     0
 40
0.0
 41
1.0
 50
0.0
 71
     0
 42
3.5
  3
txt
  4

  0
ENDTAB
  0
TABLE
  2
VIEW
  5
6
330
0
100
AcDbSymbolTable
 70
     0
  0
ENDTAB
  0
TABLE
  2
UCS
  5
7
330
0
100
AcDbSymbolTable
 70
     0
  0
ENDTAB
  0
TABLE
  2
APPID
  5
9
330
0
100
AcDbSymbolTable
 70
     1
  0
APPID
  5
12
330
9
100
AcDbSymbolTableRecord
100
AcDbRegAppTableRecord
  2
ACAD
 70
     0
  0
ENDTAB
  0
TABLE
  2
DIMSTYLE
  5
A
330
0
100
AcDbSymbolTable
 70
     1
100
AcDbDimStyleTable
  0
DIMSTYLE
105
27
330
A
100
AcDbSymbolTableRecord
100
AcDbDimStyleTableRecord
  2
ISO-25
 70
     0
 41
2.5
 42
0.625
 43
3.75
 44
1.25
 73
     0
 74
     0
 77
     1
 78
     8
140
2.5
141
2.5
143
0.0393700787
147
0.625
171
     3
172
     1
178
     0
271
     2
272
     2
274
     3
278
    44
283
     0
284
     8
340
11
  0
ENDTAB
  0
TABLE
  2
BLOCK_RECORD
  5
1
330
0
100
AcDbSymbolTable
 70
     1
  0
BLOCK_RECORD
  5
1F
330
1
100
AcDbSymbolTableRecord
100
AcDbBlockTableRecord
  2
*Model_Space
340
22
  0
BLOCK_RECORD
  5
1B
330
1
100
AcDbSymbolTableRecord
100
AcDbBlockTableRecord
  2
*Paper_Space
340
1E
  0
BLOCK_RECORD
  5
23
330
1
100
AcDbSymbolTableRecord
100
AcDbBlockTableRecord
  2
*Paper_Space0
340
26
  0
ENDTAB
  0
ENDSEC
  0
SECTION
  2
BLOCKS
  0
BLOCK
  5
20
330
1F
100
AcDbEntity
  8
0
100
AcDbBlockBegin
  2
*Model_Space
 70
     0
 10
0.0
 20
0.0
 30
0.0
  3
*Model_Space
  1
*Model_Space
  0
ENDBLK
  5
21
330
1F
100
AcDbEntity
  8
0
100
AcDbBlockEnd
  0
BLOCK
  5
1C
330
1B
100
AcDbEntity
 67
     1
  8
0
100
AcDbBlockBegin
  2
*Paper_Space
 70
     0
 10
0.0
 20
0.0
 30
0.0
  3
*Paper_Space
  1
*Paper_Space
  0
ENDBLK
  5
1D
330
1B
100
AcDbEntity
 67
     1
  8
0
100
AcDbBlockEnd
  0
BLOCK
  5
24
330
23
100
AcDbEntity
  8
0
100
AcDbBlockBegin
  2
*Paper_Space0
 70
     0
 10
0.0
 20
0.0
 30
0.0
  3
*Paper_Space0
  1
*Paper_Space0
  0
ENDBLK
  5
25
330
23
100
AcDbEntity
  8
0
100
AcDbBlockEnd
  0
ENDSEC
  0
SECTION
  2
ENTITIES
  0
SPLINE
  5
73
330
1F
100
AcDbEntity
  8
0
  6
Continuous
 62
     7
370
    15
100
AcDbSpline
210
0.0
220
0.0
230
1.0
 70
     8
 71
     3
 72
    15
 73
    11
 74
     0
 42
0.000000001
 43
0.00000001
 40
0.0
 40
0.0
 40
0.0
 40
0.0
 40
0.093846071655366
 40
0.1970193836445147
 40
0.3087883275284042
 40
0.4292337415953418
 40
0.5583338460606471
 40
0.6968435568465343
 40
0.8440567333622615
 40
0.9999999999999999
 40
0.9999999999999999
 40
0.9999999999999999
 40
0.9999999999999999
 10
-41.86802413273863
 20
-29.97491206518664
 30
0.0
 10
-41.7876143213638
 20
-29.98420554059154
 30
0.0
 10
-41.6188028709046
 20
-30.00371615796627
 30
0.0
 10
-41.35354877959247
 20
-30.0280289476181
 30
0.0
 10
-41.06495216611018
 20
-30.04795508910311
 30
0.0
 10
-40.75391181669085
 20
-30.0673706874286
 30
0.0
 10
-40.4195173342523
 20
-30.08209751660654
 30
0.0
 10
-40.06189698821957
 20
-30.0933807445025
 30
0.0
 10
-39.68101220203131
 20
-30.10038906890425
 30
0.0
 10
-39.41955903222646
 20
-30.10381724476422
 30
0.0
 10
-39.28506787331177
 20
-30.10558069381598
 30
0.0
  0
SPLINE
  5
74
330
1F
100
AcDbEntity
  8
0
  6
Continuous
 62
     7
370
    15
100
AcDbSpline
210
0.0
220
0.0
230
1.0
 70
     8
 71
     3
 72
    23
 73
    19
 74
     0
 42
0.000000001
 43
0.00000001
 40
0.0
 40
0.0
 40
0.0
 40
0.0
 40
0.0759416163008514
 40
0.1500608994071243
 40
0.2220051341782483
 40
0.2918806330755478
 40
0.3600516073311106
 40
0.4263049670982496
 40
0.4910370422685649
 40
0.5539567927325837
 40
0.6151514812860188
 40
0.6743577977621542
 40
0.7321728757884517
 40
0.788446997926264
 40
0.8432567915984566
 40
0.8964213460702004
 40
0.9487823597790042
 40
1.0
 40
1.0
 40
1.0
 40
1.0
 10
-39.28506787331177
 20
-30.10558069381598
 30
0.0
 10
-39.15809782363931
 20
-30.10524866601293
 30
0.0
 10
-38.9072045614241
 20
-30.10459257791287
 30
0.0
 10
-38.53640302948958
 20
-30.08759391513417
 30
0.0
 10
-38.17593574126849
 20
-30.06703865777681
 30
0.0
 10
-37.82664911628867
 20
-30.03128934478266
 30
0.0
 10
-37.48736312578961
 20
-29.99169582729251
 30
0.0
 10
-37.15870129504132
 20
-29.93791162298658
 30
0.0
 10
-36.8404118006161
 20
-29.87626820025425
 30
0.0
 10
-36.53284969081984
 20
-29.80465893197458
 30
0.0
 10
-36.23717669997456
 20
-29.72383095046994
 30
0.0
 10
-35.95300444819253
 20
-29.63385713284336
 30
0.0
 10
-35.68216531212303
 20
-29.53082167644839
 30
0.0
 10
-35.42098952105856
 20
-29.42320648461817
 30
0.0
 10
-35.17469757888183
 20
-29.30145836635251
 30
0.0
 10
-34.93915097494597
 20
-29.17341160164545
 30
0.0
 10
-34.71660965347424
 20
-29.03458403223558
 30
0.0
 10
-34.57671612243301
 20
-28.93246951849641
 30
0.0
 10
-34.50754147813833
 20
-28.88197586726998
 30
0.0
  0
SPLINE
  5
75
330
1F
100
AcDbEntity
  8
0
  6
Continuous
 62
     7
370
    15
100
AcDbSpline
210
0.0
220
0.0
230
1.0
 70
     8
 71
     3
 72
    23
 73
    19
 74
     0
 42
0.000000001
 43
0.00000001
 40
0.0
 40
0.0
 40
0.0
 40
0.0
 40
0.0477559220902249
 40
0.0960764134158162
 40
0.1463221465981039
 40
0.1978124644211115
 40
0.2510889015403943
 40
0.3061743586236078
 40
0.3634188288588709
 40
0.4226965281117912
 40
0.4844426828931159
 40
0.5484606882365387
 40
0.6153637456787171
 40
0.685186135405287
 40
0.7582203436367504
 40
0.8352278797996586
 40
0.9154811911303435
 40
1.0
 40
1.0
 40
1.0
 40
1.0
 10
-34.50754147813832
 20
-28.88197586726998
 30
0.0
 10
-34.44844504035328
 20
-28.83753684453818
 30
0.0
 10
-34.3295535282742
 20
-28.74813344213483
 30
0.0
 10
-34.16050425825978
 20
-28.5969981271891
 30
0.0
 10
-33.99775540964146
 20
-28.43122639700164
 30
0.0
 10
-33.83757589255688
 20
-28.25230402917314
 30
0.0
 10
-33.68872077136687
 20
-28.05451009860974
 30
0.0
 10
-33.53938277278296
 20
-27.84602731941997
 30
0.0
 10
-33.40234406220814
 20
-27.61831758542813
 30
0.0
 10
-33.26399631988067
 20
-27.37953915966787
 30
0.0
 10
-33.1391399151259
 20
-27.12133940891233
 30
0.0
 10
-33.0329487309582
 20
-26.84243660624102
 30
0.0
 10
-32.93778909012334
 20
-26.54648036047422
 30
0.0
 10
-32.86085687033309
 20
-26.23075637213225
 30
0.0
 10
-32.80180010618959
 20
-25.8954832475117
 30
0.0
 10
-32.75409882541866
 20
-25.5421299952778
 30
0.0
 10
-32.7241991072551
 20
-25.16889209727165
 30
0.0
 10
-32.71657858274435
 20
-24.91395226556637
 30
0.0
 10
-32.71266968326653
 20
-24.78318250377073
 30
0.0
  0
SPLINE
  5
76
330
1F
100
AcDbEntity
  8
0
  6
Continuous
 62
     7
370
    15
100
AcDbSpline
210
0.0
220
0.0
230
1.0
 70
     8
 71
     3
 72
    23
 73
    19
 74
     0
 42
0.000000001
 43
0.00000001
 40
0.0
 40
0.0
 40
0.0
 40
0.0
 40
0.0754943281337017
 40
0.1477291528110005
 40
0.2177456321287369
 40
0.2857390140492344
 40
0.350994483283787
 40
0.4146594920186395
 40
0.4765862292756156
 40
0.5368889803132744
 40
0.5962024344166124
 40
0.6547742002455167
 40
0.7126151956583815
 40
0.769944816634789
 40
0.8272760229446476
 40
0.8842749361543903
 40
0.941758130906293
 40
1.0
 40
1.0
 40
1.0
 40
1.0
 10
-32.71266968326653
 20
-24.78318250377073
 30
0.0
 10
-32.71484086310678
 20
-24.67190883404396
 30
0.0
 10
-32.71908948106697
 20
-24.45416578810555
 30
0.0
 10
-32.74179444997483
 20
-24.13384729833712
 30
0.0
 10
-32.77916552610518
 20
-23.82605737609648
 30
0.0
 10
-32.83190922165913
 20
-23.53096713214835
 30
0.0
 10
-32.8977557681915
 20
-23.24812850507939
 30
0.0
 10
-32.97843968759541
 20
-22.9784082733325
 30
0.0
 10
-33.07490292655657
 20
-22.721717687477
 30
0.0
 10
-33.18464849229963
 20
-22.47747610188352
 30
0.0
 10
-33.3072317570404
 20
-22.24496009869977
 30
0.0
 10
-33.44337114344663
 20
-22.02438780182619
 30
0.0
 10
-33.59059697418058
 20
-21.81465584059444
 30
0.0
 10
-33.74928334372846
 20
-21.61575836577602
 30
0.0
 10
-33.9205281552485
 20
-21.4291315082563
 30
0.0
 10
-34.10517737668381
 20
-21.25563643502308
 30
0.0
 10
-34.29872274197759
 20
-21.089840189701
 30
0.0
 10
-34.43763167809588
 20
-20.99069631795285
 30
0.0
 10
-34.50754147813833
 20
-20.94079939668174
 30
0.0
  0
SPLINE
  5
77
330
1F
100
AcDbEntity
  8
0
  6
Continuous
 62
     7
370
    15
100
AcDbSpline
210
0.0
220
0.0
230
1.0
 70
     8
 71
     3
 72
    19
 73
    15
 74
     0
 42
0.000000001
 43
0.00000001
 40
0.0
 40
0.0
 40
0.0
 40
0.0
 40
0.1019220235785304
 40
0.2083359505312539
 40
0.3193506251875022
 40
0.436408119017832
 40
0.4976959781149072
 40
0.5614322392925052
 40
0.6277864713639392
 40
0.6964085773501737
 40
0.7681545118626183
 40
0.8427091479437283
 40
0.9196988980435624
 40
1.0
 40
1.0
 40
1.0
 40
1.0
 10
-34.50754147813833
 20
-20.94079939668174
 30
0.0
 10
-34.63403595894157
 20
-20.85561127399964
 30
0.0
 10
-34.89259978028087
 20
-20.68148062107677
 30
0.0
 10
-35.32181122000437
 20
-20.46952016226102
 30
0.0
 10
-35.78820847894485
 20
-20.28803980917777
 30
0.0
 10
-36.20383208662462
 20
-20.16622462151804
 30
0.0
 10
-36.55629823145476
 20
-20.08384020149294
 30
0.0
 10
-36.83770607573214
 20
-20.03179210539578
 30
0.0
 10
-37.13136798396567
 20
-19.9868654325057
 30
0.0
 10
-37.4380623631576
 20
-19.94842731695861
 30
0.0
 10
-37.75825008322777
 20
-19.92109953455178
 30
0.0
 10
-38.09142466558914
 20
-19.90059742037419
 30
0.0
 10
-38.43778818130905
 20
-19.88651436774666
 30
0.0
 10
-38.67293686168392
 20
-19.88550683194977
 30
0.0
 10
-38.79298642534798
 20
-19.88499245852186
 30
0.0
  0
SPLINE
  5
78
330
1F
100
AcDbEntity
  8
0
  6
Continuous
 62
     7
370
    15
100
AcDbSpline
210
0.0
220
0.0
230
1.0
 70
     8
 71
     3
 72
    13
 73
     9
 74
     0
 42
0.000000001
 43
0.00000001
 40
0.0
 40
0.0
 40
0.0
 40
0.0
 40
0.2756386664876977
 40
0.5375341696657177
 40
0.6619719133773037
 40
0.7805455161389189
 40
0.8931817815892401
 40
1.0
 40
1.0
 40
1.0
 40
1.0
 10
-38.79298642534798
 20
-19.88499245852186
 30
0.0
 10
-39.07648073085001
 20
-19.88714298306313
 30
0.0
 10
-39.62933450153023
 20
-19.89133680840107
 30
0.0
 10
-40.30932355433808
 20
-19.92809606985556
 30
0.0
 10
-40.82712996492263
 20
-19.96733595386234
 30
0.0
 10
-41.19081636760809
 20
-20.0063752153171
 30
0.0
 10
-41.53617742316649
 20
-20.04634054129278
 30
0.0
 10
-41.75938104352171
 20
-20.07984549905229
 30
0.0
 10
-41.86802413273863
 20
-20.09615384615384
 30
0.0
  0
SPLINE
  5
7A
330
1F
100
AcDbEntity
  8
0
  6
Continuous
 62
     7
370
    15
100
AcDbSpline
210
0.0
220
0.0
230
1.0
 70
     8
 71
     3
 72
    11
 73
     7
 74
     0
 42
0.000000001
 43
0.00000001
 40
0.0
 40
0.0
 40
0.0
 40
0.0
 40
0.2492149934845583
 40
0.4988628846072519
 40
0.748823938309783
 40
1.0
 40
1.0
 40
1.0
 40
1.0
 10
-0.9130262832382913
 20
-24.41363166360293
 30
0.0
 10
-1.007438012611467
 20
-24.70545823198417
 30
0.0
 10
-1.196425468772591
 20
-25.28961828460444
 30
0.0
 10
-1.456326570541649
 20
-26.17390990367534
 30
0.0
 10
-1.694464095205253
 20
-27.06680750829489
 30
0.0
 10
-1.837204749822297
 20
-27.66683201190381
 30
0.0
 10
-1.908748114639119
 20
-27.96757164404222
 30
0.0
  0
SPLINE
  5
7C
330
1F
100
AcDbEntity
  8
0
  6
Continuous
 62
     7
370
    15
100
AcDbSpline
210
0.0
220
0.0
230
1.0
 70
     8
 71
     3
 72
    11
 73
     7
 74
     0
 42
0.000000001
 43
0.00000001
 40
0.0
 40
0.0
 40
0.0
 40
0.0
 40
0.2494860662632479
 40
0.4993901365813255
 40
0.7496385875681233
 40
1.0
 40
1.0
 40
1.0
 40
1.0
 10
-1.95504093314873
 20
-27.96757164404222
 30
0.0
 10
-2.023488532271023
 20
-27.66741060564742
 30
0.0
 10
-2.160498411765757
 20
-27.0665856208877
 30
0.0
 10
-2.394882114535868
 20
-26.17167029183393
 30
0.0
 10
-2.643269919349628
 20
-25.27942712880477
 30
0.0
 10
-2.827280255296341
 20
-24.6897176518501
 30
0.0
 10
-2.919306184020726
 20
-24.39479638009049
 30
0.0
  0
SPLINE
  5
86
330
1F
100
AcDbEntity
  8
0
  6
Continuous
 62
     7
370
    15
100
AcDbSpline
210
0.0
220
0.0
230
1.0
 70
     8
 71
     3
 72
    19
 73
    15
 74
     0
 42
0.000000001
 43
0.00000001
 40
0.0
 40
0.0
 40
0.0
 40
0.0
 40
0.1439090498625961
 40
0.281730129848337
 40
0.4138164325497898
 40
0.5403690483863354
 40
0.6017159145494145
 40
0.6608778462759011
 40
0.7190806345727202
 40
0.7757959371212637
 40
0.8319391086213402
 40
0.8877681726251534
 40
0.9436259518385752
 40
1.0
 40
1.0
 40
1.0
 40
1.0
 10
8.650863072083181
 20
-27.60004242081447
 30
0.0
 10
8.862037244278199
 20
-27.42129237921247
 30
0.0
 10
9.275452015690563
 20
-27.07135418923059
 30
0.0
 10
9.84832413468266
 20
-26.51876612761032
 30
0.0
 10
10.3699570576383
 20
-25.96288867347759
 30
0.0
 10
10.76515134107252
 20
-25.49097495635863
 30
0.0
 10
11.04650785873167
 20
-25.10799017695989
 30
0.0
 10
11.22642544976793
 20
-24.81497432651745
 30
0.0
 10
11.38178036842716
 20
-24.51823608493286
 30
0.0
 10
11.50817890610417
 20
-24.21430737735917
 30
0.0
 10
11.61092656707829
 20
-23.90645618175598
 30
0.0
 10
11.68688384503791
 20
-23.59252294862458
 30
0.0
 10
11.73437585408207
 20
-23.27245069202242
 30
0.0
 10
11.74603099307543
 20
-23.05695928493728
 30
0.0
 10
11.75188536952379
 20
-22.94871794871794
 30
0.0
  0
SPLINE
  5
87
330
1F
100
AcDbEntity
  8
0
  6
Continuous
 62
     7
370
    15
100
AcDbSpline
210
0.0
220
0.0
230
1.0
 70
     8
 71
     3
 72
    23
 73
    19
 74
     0
 42
0.000000001
 43
0.00000001
 40
0.0
 40
0.0
 40
0.0
 40
0.0
 40
0.0574243976165016
 40
0.1131611883682567
 40
0.167522090842196
 40
0.2212864285860184
 40
0.2745131509827969
 40
0.3284896241581248
 40
0.3833075884208034
 40
0.4402612863147569
 40
0.498705926003894
 40
0.5591047226860324
 40
0.6218928150086905
 40
0.688291057748873
 40
0.759080179927143
 40
0.8340744394773436
 40
0.9143894284316914
 40
1.0
 40
1.0
 40
1.0
 40
1.0
 10
11.75188536952379
 20
-22.94871794871794
 30
0.0
 10
11.74932518991549
 20
-22.84742820114707
 30
0.0
 10
11.74428007008951
 20
-22.64782544203433
 30
0.0
 10
11.70509498432955
 20
-22.35420348227616
 30
0.0
 10
11.63379155532747
 20
-22.0736707291244
 30
0.0
 10
11.53881050311721
 20
-21.80485670795335
 30
0.0
 10
11.41240990613657
 20
-21.54992754434554
 30
0.0
 10
11.25912257746346
 20
-21.30822488773607
 30
0.0
 10
11.07826023172426
 20
-21.07790247548347
 30
0.0
 10
10.86930165180995
 20
-20.86173995142537
 30
0.0
 10
10.63169707124906
 20
-20.66123424505206
 30
0.0
 10
10.35936331609143
 20
-20.49099923996205
 30
0.0
 10
10.0593354152588
 20
-20.3421116533508
 30
0.0
 10
9.726780748196385
 20
-20.22262525403254
 30
0.0
 10
9.364498588126754
 20
-20.12731482616687
 30
0.0
 10
8.971779381810485
 20
-20.05638857777127
 30
0.0
 10
8.549131443297636
 20
-20.00848596382327
 30
0.0
 10
8.256543630494633
 20
-19.99915715975115
 30
0.0
 10
8.105580693807346
 20
-19.9943438914027
 30
0.0
  0
SPLINE
  5
88
330
1F
100
AcDbEntity
  8
0
  6
Continuous
 62
     7
370
    15
100
AcDbSpline
210
0.0
220
0.0
230
1.0
 70
     8
 71
     3
 72
    15
 73
    11
 74
     0
 42
0.000000001
 43
0.00000001
 40
0.0
 40
0.0
 40
0.0
 40
0.0
 40
0.1453707974529579
 40
0.28538935458707
 40
0.420234719668649
 40
0.5516126854443938
 40
0.6762845262057476
 40
0.7921814495199797
 40
0.8998898419313456
 40
1.0
 40
1.0
 40
1.0
 40
1.0
 10
8.105580693807346
 20
-19.9943438914027
 30
0.0
 10
7.938285816738833
 20
-19.9990466641283
 30
0.0
 10
7.609855500410961
 20
-20.00827906359535
 30
0.0
 10
7.128378882299974
 20
-20.0595040456239
 30
0.0
 10
6.667783334980859
 20
-20.14236075605634
 30
0.0
 10
6.232064322095568
 20
-20.25571784920102
 30
0.0
 10
5.82451856167554
 20
-20.38787888125734
 30
0.0
 10
5.452817028379547
 20
-20.53820893747788
 30
0.0
 10
5.114046590421611
 20
-20.69479572986513
 30
0.0
 10
4.910089931789208
 20
-20.82010412740074
 30
0.0
 10
4.811840120655011
 20
-20.88046757164403
 30
0.0
  0
SPLINE
  5
8A
330
1F
100
AcDbEntity
  8
0
  6
Continuous
 62
     7
370
    15
100
AcDbSpline
210
0.0
220
0.0
230
1.0
 70
     8
 71
     3
 72
    15
 73
    11
 74
     0
 42
0.000000001
 43
0.00000001
 40
0.0
 40
0.0
 40
0.0
 40
0.0
 40
0.1077629939648411
 40
0.2216014169380643
 40
0.3419282196476432
 40
0.4686737653632231
 40
0.598934871620946
 40
0.7301888094221772
 40
0.8632616750042849
 40
1.0
 40
1.0
 40
1.0
 40
1.0
 10
5.450091101636342
 20
-22.26534329927884
 30
0.0
 10
5.521686314938434
 20
-22.22169035684045
 30
0.0
 10
5.668913114510302
 20
-22.13192341976912
 30
0.0
 10
5.902840483061403
 20
-22.0047621682841
 30
0.0
 10
6.158211821202214
 20
-21.88768474901133
 30
0.0
 10
6.42876519878044
 20
-21.77338471287302
 30
0.0
 10
6.715584574321823
 20
-21.6772284907941
 30
0.0
 10
7.014450168942449
 20
-21.60550518771566
 30
0.0
 10
7.323632224318449
 20
-21.5588791284415
 30
0.0
 10
7.533523211992327
 20
-21.55033375097763
 30
0.0
 10
7.63989441929755
 20
-21.54600301659124
 30
0.0
  0
SPLINE
  5
8B
330
1F
100
AcDbEntity
  8
0
  6
Continuous
 62
     7
370
    15
100
AcDbSpline
210
0.0
220
0.0
230
1.0
 70
     8
 71
     3
 72
    23
 73
    19
 74
     0
 42
0.000000001
 43
0.00000001
 40
0.0
 40
0.0
 40
0.0
 40
0.0
 40
0.0845536711758245
 40
0.1640169367600495
 40
0.238081952187012
 40
0.3072152707883642
 40
0.3722407068630982
 40
0.4342794169515291
 40
0.4935113756418525
 40
0.551386681938876
 40
0.6082926766975618
 40
0.6633673322445552
 40
0.7175357379244028
 40
0.7722626178556804
 40
0.8271958528188665
 40
0.8828283592180657
 40
0.9402292697574127
 40
1.0
 40
1.0
 40
1.0
 40
1.0
 10
7.63989441929755
 20
-21.54600301659124
 30
0.0
 10
7.717259269120841
 20
-21.54874792493312
 30
0.0
 10
7.867331353566848
 20
-21.55407248922066
 30
0.0
 10
8.084111231919309
 20
-21.57861066900045
 30
0.0
 10
8.2846085575579
 20
-21.6159493271173
 30
0.0
 10
8.468910208800946
 20
-21.66584770278293
 30
0.0
 10
8.635937723850684
 20
-21.73271951760813
 30
0.0
 10
8.787675242260221
 20
-21.81126396859865
 30
0.0
 10
8.922994741990015
 20
-21.90465090406472
 30
0.0
 10
9.04239180952554
 20
-22.01067221348932
 30
0.0
 10
9.145357541139237
 20
-22.12761701115705
 30
0.0
 10
9.234307269747166
 20
-22.25114315691476
 30
0.0
 10
9.311692230709365
 20
-22.3801338126645
 30
0.0
 10
9.370878518119186
 20
-22.51829891723492
 30
0.0
 10
9.418334225841942
 20
-22.66210953905682
 30
0.0
 10
9.452889455878008
 20
-22.81218926075763
 30
0.0
 10
9.471548421638804
 20
-22.96960043388759
 30
0.0
 10
9.473409576040703
 20
-23.0768761162121
 30
0.0
 10
9.474358974350338
 20
-23.13159879336349
 30
0.0
  0
SPLINE
  5
8C
330
1F
100
AcDbEntity
  8
0
  6
Continuous
 62
     7
370
    15
100
AcDbSpline
210
0.0
220
0.0
230
1.0
 70
     8
 71
     3
 72
    23
 73
    19
 74
     0
 42
0.000000001
 43
0.00000001
 40
0.0
 40
0.0
 40
0.0
 40
0.0
 40
0.0419429107257201
 40
0.0847978612671442
 40
0.1291607279672836
 40
0.1756045025775456
 40
0.2246022042653759
 40
0.2762063982767785
 40
0.3309022178964436
 40
0.3888198551450469
 40
0.4506005509407535
 40
0.5163588158769585
 40
0.5863829249938913
 40
0.6606957378517564
 40
0.7390973963932486
 40
0.8216276446483426
 40
0.9087408660888818
 40
0.9999999999999999
 40
0.9999999999999999
 40
0.9999999999999999
 40
0.9999999999999999
 10
9.474358974350338
 20
-23.13159879336349
 30
0.0
 10
9.470587888068497
 20
-23.21410989540351
 30
0.0
 10
9.462963714022859
 20
-23.38092628612906
 30
0.0
 10
9.416143309555745
 20
-23.63159079906609
 30
0.0
 10
9.33882152847254
 20
-23.88328816806149
 30
0.0
 10
9.23667018794408
 20
-24.13904124766612
 30
0.0
 10
9.105679980826912
 20
-24.39737641788728
 30
0.0
 10
8.946675000960164
 20
-24.65868026609754
 30
0.0
 10
8.756348434200909
 20
-24.920101689163
 30
0.0
 10
8.540021849244114
 20
-25.18656457060814
 30
0.0
 10
8.2978800565853
 20
-25.4596596771285
 30
0.0
 10
8.030595224698317
 20
-25.74190918370648
 30
0.0
 10
7.742763398223717
 20
-26.03862796796486
 30
0.0
 10
7.429227648208372
 20
-26.34485086234773
 30
0.0
 10
7.094222708021306
 20
-26.6642527386958
 30
0.0
 10
6.732489902257111
 20
-26.99189469975419
 30
0.0
 10
6.348850914064924
 20
-27.33296590646274
 30
0.0
 10
6.082899197948244
 20
-27.56195457635733
 30
0.0
 10
5.946832579176887
 20
-27.67911010558069
 30
0.0
  0
SPLINE
  5
92
330
1F
100
AcDbEntity
  8
0
  6
Continuous
 62
     7
370
    15
100
AcDbSpline
210
0.0
220
0.0
230
1.0
 70
     8
 71
     3
 72
    27
 73
    23
 74
     0
 42
0.000000001
 43
0.00000001
 40
0.0
 40
0.0
 40
0.0
 40
0.0
 40
0.0547912363586781
 40
0.1057107032558066
 40
0.1522070557780198
 40
0.1945678002510389
 40
0.232804240867116
 40
0.2671721378275776
 40
0.2971614760202483
 40
0.3230758169431161
 40
0.3705629168236703
 40
0.41775238028153
 40
0.4659191311843285
 40
0.5157855596670213
 40
0.5674485029554667
 40
0.620308520500224
 40
0.6752651178748634
 40
0.733511203150063
 40
0.794772011414806
 40
0.8594617586790506
 40
0.9274566268817447
 40
1.0
 40
1.0
 40
1.0
 40
1.0
 10
-22.6705882352985
 20
2.580882352941176
 30
0.0
 10
-22.66921800017636
 20
2.944856047309083
 30
0.0
 10
-22.66657435626517
 20
3.647083588705884
 30
0.0
 10
-22.65524305133958
 20
4.658132647912515
 30
0.0
 10
-22.64027006578188
 20
5.586539713343734
 30
0.0
 10
-22.61449986647723
 20
6.430505756499486
 30
0.0
 10
-22.57189159265749
 20
7.193041129299528
 30
0.0
 10
-22.53827894700111
 20
7.873773514196499
 30
0.0
 10
-22.4884199257675
 20
8.471502939140366
 30
0.0
 10
-22.4115143348706
 20
9.15402095145031
 30
0.0
 10
-22.25413941872215
 20
9.942407043760324
 30
0.0
 10
-21.92175631802287
 20
10.83517407237864
 30
0.0
 10
-21.45955001932954
 20
11.68551911435749
 30
0.0
 10
-20.8652245771814
 20
12.48638255113706
 30
0.0
 10
-20.15073207900793
 20
13.22702810930072
 30
0.0
 10
-19.30692548028701
 20
13.87293356663547
 30
0.0
 10
-18.35523413113294
 20
14.43646906949218
 30
0.0
 10
-17.28684880889145
 20
14.89188107471875
 30
0.0
 10
-16.1196316441157
 20
15.26651970246309
 30
0.0
 10
-14.85354766271868
 20
15.51509888167023
 30
0.0
 10
-13.49865227208857
 20
15.68353118899989
 30
0.0
 10
-12.56453030350081
 20
15.69827292671411
 30
0.0
 10
-12.08235294118085
 20
15.70588235294117
 30
0.0
  0
SPLINE
  5
94
330
1F
100
AcDbEntity
  8
0
  6
Continuous
 62
     7
370
    15
100
AcDbSpline
210
0.0
220
0.0
230
1.0
 70
     8
 71
     3
 72
    27
 73
    23
 74
     0
 42
0.000000001
 43
0.00000001
 40
0.0
 40
0.0
 40
0.0
 40
0.0
 40
0.0692417159313664
 40
0.1352646883957495
 40
0.1981783250004144
 40
0.2591281783045241
 40
0.3173174562649176
 40
0.3727282249455252
 40
0.4260929820298737
 40
0.4787415854831809
 40
0.5297261251480246
 40
0.5784423089480033
 40
0.625579157866755
 40
0.67238327192773
 40
0.6980290997585051
 40
0.7283256449027162
 40
0.7627186576466977
 40
0.8015044871774102
 40
0.8444288752873829
 40
0.8920492083022825
 40
0.9438114428792282
 40
1.0
 40
1.0
 40
1.0
 40
1.0
 10
-12.08235294118085
 20
-15.70588235294118
 30
0.0
 10
-12.54236111059944
 20
-15.69697421252971
 30
0.0
 10
-13.4409936886479
 20
-15.67957203205606
 30
0.0
 10
-14.75005661849463
 20
-15.52599303254338
 30
0.0
 10
-15.9898535786135
 20
-15.28767822599662
 30
0.0
 10
-17.15069414121939
 20
-14.94236123409643
 30
0.0
 10
-18.22506983369301
 20
-14.50018120414944
 30
0.0
 10
-19.19157750287245
 20
-13.9508745193512
 30
0.0
 10
-20.05388301733867
 20
-13.308215940822
 30
0.0
 10
-20.7894764593312
 20
-12.56372768639495
 30
0.0
 10
-21.39945773780023
 20
-11.75359137171542
 30
0.0
 10
-21.8895812172406
 20
-10.90659082225556
 30
0.0
 10
-22.22806333217268
 20
-10.01772450031209
 30
0.0
 10
-22.40310063388977
 20
-9.239941514346881
 30
0.0
 10
-22.4764450565695
 20
-8.561271344125213
 30
0.0
 10
-22.53273637600645
 20
-7.963973776947533
 30
0.0
 10
-22.57549943813055
 20
-7.277965545372077
 30
0.0
 10
-22.60652636692373
 20
-6.50749755136134
 30
0.0
 10
-22.63400271586802
 20
-5.649007781298988
 30
0.0
 10
-22.65710440119383
 20
-4.704156295135436
 30
0.0
 10
-22.66607875159668
 20
-3.670971499255631
 30
0.0
 10
-22.66904453852872
 20
-2.954044161522225
 30
0.0
 10
-22.6705882352985
 20
-2.580882352941178
 30
0.0
  0
SPLINE
  5
95
330
1F
100
AcDbEntity
  8
0
  6
Continuous
 62
     7
370
    15
100
AcDbSpline
210
0.0
220
0.0
230
1.0
 70
     8
 71
     3
 72
    27
 73
    23
 74
     0
 42
0.000000001
 43
0.00000001
 40
0.0
 40
0.0
 40
0.0
 40
0.0
 40
0.0547999745705623
 40
0.1054508146211184
 40
0.1522313026343498
 40
0.1945988028804702
 40
0.2328413415177276
 40
0.2669552434600316
 40
0.2972251811447342
 40
0.3231436549365949
 40
0.3706383281512826
 40
0.4177402792532622
 40
0.4660472961234239
 40
0.5161446415564006
 40
0.567424465983928
 40
0.6202929137460743
 40
0.6752582757046912
 40
0.7335136501777333
 40
0.7947010359941978
 40
0.8591864584030371
 40
0.9274350287970718
 40
1.0
 40
1.0
 40
1.0
 40
1.0
 10
-1.494117647063198
 20
-2.580882352941178
 30
0.0
 10
-1.49546748276784
 20
-2.944856646115184
 30
0.0
 10
-1.498064952488845
 20
-3.645247221423272
 30
0.0
 10
-1.50964702909423
 20
-4.656288289849069
 30
0.0
 10
-1.524107278336517
 20
-5.584717609148577
 30
0.0
 10
-1.550995255212059
 20
-6.430458478299978
 30
0.0
 10
-1.590220200508641
 20
-7.191470844017718
 30
0.0
 10
-1.634197130448725
 20
-7.871687441336496
 30
0.0
 10
-1.681164580519923
 20
-8.469685756283106
 30
0.0
 10
-1.758645473035281
 20
-9.154131076761931
 30
0.0
 10
-1.918141680638627
 20
-9.94086254440367
 30
0.0
 10
-2.239992795370655
 20
-10.83823321861489
 30
0.0
 10
-2.714022571036048
 20
-11.68428630861301
 30
0.0
 10
-3.300806309661605
 20
-12.48978557894278
 30
0.0
 10
-4.016373143884714
 20
-13.22841564137967
 30
0.0
 10
-4.857648651843599
 20
-13.87312802929149
 30
0.0
 10
-5.809664367837003
 20
-14.43585943264649
 30
0.0
 10
-6.876663974804783
 20
-14.89409043775616
 30
0.0
 10
-8.045373373934073
 20
-15.25602166955734
 30
0.0
 10
-9.307700313202632
 20
-15.52100611222539
 30
0.0
 10
-10.66501257242195
 20
-15.6734874643734
 30
0.0
 10
-11.60034909883431
 20
-15.69486561969472
 30
0.0
 10
-12.08235294118085
 20
-15.70588235294118
 30
0.0
  0
SPLINE
  5
97
330
1F
100
AcDbEntity
  8
0
  6
Continuous
 62
     7
370
    15
100
AcDbSpline
210
0.0
220
0.0
230
1.0
 70
     8
 71
     3
 72
    27
 73
    23
 74
     0
 42
0.000000001
 43
0.00000001
 40
0.0
 40
0.0
 40
0.0
 40
0.0
 40
0.0692489191767178
 40
0.1352787600391915
 40
0.1982531125488809
 40
0.2592093064923229
 40
0.3172985447723973
 40
0.3727150778589927
 40
0.4260853865018665
 40
0.4787394670119306
 40
0.5297293106202625
 40
0.5784505623856978
 40
0.6255923149710224
 40
0.6726119995980498
 40
0.6982604953752736
 40
0.7282845442265459
 40
0.7626811348903669
 40
0.8014838376042335
 40
0.8444126911566775
 40
0.8920379781352074
 40
0.9438055975595762
 40
1.0
 40
1.0
 40
1.0
 40
1.0
 10
-12.08235294118085
 20
15.70588235294117
 30
0.0
 10
-11.62237626920629
 20
15.69680215121044
 30
0.0
 10
-10.72380522186793
 20
15.67906384647381
 30
0.0
 10
-9.413946208354007
 20
15.52783715205758
 30
0.0
 10
-8.175360317705021
 20
15.28090170623318
 30
0.0
 10
-7.015341859705079
 20
14.93571879948679
 30
0.0
 10
-5.938358304680105
 20
14.50136557807906
 30
0.0
 10
-4.973299521443014
 20
13.95048732290865
 30
0.0
 10
-4.110764344967849
 20
13.30831973306823
 30
0.0
 10
-3.375295512033541
 20
12.56368966271306
 30
0.0
 10
-2.765051190975767
 20
11.75364087364115
 30
0.0
 10
-2.275805474858464
 20
10.90643855160512
 30
0.0
 10
-1.933694603184988
 20
10.01695437280989
 30
0.0
 10
-1.768410433390113
 20
9.235553082430759
 30
0.0
 10
-1.693896851040752
 20
8.557625079396356
 30
0.0
 10
-1.636851104803216
 20
7.962164251742362
 30
0.0
 10
-1.596512419932611
 20
7.277799083142779
 30
0.0
 10
-1.555892540608228
 20
6.507688427369715
 30
0.0
 10
-1.531418457955458
 20
5.648974772072351
 30
0.0
 10
-1.50738367245494
 20
4.704166346558601
 30
0.0
 10
-1.498689096200934
 20
3.670968639678483
 30
0.0
 10
-1.495682555982661
 20
2.954043182625238
 30
0.0
 10
-1.494117647063198
 20
2.580882352941176
 30
0.0
  0
SPLINE
  5
AC
330
1F
100
AcDbEntity
  8
0
  6
Continuous
 62
     7
370
    15
100
AcDbSpline
210
0.0
220
0.0
230
1.0
 70
     8
 71
     3
 72
    31
 73
    27
 74
     0
 42
0.000000001
 43
0.00000001
 40
0.0
 40
0.0
 40
0.0
 40
0.0
 40
0.0550864805623539
 40
0.1063052353919065
 40
0.1537698504755455
 40
0.1979777208226842
 40
0.238665836469183
 40
0.276572566074826
 40
0.3114082239386418
 40
0.3438238023845818
 40
0.3752921285061497
 40
0.4074286810842404
 40
0.4400137096050127
 40
0.4740820841153143
 40
0.5090291569475947
 40
0.5458239790582985
 40
0.5839777383468641
 40
0.6238243449746249
 40
0.6654973609431739
 40
0.7085649571050192
 40
0.7530052443294507
 40
0.7987572529029991
 40
0.8463568135339407
 40
0.8958946667256256
 40
0.947072926412352
 40
1.0
 40
1.0
 40
1.0
 40
1.0
 10
-161.9411764705926
 20
7.180147058823527
 30
0.0
 10
-161.9382520241021
 20
7.461478920975727
 30
0.0
 10
-161.9326084620268
 20
8.004389804445228
 30
0.0
 10
-161.8825849810566
 20
8.788384022590643
 30
0.0
 10
-161.8018945092925
 20
9.514015581307413
 30
0.0
 10
-161.6852698611756
 20
10.180018336422
 30
0.0
 10
-161.5466708072445
 20
10.79239321664224
 30
0.0
 10
-161.3624113655853
 20
11.34212357603197
 30
0.0
 10
-161.1579471579782
 20
11.83990202156939
 30
0.0
 10
-160.9020058329135
 20
12.2756391599904
 30
0.0
 10
-160.6170570070186
 20
12.67561581745574
 30
0.0
 10
-160.2889272907473
 20
13.04199065052822
 30
0.0
 10
-159.9290679720378
 20
13.39649016160637
 30
0.0
 10
-159.5196667308408
 20
13.7165815570607
 30
0.0
 10
-159.0745093689411
 20
14.02316824379429
 30
0.0
 10
-158.5912550137796
 20
14.30965871148896
 30
0.0
 10
-158.0643351316146
 20
14.56771817976569
 30
0.0
 10
-157.5005799774961
 20
14.80411035848536
 30
0.0
 10
-156.9019654840479
 20
15.02112490594324
 30
0.0
 10
-156.2660492849291
 20
15.1978165910172
 30
0.0
 10
-155.605352198462
 20
15.36170206034532
 30
0.0
 10
-154.9123594544126
 20
15.48618242788682
 30
0.0
 10
-154.1892982237323
 20
15.58510141018539
 30
0.0
 10
-153.4351088545779
 20
15.65779271812078
 30
0.0
 10
-152.6510817504033
 20
15.6936623652876
 30
0.0
 10
-152.119513570863
 20
15.70176366050879
 30
0.0
 10
-151.8492647058867
 20
15.70588235294117
 30
0.0
  0
SPLINE
  5
AD
330
1F
100
AcDbEntity
  8
0
  6
Continuous
 62
     7
370
    15
100
AcDbSpline
210
0.0
220
0.0
230
1.0
 70
     8
 71
     3
 72
    23
 73
    19
 74
     0
 42
0.000000001
 43
0.00000001
 40
0.0
 40
0.0
 40
0.0
 40
0.0
 40
0.0768253546686769
 40
0.1468536777135638
 40
0.2105147843088533
 40
0.2677619952038293
 40
0.3186684021816801
 40
0.3630327662898917
 40
0.4010015945028199
 40
0.4327296288898049
 40
0.4906198658749734
 40
0.5503502822247537
 40
0.6130473030795021
 40
0.6789819000535146
 40
0.7495957274364914
 40
0.8258027618212821
 40
0.9090865489168888
 40
1.0
 40
1.0
 40
1.0
 40
1.0
 10
-154.5569852941219
 20
-2.034926470588236
 30
0.0
 10
-154.8418613641167
 20
-1.878594548689489
 30
0.0
 10
-155.3864094335886
 20
-1.579761985223029
 30
0.0
 10
-156.1678112112841
 20
-1.152672728914914
 30
0.0
 10
-156.8655731742687
 20
-0.7459107425938455
 30
0.0
 10
-157.4970113295784
 20
-0.3860822568050771
 30
0.0
 10
-158.0478067945442
 20
-0.0499684382258996
 30
0.0
 10
-158.5212446728184
 20
0.2557253158052732
 30
0.0
 10
-158.9272417436618
 20
0.5165679977978587
 30
0.0
 10
-159.3643316693339
 20
0.8335500169079039
 30
0.0
 10
-159.8407929480759
 20
1.251227135398439
 30
0.0
 10
-160.3439517727446
 20
1.826851462091706
 30
0.0
 10
-160.8029420409512
 20
2.479777398975137
 30
0.0
 10
-161.2104437858223
 20
3.219641679135345
 30
0.0
 10
-161.5439223364417
 20
4.0584066087069
 30
0.0
 10
-161.7784959887304
 20
5.005702124845164
 30
0.0
 10
-161.9126949730527
 20
6.058647846478127
 30
0.0
 10
-161.931409413517
 20
6.795555384812928
 30
0.0
 10
-161.9411764705926
 20
7.180147058823527
 30
0.0
  0
SPLINE
  5
AE
330
1F
100
AcDbEntity
  8
0
  6
Continuous
 62
     7
370
    15
100
AcDbSpline
210
0.0
220
0.0
230
1.0
 70
     8
 71
     3
 72
    15
 73
    11
 74
     0
 42
0.000000001
 43
0.00000001
 40
0.0
 40
0.0
 40
0.0
 40
0.0
 40
0.0665320617077191
 40
0.1487463137477981
 40
0.2481359188248927
 40
0.3651045181892487
 40
0.4979556018568768
 40
0.6485513752529893
 40
0.8156203396134253
 40
0.9999999999999999
 40
0.9999999999999999
 40
0.9999999999999999
 40
0.9999999999999999
 10
-150.1066176470631
 20
-4.770220588235294
 30
0.0
 10
-150.1936400385664
 20
-4.693330680273487
 30
0.0
 10
-150.388196762308
 20
-4.521427238832421
 30
0.0
 10
-150.7430931649694
 20
-4.272739902820175
 30
0.0
 10
-151.1719063719207
 20
-3.977416682130444
 30
0.0
 10
-151.6905609477213
 20
-3.657686764949734
 30
0.0
 10
-152.287516748853
 20
-3.295208891238522
 30
0.0
 10
-152.9722267630266
 20
-2.909559776803563
 30
0.0
 10
-153.731742418852
 20
-2.473704584703841
 30
0.0
 10
-154.2730174534904
 20
-2.185910959295336
 30
0.0
 10
-154.5569852941219
 20
-2.034926470588236
 30
0.0
  0
SPLINE
  5
AF
330
1F
100
AcDbEntity
  8
0
  6
Continuous
 62
     7
370
    15
100
AcDbSpline
210
0.0
220
0.0
230
1.0
 70
     8
 71
     3
 72
    15
 73
    11
 74
     0
 42
0.000000001
 43
0.00000001
 40
0.0
 40
0.0
 40
0.0
 40
0.0
 40
0.1738221899464926
 40
0.3317269182988717
 40
0.4754391843857785
 40
0.6042023094717713
 40
0.7193121411841453
 40
0.8224942909377594
 40
0.9157346686234652
 40
1.0
 40
1.0
 40
1.0
 40
1.0
 10
-149.2352941176514
 20
-8.294117647058822
 30
0.0
 10
-149.2360495973363
 20
-8.078934031063465
 30
0.0
 10
-149.2374913749815
 20
-7.668271860574637
 30
0.0
 10
-149.2852999306714
 20
-7.081424664904088
 30
0.0
 10
-149.3479137073726
 20
-6.552442584198499
 30
0.0
 10
-149.4376869782036
 20
-6.080446861935743
 30
0.0
 10
-149.566661460979
 20
-5.669837059921819
 30
0.0
 10
-149.7138026346786
 20
-5.313383496509545
 30
0.0
 10
-149.8857564363592
 20
-5.008476802045593
 30
0.0
 10
-150.0355213826444
 20
-4.846916386118784
 30
0.0
 10
-150.1066176470631
 20
-4.770220588235294
 30
0.0
  0
SPLINE
  5
B0
330
1F
100
AcDbEntity
  8
0
  6
Continuous
 62
     7
370
    15
100
AcDbSpline
210
0.0
220
0.0
230
1.0
 70
     8
 71
     3
 72
    15
 73
    11
 74
     0
 42
0.000000001
 43
0.00000001
 40
0.0
 40
0.0
 40
0.0
 40
0.0
 40
0.1329546513699116
 40
0.2502558366312564
 40
0.3608484546839476
 40
0.4673664639275834
 40
0.5797596044041499
 40
0.7036807820039701
 40
0.8431060886743691
 40
0.9999999999999999
 40
0.9999999999999999
 40
0.9999999999999999
 40
0.9999999999999999
 10
-151.2757352941219
 20
-10.76470588235294
 30
0.0
 10
-151.1131820325984
 20
-10.75838988854907
 30
0.0
 10
-150.8072137792085
 20
-10.74650151685798
 30
0.0
 10
-150.3781178234722
 20
-10.62895010754217
 30
0.0
 10
-150.0175555803203
 20
-10.42878488574914
 30
0.0
 10
-149.7250736232147
 20
-10.1462699917675
 30
0.0
 10
-149.5025066028661
 20
-9.787747713303522
 30
0.0
 10
-149.3434043425668
 20
-9.354847029082752
 30
0.0
 10
-149.2531132937558
 20
-8.847437819894207
 30
0.0
 10
-149.241462783241
 20
-8.485666745076905
 30
0.0
 10
-149.2352941176514
 20
-8.294117647058822
 30
0.0
  0
SPLINE
  5
B1
330
1F
100
AcDbEntity
  8
0
  6
Continuous
 62
     7
370
    15
100
AcDbSpline
210
0.0
220
0.0
230
1.0
 70
     8
 71
     3
 72
    19
 73
    15
 74
     0
 42
0.000000001
 43
0.00000001
 40
0.0
 40
0.0
 40
0.0
 40
0.0
 40
0.1089407228459919
 40
0.2068594813329089
 40
0.2951194952458825
 40
0.3741209248757327
 40
0.444255553622741
 40
0.503916672760064
 40
0.5558154111394696
 40
0.6003742484695388
 40
0.684365531538152
 40
0.7749268968525888
 40
0.8796037911121436
 40
1.0
 40
1.0
 40
1.0
 40
1.0
 10
-153.1176470588278
 20
-7.946691176470589
 30
0.0
 10
-153.1174856354737
 20
-8.090130016857977
 30
0.0
 10
-153.1171791206053
 20
-8.36249542210203
 30
0.0
 10
-153.0908657489068
 20
-8.750198327557031
 30
0.0
 10
-153.0675769628994
 20
-9.098469032363532
 30
0.0
 10
-153.0249940612435
 20
-9.408544549734525
 30
0.0
 10
-152.9624888071573
 20
-9.676234866264009
 30
0.0
 10
-152.9002682345328
 20
-9.907623149642525
 30
0.0
 10
-152.817125115733
 20
-10.09632480805552
 30
0.0
 10
-152.6926388615203
 20
-10.29985965484731
 30
0.0
 10
-152.4738316004149
 20
-10.49672535709118
 30
0.0
 10
-152.1399515080917
 20
-10.65860883800557
 30
0.0
 10
-151.7305609414089
 20
-10.74724118370178
 30
0.0
 10
-151.4342422344801
 20
-10.75861942710578
 30
0.0
 10
-151.275735294122
 20
-10.76470588235294
 30
0.0
  0
SPLINE
  5
B5
330
1F
100
AcDbEntity
  8
0
  6
Continuous
 62
     7
370
    15
100
AcDbSpline
210
0.0
220
0.0
230
1.0
 70
     8
 71
     3
 72
    31
 73
    27
 74
     0
 42
0.000000001
 43
0.00000001
 40
0.0
 40
0.0
 40
0.0
 40
0.0
 40
0.0546683147876807
 40
0.1074658837064297
 40
0.1584618490713353
 40
0.207803046677195
 40
0.2553039738213215
 40
0.3017631078009265
 40
0.3466007435542935
 40
0.3905334742654575
 40
0.4327555740468713
 40
0.4724110407211715
 40
0.509809170969839
 40
0.5453538193380417
 40
0.579319733061789
 40
0.6118110643201368
 40
0.643141767511765
 40
0.6739568490885361
 40
0.7058275520663295
 40
0.7397789238574117
 40
0.7765780537305704
 40
0.8155721542835677
 40
0.8576471496273079
 40
0.9022147506261844
 40
0.9496428492534988
 40
1.0
 40
1.0
 40
1.0
 40
1.0
 10
-151.011029411769
 20
-15.70588235294118
 30
0.0
 10
-151.3144674485268
 20
-15.70387741535018
 30
0.0
 10
-151.9109598938666
 20
-15.69993614899087
 30
0.0
 10
-152.7882981173662
 20
-15.63412843834865
 30
0.0
 10
-153.6334125780089
 20
-15.54371276558703
 30
0.0
 10
-154.4435879789923
 20
-15.41188064910791
 30
0.0
 10
-155.220538214354
 20
-15.24039544334525
 30
0.0
 10
-155.9619626448954
 20
-15.03077039082788
 30
0.0
 10
-156.6736058747742
 20
-14.79071304456424
 30
0.0
 10
-157.3413452002418
 20
-14.50210179673278
 30
0.0
 10
-157.9678493151109
 20
-14.19297756555588
 30
0.0
 10
-158.537009836049
 20
-13.85409869854491
 30
0.0
 10
-159.0540931640036
 20
-13.50233772313779
 30
0.0
 10
-159.513715577299
 20
-13.12610557937916
 30
0.0
 10
-159.9197104246322
 20
-12.73021996955739
 30
0.0
 10
-160.2621772154486
 20
-12.30796226972023
 30
0.0
 10
-160.5532698669216
 20
-11.86980840743783
 30
0.0
 10
-160.7894793573446
 20
-11.40304802575642
 30
0.0
 10
-160.9732393898846
 20
-10.89854315205997
 30
0.0
 10
-161.1403858007044
 20
-10.35403793358732
 30
0.0
 10
-161.2838871171881
 20
-9.761625534160382
 30
0.0
 10
-161.3910400536087
 20
-9.116023595527261
 30
0.0
 10
-161.478139503653
 20
-8.424215918675593
 30
0.0
 10
-161.5449375332883
 20
-7.683071882320797
 30
0.0
 10
-161.5834933603174
 20
-6.893801273248824
 30
0.0
 10
-161.5866233972226
 20
-6.351146093091754
 30
0.0
 10
-161.588235294122
 20
-6.07169117647059
 30
0.0
  0
SPLINE
  5
B6
330
1F
100
AcDbEntity
  8
0
  6
Continuous
 62
     7
370
    15
100
AcDbSpline
210
0.0
220
0.0
230
1.0
 70
     8
 71
     3
 72
    31
 73
    27
 74
     0
 42
0.000000001
 43
0.00000001
 40
0.0
 40
0.0
 40
0.0
 40
0.0
 40
0.0510902041704331
 40
0.0989978377566004
 40
0.143488587282832
 40
0.1845932156573427
 40
0.2225558201876112
 40
0.2578367425070103
 40
0.2901706412818711
 40
0.3204140949953773
 40
0.3497453442458972
 40
0.3801424273285998
 40
0.412446299260171
 40
0.4464365059491513
 40
0.482654845621405
 40
0.521027648705562
 40
0.5617273578322294
 40
0.605372488764331
 40
0.6506730920244843
 40
0.6966372056778106
 40
0.7438373955555111
 40
0.7922314135260535
 40
0.8420872579476616
 40
0.8930557521928549
 40
0.9456730859170499
 40
1.0
 40
1.0
 40
1.0
 40
1.0
 10
-140.7647058823572
 20
-7.3125
 30
0.0
 10
-140.7688450868187
 20
-7.573546573993798
 30
0.0
 10
-140.7768656515897
 20
-8.07937830433771
 30
0.0
 10
-140.8109476637664
 20
-8.812256346768534
 30
0.0
 10
-140.88615816284
 20
-9.490562526560637
 30
0.0
 10
-140.9743506516772
 20
-10.11612828535452
 30
0.0
 10
-141.1025282252888
 20
-10.68692393527627
 30
0.0
 10
-141.2562780110242
 20
-11.20438331263554
 30
0.0
 10
-141.4305447998016
 20
-11.67382665570724
 30
0.0
 10
-141.6423365715133
 20
-12.09433087238639
 30
0.0
 10
-141.8973365581579
 20
-12.47811222448458
 30
0.0
 10
-142.1991931765859
 20
-12.8399122436412
 30
0.0
 10
-142.5530110685134
 20
-13.18584059977229
 30
0.0
 10
-142.958284570389
 20
-13.51889298496215
 30
0.0
 10
-143.4176942256708
 20
-13.8311532315646
 30
0.0
 10
-143.9263790076692
 20
-14.12924512084113
 30
0.0
 10
-144.4876376624038
 20
-14.40975606352779
 30
0.0
 10
-145.0933639731654
 20
-14.67886363764193
 30
0.0
 10
-145.7401025345681
 20
-14.91915153398683
 30
0.0
 10
-146.4165000770312
 20
-15.12756108986807
 30
0.0
 10
-147.1161415729131
 20
-15.31330342107037
 30
0.0
 10
-147.8468206587056
 20
-15.45155168214177
 30
0.0
 10
-148.6001639340069
 20
-15.57165300431825
 30
0.0
 10
-149.3813121815839
 20
-15.64375825027726
 30
0.0
 10
-150.186755684246
 20
-15.69732677256587
 30
0.0
 10
-150.7333588880923
 20
-15.70300026122353
 30
0.0
 10
-151.011029411769
 20
-15.70588235294118
 30
0.0
  0
SPLINE
  5
B7
330
1F
100
AcDbEntity
  8
0
  6
Continuous
 62
     7
370
    15
100
AcDbSpline
210
0.0
220
0.0
230
1.0
 70
     8
 71
     3
 72
    15
 73
    11
 74
     0
 42
0.000000001
 43
0.00000001
 40
0.0
 40
0.0
 40
0.0
 40
0.0
 40
0.0973846725139847
 40
0.2010097400951717
 40
0.3103995331187619
 40
0.4291619638053257
 40
0.5561685346997839
 40
0.6940589364264174
 40
0.8415051615477384
 40
1.0
 40
1.0
 40
1.0
 40
1.0
 10
-142.3970588235337
 20
-0.8492647058823531
 30
0.0
 10
-142.2659890810013
 20
-1.026603754452586
 30
0.0
 10
-141.9954506666838
 20
-1.392645710970011
 30
0.0
 10
-141.6612015464015
 20
-2.013309555826429
 30
0.0
 10
-141.3877666785154
 20
-2.713380868025519
 30
0.0
 10
-141.1554690323119
 20
-3.483693867519991
 30
0.0
 10
-140.9843037418329
 20
-4.335457412416967
 30
0.0
 10
-140.8488529765909
 20
-5.259067112327939
 30
0.0
 10
-140.7828423189213
 20
-6.261916932705461
 30
0.0
 10
-140.7708951790304
 20
-6.953974759368919
 30
0.0
 10
-140.7647058823572
 20
-7.3125
 30
0.0
  0
SPLINE
  5
B8
330
1F
100
AcDbEntity
  8
0
  6
Continuous
 62
     7
370
    15
100
AcDbSpline
210
0.0
220
0.0
230
1.0
 70
     8
 71
     3
 72
    15
 73
    11
 74
     0
 42
0.000000001
 43
0.00000001
 40
0.0
 40
0.0
 40
0.0
 40
0.0
 40
0.1777985535850087
 40
0.3397926429948265
 40
0.4863587996776447
 40
0.6181470672028851
 40
0.7353466194961983
 40
0.8374128240628245
 40
0.9255540520625318
 40
1.0
 40
1.0
 40
1.0
 40
1.0
 10
-150.3327205882396
 20
4.257352941176469
 30
0.0
 10
-149.8298056641385
 20
4.005788836481099
 30
0.0
 10
-148.8686797842243
 20
3.525022090669541
 30
0.0
 10
-147.5098678327384
 20
2.803752695867394
 30
0.0
 10
-146.299399507629
 20
2.114596564330665
 30
0.0
 10
-145.2330341612005
 20
1.460127824847519
 30
0.0
 10
-144.3109161437801
 20
0.8406307758205136
 30
0.0
 10
-143.5348932799029
 20
0.2550801833209989
 30
0.0
 10
-142.8946984042103
 20
-0.2875336560329943
 30
0.0
 10
-142.5533544910298
 20
-0.6728395725155047
 30
0.0
 10
-142.3970588235337
 20
-0.8492647058823531
 30
0.0
  0
SPLINE
  5
B9
330
1F
100
AcDbEntity
  8
0
  6
Continuous
 62
     7
370
    15
100
AcDbSpline
210
0.0
220
0.0
230
1.0
 70
     8
 71
     3
 72
    15
 73
    11
 74
     0
 42
0.000000001
 43
0.00000001
 40
0.0
 40
0.0
 40
0.0
 40
0.0
 40
0.0748571538595346
 40
0.1618790340052835
 40
0.2633715131162239
 40
0.3803667493453063
 40
0.5117431167387158
 40
0.6583213472274879
 40
0.8205780204538621
 40
0.9999999999999999
 40
0.9999999999999999
 40
0.9999999999999999
 40
0.9999999999999999
 10
-152.9908088235337
 20
6.110294117647057
 30
0.0
 10
-152.9450937742683
 20
6.042397026682557
 30
0.0
 10
-152.8462347122677
 20
5.89556916948501
 30
0.0
 10
-152.6379393933046
 20
5.695958847341576
 30
0.0
 10
-152.3926153311282
 20
5.470453621692083
 30
0.0
 10
-152.0795513082126
 20
5.25106296926405
 30
0.0
 10
-151.7225031595537
 20
5.010197001734171
 30
0.0
 10
-151.3047561148109
 20
4.77312582415734
 30
0.0
 10
-150.8429485069092
 20
4.507939322551905
 30
0.0
 10
-150.5083989457577
 20
4.343633213748066
 30
0.0
 10
-150.3327205882396
 20
4.25735294117647
 30
0.0
  0
SPLINE
  5
BA
330
1F
100
AcDbEntity
  8
0
  6
Continuous
 62
     7
370
    15
100
AcDbSpline
210
0.0
220
0.0
230
1.0
 70
     8
 71
     3
 72
    11
 73
     7
 74
     0
 42
0.000000001
 43
0.00000001
 40
0.0
 40
0.0
 40
0.0
 40
0.0
 40
0.3019913432200356
 40
0.56724934105746
 40
0.7965057739572514
 40
1.0
 40
1.0
 40
1.0
 40
1.0
 10
-153.4705882352984
 20
8.409926470588234
 30
0.0
 10
-153.4673212080306
 20
8.170459225930818
 30
0.0
 10
-153.4611845451543
 20
7.720652833176741
 30
0.0
 10
-153.3645193794941
 20
7.096436728444802
 30
0.0
 10
-153.226406910003
 20
6.557410385086932
 30
0.0
 10
-153.0661616497719
 20
6.253298141633678
 30
0.0
 10
-152.9908088235337
 20
6.110294117647057
 30
0.0
  0
SPLINE
  5
BB
330
1F
100
AcDbEntity
  8
0
  6
Continuous
 62
     7
370
    15
100
AcDbSpline
210
0.0
220
0.0
230
1.0
 70
     8
 71
     3
 72
    15
 73
    11
 74
     0
 42
0.000000001
 43
0.00000001
 40
0.0
 40
0.0
 40
0.0
 40
0.0
 40
0.1279048582462994
 40
0.2434295991461937
 40
0.353269915543909
 40
0.4603147950232532
 40
0.5734319285396204
 40
0.6979602258979305
 40
0.8388511524953326
 40
1.0
 40
1.0
 40
1.0
 40
1.0
 10
-151.5569852941219
 20
10.76470588235294
 30
0.0
 10
-151.704559899609
 20
10.75693550410387
 30
0.0
 10
-151.9854251267038
 20
10.74214685503831
 30
0.0
 10
-152.3848885786512
 20
10.64030217134291
 30
0.0
 10
-152.7207696666467
 20
10.44713906342514
 30
0.0
 10
-153.0036702408144
 20
10.18601981149515
 30
0.0
 10
-153.2119366920062
 20
9.842563757610959
 30
0.0
 10
-153.3690207657798
 20
9.432555400446889
 30
0.0
 10
-153.4513721206246
 20
8.944331164756132
 30
0.0
 10
-153.4639027197466
 20
8.595852239376567
 30
0.0
 10
-153.4705882352984
 20
8.409926470588234
 30
0.0
  0
SPLINE
  5
BC
330
1F
100
AcDbEntity
  8
0
  6
Continuous
 62
     7
370
    15
100
AcDbSpline
210
0.0
220
0.0
230
1.0
 70
     8
 71
     3
 72
    15
 73
    11
 74
     0
 42
0.000000001
 43
0.00000001
 40
0.0
 40
0.0
 40
0.0
 40
0.0
 40
0.2136030936402356
 40
0.3846816048080034
 40
0.5166014205411352
 40
0.6142400712530495
 40
0.6969571830924546
 40
0.7861726513633778
 40
0.8859642240423744
 40
1.0
 40
1.0
 40
1.0
 40
1.0
 10
-149.9411764705926
 20
8.19485294117647
 30
0.0
 10
-149.9436160327493
 20
8.446963702612484
 30
0.0
 10
-149.9480094835626
 20
8.900994450228513
 30
0.0
 10
-150.0181108378622
 20
9.507166091945235
 30
0.0
 10
-150.1201818408751
 20
9.970449594508962
 30
0.0
 10
-150.2896197278209
 20
10.30513135523774
 30
0.0
 10
-150.530032727165
 20
10.52194133677239
 30
0.0
 10
-150.8202489600658
 20
10.6640078461007
 30
0.0
 10
-151.1694393242949
 20
10.75350049905147
 30
0.0
 10
-151.422190917831
 20
10.76080847979733
 30
0.0
 10
-151.5569852941219
 20
10.76470588235294
 30
0.0
  0
SPLINE
  5
C0
330
1F
100
AcDbEntity
  8
0
  6
Continuous
 62
     7
370
    15
100
AcDbSpline
210
0.0
220
0.0
230
1.0
 70
     8
 71
     3
 72
    31
 73
    27
 74
     0
 42
0.000000001
 43
0.00000001
 40
0.0
 40
0.0
 40
0.0
 40
0.0
 40
0.0560196509891571
 40
0.1100140269522174
 40
0.1621113069440033
 40
0.2122964516206824
 40
0.2608077740927424
 40
0.3076397199960165
 40
0.3526572555592871
 40
0.3966757116875071
 40
0.438610257881156
 40
0.4776636604324574
 40
0.514299395814011
 40
0.5486487974106571
 40
0.5807639437511742
 40
0.6110221798015104
 40
0.6401991587732554
 40
0.6677087004407186
 40
0.6965015352851003
 40
0.7286317520846081
 40
0.7638166041757901
 40
0.803183297029816
 40
0.8463340015362699
 40
0.8934840232926197
 40
0.9446814714705658
 40
1.0
 40
1.0
 40
1.0
 40
1.0
 10
-151.8492647058867
 20
15.70588235294117
 30
0.0
 10
-151.5532864993943
 20
15.70206917979872
 30
0.0
 10
-150.97203056846
 20
15.69458069092992
 30
0.0
 10
-150.1159007716113
 20
15.65453639237537
 30
0.0
 10
-149.2947674513167
 20
15.56561988234948
 30
0.0
 10
-148.5036149505233
 20
15.46827617108891
 30
0.0
 10
-147.7485873348442
 20
15.32029572547716
 30
0.0
 10
-147.0256837095651
 20
15.15340311500254
 30
0.0
 10
-146.3375469218898
 20
14.9471103050503
 30
0.0
 10
-145.6861366005056
 20
14.7122608470434
 30
0.0
 10
-145.0784585693815
 20
14.45306971076175
 30
0.0
 10
-144.5160064903306
 20
14.18707771337034
 30
0.0
 10
-144.0157393198714
 20
13.89009393144242
 30
0.0
 10
-143.557964423243
 20
13.59324940654482
 30
0.0
 10
-143.1672068916725
 20
13.26240256369324
 30
0.0
 10
-142.8189268511875
 20
12.92592482952358
 30
0.0
 10
-142.5269865212459
 20
12.56963249068126
 30
0.0
 10
-142.2856394370871
 20
12.18625128484552
 30
0.0
 10
-142.0920834548288
 20
11.75997251766131
 30
0.0
 10
-141.919805407047
 20
11.28141980436319
 30
0.0
 10
-141.7879972605097
 20
10.73274099525213
 30
0.0
 10
-141.6623619026059
 20
10.12332579536905
 30
0.0
 10
-141.5807868118592
 20
9.442474782194274
 30
0.0
 10
-141.5130022811385
 20
8.697864075286578
 30
0.0
 10
-141.4752777489757
 20
7.886414753557847
 30
0.0
 10
-141.4721912123383
 20
7.323563779115474
 30
0.0
 10
-141.4705882352984
 20
7.031249999999999
 30
0.0
  0
CIRCLE
  5
CD
330
1F
100
AcDbEntity
  8
0
  6
Continuous
 62
     7
370
    15
100
AcDbCircle
 10
37.5
 20
-35.0
 30
0.0
 40
2.550000000000004
  0
CIRCLE
  5
D2
330
1F
100
AcDbEntity
  8
0
  6
Continuous
 62
     7
370
    15
100
AcDbCircle
 10
-222.5
 20
35.0
 30
0.0
 40
2.550000000000011
  0
CIRCLE
  5
D3
330
1F
100
AcDbEntity
  8
0
  6
Continuous
 62
     7
370
    15
100
AcDbCircle
 10
0.0
 20
35.0
 30
0.0
 40
2.54999999999999
  0
CIRCLE
  5
D4
330
1F
100
AcDbEntity
  8
0
  6
Continuous
 62
     7
370
    15
100
AcDbCircle
 10
-222.5
 20
-35.0
 30
0.0
 40
2.550000000000011
  0
CIRCLE
  5
D5
330
1F
100
AcDbEntity
  8
0
  6
Continuous
 62
     7
370
    15
100
AcDbCircle
 10
-114.975
 20
35.0
 30
0.0
 40
2.549999999999997
  0
SPLINE
  5
D6
330
1F
100
AcDbEntity
  8
0
  6
Continuous
 62
     7
370
    15
100
AcDbSpline
210
0.0
220
0.0
230
1.0
 70
     8
 71
     3
 72
    19
 73
    15
 74
     0
 42
0.000000001
 43
0.00000001
 40
0.0
 40
0.0
 40
0.0
 40
0.0
 40
0.088892141895787
 40
0.1665786148106381
 40
0.2358526892084344
 40
0.3091806775584739
 40
0.3534205922343072
 40
0.4101005228996673
 40
0.4780293415805226
 40
0.5575981881086662
 40
0.6502031468298217
 40
0.7545240008496923
 40
0.8706757972820893
 40
1.0
 40
1.0
 40
1.0
 40
1.0
 10
-177.731985294122
 20
-10.76470588235294
 30
0.0
 10
-177.6078866679304
 20
-10.75837462802692
 30
0.0
 10
-177.3753331844613
 20
-10.74651023199428
 30
0.0
 10
-177.060043341046
 20
-10.63221452721661
 30
0.0
 10
-176.8213127372839
 20
-10.4297447772024
 30
0.0
 10
-176.6904339216901
 20
-10.19873806166791
 30
0.0
 10
-176.6222220781827
 20
-9.965448865647828
 30
0.0
 10
-176.5731208547266
 20
-9.73515380582
 30
0.0
 10
-176.5376607457682
 20
-9.452742497338242
 30
0.0
 10
-176.5046073919769
 20
-9.119930427913614
 30
0.0
 10
-176.4764589139244
 20
-8.73567855111345
 30
0.0
 10
-176.4625263552174
 20
-8.29970783897234
 30
0.0
 10
-176.4508578738989
 20
-7.812559469684304
 30
0.0
 10
-176.4483696797102
 20
-7.470597248046133
 30
0.0
 10
-176.4470588235337
 20
-7.290441176470588
 30
0.0
  0
SPLINE
  5
D7
330
1F
100
AcDbEntity
  8
0
  6
Continuous
 62
     7
370
    15
100
AcDbSpline
210
0.0
220
0.0
230
1.0
 70
     8
 71
     3
 72
    19
 73
    15
 74
     0
 42
0.000000001
 43
0.00000001
 40
0.0
 40
0.0
 40
0.0
 40
0.0
 40
0.1273490026528058
 40
0.2414015298526293
 40
0.3451458322639421
 40
0.4357715846705718
 40
0.516071530257755
 40
0.5837478850797632
 40
0.6397998490194199
 40
0.6852214617837856
 40
0.761660699144507
 40
0.8342755214751717
 40
0.9107147588358931
 40
1.0
 40
1.0
 40
1.0
 40
1.0
 10
-178.9176470588278
 20
-7.681985294117648
 30
0.0
 10
-178.9163900984881
 20
-7.840089316335912
 30
0.0
 10
-178.9140074167029
 20
-8.13978976191692
 30
0.0
 10
-178.9016418632612
 20
-8.56804563491753
 30
0.0
 10
-178.8897161314438
 20
-8.950974532533492
 30
0.0
 10
-178.8560296195
 20
-9.290259085133997
 30
0.0
 10
-178.8378006797667
 20
-9.586455012337886
 30
0.0
 10
-178.7874500472439
 20
-9.834942970812863
 30
0.0
 10
-178.7489637634498
 20
-10.0417029476063
 30
0.0
 10
-178.6776348225763
 20
-10.25119791649915
 30
0.0
 10
-178.5532465247476
 20
-10.46366721228999
 30
0.0
 10
-178.3303958198252
 20
-10.64120801259707
 30
0.0
 10
-178.0503704556258
 20
-10.75233589179496
 30
0.0
 10
-177.8434598526706
 20
-10.76037484120081
 30
0.0
 10
-177.731985294122
 20
-10.76470588235294
 30
0.0
  0
SPLINE
  5
DB
330
1F
100
AcDbEntity
  8
0
  6
Continuous
 62
     7
370
    15
100
AcDbSpline
210
0.0
220
0.0
230
1.0
 70
     8
 71
     3
 72
    31
 73
    27
 74
     0
 42
0.000000001
 43
0.00000001
 40
0.0
 40
0.0
 40
0.0
 40
0.0
 40
0.0760869724553896
 40
0.1479176764656384
 40
0.2163218955140829
 40
0.2815023341918367
 40
0.3126578282251149
 40
0.3426173782282817
 40
0.3709614200256823
 40
0.3982703528073331
 40
0.4244062614434909
 40
0.4496634616899275
 40
0.4740336296117922
 40
0.4974394995514153
 40
0.5425680063479157
 40
0.5851141831283225
 40
0.6260001532678235
 40
0.666042056097539
 40
0.6887684439080334
 40
0.7169554017263168
 40
0.7503462341845604
 40
0.7894910048100175
 40
0.8338673524856842
 40
0.8837390980516706
 40
0.9391146133680988
 40
1.0
 40
1.0
 40
1.0
 40
1.0
 10
-177.3459558823572
 20
-15.70588235294118
 30
0.0
 10
-177.8537454097103
 20
-15.69577676346705
 30
0.0
 10
-178.8409189638126
 20
-15.67613088630713
 30
0.0
 10
-180.2773696460877
 20
-15.51015948641202
 30
0.0
 10
-181.6201866023933
 20
-15.22840974461511
 30
0.0
 10
-182.6742318058397
 20
-14.90865125766135
 30
0.0
 10
-183.455921960582
 20
-14.59307960178481
 30
0.0
 10
-184.0008344562976
 20
-14.34874216776797
 30
0.0
 10
-184.5058879373731
 20
-14.08101866275159
 30
0.0
 10
-184.9745854940347
 20
-13.80115967331917
 30
0.0
 10
-185.4086804392462
 20
-13.50441575880587
 30
0.0
 10
-185.797659209977
 20
-13.18103248269406
 30
0.0
 10
-186.1600461944182
 20
-12.85445034387371
 30
0.0
 10
-186.573388511024
 20
-12.39126622119283
 30
0.0
 10
-187.0127349217856
 20
-11.79240001792729
 30
0.0
 10
-187.4369390883999
 20
-11.04341934989975
 30
0.0
 10
-187.7243154898274
 20
-10.26801582356569
 30
0.0
 10
-187.8742753506015
 20
-9.59017035117779
 30
0.0
 10
-187.9336440293453
 20
-8.985858833423551
 30
0.0
 10
-187.9770093534572
 20
-8.425069826786475
 30
0.0
 10
-188.0168106141649
 20
-7.754074546390514
 30
0.0
 10
-188.0391276126228
 20
-6.974263932236996
 30
0.0
 10
-188.070709823508
 20
-6.084759154159437
 30
0.0
 10
-188.0856215558316
 20
-5.086445350097093
 30
0.0
 10
-188.0882253779336
 20
-3.977940680107352
 30
0.0
 10
-188.0920924672698
 20
-3.202205440168053
 30
0.0
 10
-188.0941176470631
 20
-2.795955882352942
 30
0.0
  0
SPLINE
  5
DC
330
1F
100
AcDbEntity
  8
0
  6
Continuous
 62
     7
370
    15
100
AcDbSpline
210
0.0
220
0.0
230
1.0
 70
     8
 71
     3
 72
    27
 73
    23
 74
     0
 42
0.000000001
 43
0.00000001
 40
0.0
 40
0.0
 40
0.0
 40
0.0
 40
0.0479399138313817
 40
0.0920225989559751
 40
0.1325819014847617
 40
0.1696166277554191
 40
0.2028117316932651
 40
0.2322027322119972
 40
0.2581420098886575
 40
0.2806222055797744
 40
0.3226960264322901
 40
0.3679089675747562
 40
0.4173602907891654
 40
0.4714274493253735
 40
0.5280760323942442
 40
0.5857316514501291
 40
0.6458310817405533
 40
0.708694271068278
 40
0.7748580104809032
 40
0.8454014010342183
 40
0.9201566642696826
 40
1.0
 40
1.0
 40
1.0
 40
1.0
 10
-167.2705882352985
 20
-5.101102941176473
 30
0.0
 10
-167.2721342185815
 20
-5.374999902408687
 30
0.0
 10
-167.2751017958731
 20
-5.900756171128413
 30
0.0
 10
-167.2840317363742
 20
-6.658243023705559
 30
0.0
 10
-167.3074020179498
 20
-7.353082781305595
 30
0.0
 10
-167.3344931497871
 20
-7.985496425624005
 30
0.0
 10
-167.365651169827
 20
-8.553846968420324
 30
0.0
 10
-167.4084832119988
 20
-9.057980069315912
 30
0.0
 10
-167.4651561176509
 20
-9.498945938350039
 30
0.0
 10
-167.5404577377179
 20
-10.01070126035037
 30
0.0
 10
-167.7106823652865
 20
-10.61744722397082
 30
0.0
 10
-168.0372180885335
 20
-11.33049464713122
 30
0.0
 10
-168.4994980584402
 20
-12.04574601795935
 30
0.0
 10
-169.06309946768
 20
-12.76850186176326
 30
0.0
 10
-169.7471843039174
 20
-13.44941093605238
 30
0.0
 10
-170.5466477242366
 20
-14.04892540095678
 30
0.0
 10
-171.444199681974
 20
-14.56341519769598
 30
0.0
 10
-172.4435245395882
 20
-14.98123859468175
 30
0.0
 10
-173.5388779300235
 20
-15.30442568720395
 30
0.0
 10
-174.7253222233894
 20
-15.54066300472241
 30
0.0
 10
-176.006404591955
 20
-15.6766489464451
 30
0.0
 10
-176.8897480646466
 20
-15.69592640076721
 30
0.0
 10
-177.3459558823573
 20
-15.70588235294118
 30
0.0
  0
SPLINE
  5
F4
330
1F
100
AcDbEntity
  8
0
  6
Continuous
 62
     7
370
    15
100
AcDbSpline
210
0.0
220
0.0
230
1.0
 70
     8
 71
     3
 72
    31
 73
    27
 74
     0
 42
0.000000001
 43
0.00000001
 40
0.0
 40
0.0
 40
0.0
 40
0.0
 40
0.0550864805623539
 40
0.1063052353919065
 40
0.1537698504755454
 40
0.1979777208226841
 40
0.2386658364691829
 40
0.2765725660748254
 40
0.3114082239386413
 40
0.3438238023845814
 40
0.37529212850615
 40
0.4074286810842397
 40
0.440013709605013
 40
0.4740820841153146
 40
0.509029156947594
 40
0.5458239790582982
 40
0.583977738346864
 40
0.6238243449746252
 40
0.665497360943173
 40
0.7085649571050198
 40
0.7530052443294507
 40
0.7987572529029984
 40
0.84635681353394
 40
0.8958946667256258
 40
0.9470729264123513
 40
0.9999999999999999
 40
0.9999999999999999
 40
0.9999999999999999
 40
0.9999999999999999
 10
3.482352941172079
 20
7.180147058823528
 30
0.0
 10
3.48527738766255
 20
7.461478920975728
 30
0.0
 10
3.490920949737824
 20
8.004389804445232
 30
0.0
 10
3.540944430708071
 20
8.788384022590641
 30
0.0
 10
3.621634902472165
 20
9.514015581307415
 30
0.0
 10
3.738259550588971
 20
10.18001833642199
 30
0.0
 10
3.876858604520112
 20
10.79239321664223
 30
0.0
 10
4.061118046179243
 20
11.34212357603197
 30
0.0
 10
4.265582253786413
 20
11.83990202156939
 30
0.0
 10
4.521523578851133
 20
12.2756391599904
 30
0.0
 10
4.806472404745965
 20
12.67561581745573
 30
0.0
 10
5.134602121017295
 20
13.04199065052824
 30
0.0
 10
5.494461439726803
 20
13.39649016160636
 30
0.0
 10
5.903862680923813
 20
13.71658155706069
 30
0.0
 10
6.349020042823519
 20
14.0231682437943
 30
0.0
 10
6.83227439798495
 20
14.30965871148896
 30
0.0
 10
7.359194280150041
 20
14.56771817976569
 30
0.0
 10
7.922949434268453
 20
14.80411035848536
 30
0.0
 10
8.521563927716706
 20
15.02112490594325
 30
0.0
 10
9.157480126835566
 20
15.1978165910172
 30
0.0
 10
9.818177213302498
 20
15.36170206034532
 30
0.0
 10
10.51116995735207
 20
15.48618242788682
 30
0.0
 10
11.23423118803235
 20
15.58510141018539
 30
0.0
 10
11.98842055718676
 20
15.65779271812078
 30
0.0
 10
12.7724476613613
 20
15.6936623652876
 30
0.0
 10
13.30401584090163
 20
15.7017636605088
 30
0.0
 10
13.57426470587796
 20
15.70588235294117
 30
0.0
  0
SPLINE
  5
F5
330
1F
100
AcDbEntity
  8
0
  6
Continuous
 62
     7
370
    15
100
AcDbSpline
210
0.0
220
0.0
230
1.0
 70
     8
 71
     3
 72
    23
 73
    19
 74
     0
 42
0.000000001
 43
0.00000001
 40
0.0
 40
0.0
 40
0.0
 40
0.0
 40
0.076825354668677
 40
0.1468536777135637
 40
0.2105147843088526
 40
0.2677619952038289
 40
0.31866840218168
 40
0.3630327662898915
 40
0.4010015945028202
 40
0.4327296288898058
 40
0.4906198658749728
 40
0.5503502822247542
 40
0.6130473030795016
 40
0.6789819000535146
 40
0.7495957274364913
 40
0.825802761821282
 40
0.9090865489168888
 40
1.0
 40
1.0
 40
1.0
 40
1.0
 10
10.86654411764266
 20
-2.034926470588236
 30
0.0
 10
10.58166804764789
 20
-1.878594548689489
 30
0.0
 10
10.03711997817602
 20
-1.579761985223031
 30
0.0
 10
9.255718200480544
 20
-1.152672728914915
 30
0.0
 10
8.55795623749582
 20
-0.7459107425938425
 30
0.0
 10
7.926518082186237
 20
-0.3860822568050772
 30
0.0
 10
7.375722617220457
 20
-0.0499684382259017
 30
0.0
 10
6.902284738946205
 20
0.2557253158052769
 30
0.0
 10
6.49628766810291
 20
0.516567997797859
 30
0.0
 10
6.059197742430703
 20
0.8335500169078939
 30
0.0
 10
5.582736463688843
 20
1.251227135398457
 30
0.0
 10
5.079577639020005
 20
1.826851462091689
 30
0.0
 10
4.620587370813528
 20
2.479777398975149
 30
0.0
 10
4.213085625942248
 20
3.219641679135337
 30
0.0
 10
3.87960707532288
 20
4.058406608706903
 30
0.0
 10
3.645033423034266
 20
5.005702124845165
 30
0.0
 10
3.510834438711905
 20
6.058647846478127
 30
0.0
 10
3.492119998247639
 20
6.795555384812926
 30
0.0
 10
3.482352941172079
 20
7.180147058823527
 30
0.0
  0
SPLINE
  5
F6
330
1F
100
AcDbEntity
  8
0
  6
Continuous
 62
     7
370
    15
100
AcDbSpline
210
0.0
220
0.0
230
1.0
 70
     8
 71
     3
 72
    15
 73
    11
 74
     0
 42
0.000000001
 43
0.00000001
 40
0.0
 40
0.0
 40
0.0
 40
0.0
 40
0.0665320617077187
 40
0.1487463137477961
 40
0.2481359188248922
 40
0.3651045181892465
 40
0.4979556018568779
 40
0.6485513752529908
 40
0.8156203396134232
 40
1.0
 40
1.0
 40
1.0
 40
1.0
 10
15.31691176470149
 20
-4.770220588235294
 30
0.0
 10
15.22988937319822
 20
-4.693330680273489
 30
0.0
 10
15.03533264945663
 20
-4.521427238832424
 30
0.0
 10
14.68043624679523
 20
-4.272739902820167
 30
0.0
 10
14.25162303984392
 20
-3.97741668213045
 30
0.0
 10
13.73296846404333
 20
-3.657686764949723
 30
0.0
 10
13.13601266291169
 20
-3.295208891238528
 30
0.0
 10
12.45130264873795
 20
-2.909559776803567
 30
0.0
 10
11.69178699291265
 20
-2.473704584703833
 30
0.0
 10
11.15051195827427
 20
-2.185910959295335
 30
0.0
 10
10.86654411764266
 20
-2.034926470588236
 30
0.0
  0
SPLINE
  5
F7
330
1F
100
AcDbEntity
  8
0
  6
Continuous
 62
     7
370
    15
100
AcDbSpline
210
0.0
220
0.0
230
1.0
 70
     8
 71
     3
 72
    15
 73
    11
 74
     0
 42
0.000000001
 43
0.00000001
 40
0.0
 40
0.0
 40
0.0
 40
0.0
 40
0.1738221899464924
 40
0.3317269182988718
 40
0.4754391843857783
 40
0.6042023094717708
 40
0.7193121411841431
 40
0.8224942909377588
 40
0.915734668623463
 40
1.0
 40
1.0
 40
1.0
 40
1.0
 10
16.18823529411326
 20
-8.294117647058824
 30
0.0
 10
16.18747981442834
 20
-8.078934031063467
 30
0.0
 10
16.1860380367831
 20
-7.66827186057464
 30
0.0
 10
16.1382294810932
 20
-7.081424664904088
 30
0.0
 10
16.07561570439199
 20
-6.552442584198499
 30
0.0
 10
15.98584243356099
 20
-6.080446861935748
 30
0.0
 10
15.85686795078561
 20
-5.669837059921809
 30
0.0
 10
15.70972677708593
 20
-5.313383496509555
 30
0.0
 10
15.5377729754054
 20
-5.008476802045584
 30
0.0
 10
15.38800802912016
 20
-4.846916386118783
 30
0.0
 10
15.31691176470149
 20
-4.770220588235294
 30
0.0
  0
SPLINE
  5
F8
330
1F
100
AcDbEntity
  8
0
  6
Continuous
 62
     7
370
    15
100
AcDbSpline
210
0.0
220
0.0
230
1.0
 70
     8
 71
     3
 72
    15
 73
    11
 74
     0
 42
0.000000001
 43
0.00000001
 40
0.0
 40
0.0
 40
0.0
 40
0.0
 40
0.1329546513699115
 40
0.2502558366312599
 40
0.3608484546839518
 40
0.4673664639275852
 40
0.5797596044041522
 40
0.7036807820039712
 40
0.8431060886743695
 40
1.0
 40
1.0
 40
1.0
 40
1.0
 10
14.14779411764266
 20
-10.76470588235294
 30
0.0
 10
14.31034737916623
 20
-10.75838988854907
 30
0.0
 10
14.61631563255617
 20
-10.74650151685798
 30
0.0
 10
15.04541158829237
 20
-10.62895010754218
 30
0.0
 10
15.40597383144437
 20
-10.42878488574914
 30
0.0
 10
15.69845578854992
 20
-10.14626999176749
 30
0.0
 10
15.92102280889858
 20
-9.787747713303524
 30
0.0
 10
16.08012506919783
 20
-9.354847029082752
 30
0.0
 10
16.17041611800884
 20
-8.847437819894205
 30
0.0
 10
16.1820666285236
 20
-8.485666745076907
 30
0.0
 10
16.18823529411324
 20
-8.294117647058822
 30
0.0
  0
SPLINE
  5
F9
330
1F
100
AcDbEntity
  8
0
  6
Continuous
 62
     7
370
    15
100
AcDbSpline
210
0.0
220
0.0
230
1.0
 70
     8
 71
     3
 72
    19
 73
    15
 74
     0
 42
0.000000001
 43
0.00000001
 40
0.0
 40
0.0
 40
0.0
 40
0.0
 40
0.1089407228459923
 40
0.2068594813329093
 40
0.2951194952458837
 40
0.3741209248757338
 40
0.4442555536227429
 40
0.5039166727600661
 40
0.5558154111394712
 40
0.60037424846954
 40
0.6843655315381514
 40
0.7749268968525923
 40
0.8796037911121436
 40
1.0
 40
1.0
 40
1.0
 40
1.0
 10
12.30588235293678
 20
-7.946691176470589
 30
0.0
 10
12.30604377629096
 20
-8.090130016857977
 30
0.0
 10
12.3063502911593
 20
-8.362495422102029
 30
0.0
 10
12.33266366285776
 20
-8.750198327557035
 30
0.0
 10
12.3559524488652
 20
-9.098469032363528
 30
0.0
 10
12.39853535052114
 20
-9.408544549734525
 30
0.0
 10
12.46104060460729
 20
-9.67623486626401
 30
0.0
 10
12.52326117723182
 20
-9.907623149642523
 30
0.0
 10
12.6064042960316
 20
-10.09632480805552
 30
0.0
 10
12.73089055024434
 20
-10.29985965484732
 30
0.0
 10
12.94969781134964
 20
-10.49672535709118
 30
0.0
 10
13.2835779036729
 20
-10.65860883800556
 30
0.0
 10
13.69296847035571
 20
-10.74724118370178
 30
0.0
 10
13.98928717728459
 20
-10.75861942710578
 30
0.0
 10
14.14779411764266
 20
-10.76470588235294
 30
0.0
  0
SPLINE
  5
FD
330
1F
100
AcDbEntity
  8
0
  6
Continuous
 62
     7
370
    15
100
AcDbSpline
210
0.0
220
0.0
230
1.0
 70
     8
 71
     3
 72
    31
 73
    27
 74
     0
 42
0.000000001
 43
0.00000001
 40
0.0
 40
0.0
 40
0.0
 40
0.0
 40
0.054668314787682
 40
0.10746588370643
 40
0.1584618490713352
 40
0.2078030466771955
 40
0.2553039738213225
 40
0.3017631078009264
 40
0.346600743554294
 40
0.3905334742654576
 40
0.4327555740468717
 40
0.4724110407211717
 40
0.5098091709698391
 40
0.5453538193380421
 40
0.5793197330617897
 40
0.6118110643201375
 40
0.6431417675117651
 40
0.6739568490885364
 40
0.7058275520663297
 40
0.7397789238574122
 40
0.7765780537305708
 40
0.8155721542835679
 40
0.8576471496273083
 40
0.9022147506261846
 40
0.949642849253499
 40
1.0
 40
1.0
 40
1.0
 40
1.0
 10
14.4124999999956
 20
-15.70588235294118
 30
0.0
 10
14.10906196323786
 20
-15.70387741535018
 30
0.0
 10
13.51256951789799
 20
-15.69993614899087
 30
0.0
 10
12.63523129439839
 20
-15.63412843834866
 30
0.0
 10
11.79011683375566
 20
-15.54371276558703
 30
0.0
 10
10.97994143277235
 20
-15.41188064910791
 30
0.0
 10
10.20299119741068
 20
-15.24039544334525
 30
0.0
 10
9.461566766869142
 20
-15.03077039082788
 30
0.0
 10
8.7499235369905
 20
-14.79071304456424
 30
0.0
 10
8.082184211522764
 20
-14.50210179673278
 30
0.0
 10
7.455680096653691
 20
-14.19297756555588
 30
0.0
 10
6.886519575715663
 20
-13.8540986985449
 30
0.0
 10
6.36943624776104
 20
-13.50233772313779
 30
0.0
 10
5.909813834465705
 20
-13.12610557937916
 30
0.0
 10
5.503818987132328
 20
-12.7302199695574
 30
0.0
 10
5.161352196315957
 20
-12.30796226972023
 30
0.0
 10
4.870259544843019
 20
-11.86980840743783
 30
0.0
 10
4.634050054419997
 20
-11.40304802575642
 30
0.0
 10
4.450290021880007
 20
-10.89854315205996
 30
0.0
 10
4.28314361106015
 20
-10.35403793358733
 30
0.0
 10
4.139642294576543
 20
-9.76162553416038
 30
0.0
 10
4.032489358155949
 20
-9.116023595527258
 30
0.0
 10
3.945389908111677
 20
-8.424215918675598
 30
0.0
 10
3.878591878476362
 20
-7.683071882320792
 30
0.0
 10
3.840036051447143
 20
-6.893801273248827
 30
0.0
 10
3.836906014542049
 20
-6.351146093091754
 30
0.0
 10
3.835294117642662
 20
-6.071691176470589
 30
0.0
  0
SPLINE
  5
FE
330
1F
100
AcDbEntity
  8
0
  6
Continuous
 62
     7
370
    15
100
AcDbSpline
210
0.0
220
0.0
230
1.0
 70
     8
 71
     3
 72
    31
 73
    27
 74
     0
 42
0.000000001
 43
0.00000001
 40
0.0
 40
0.0
 40
0.0
 40
0.0
 40
0.0510902041704331
 40
0.0989978377566006
 40
0.143488587282832
 40
0.1845932156573428
 40
0.2225558201876115
 40
0.2578367425070102
 40
0.2901706412818714
 40
0.3204140949953776
 40
0.3497453442458976
 40
0.3801424273285995
 40
0.4124462992601709
 40
0.446436505949152
 40
0.4826548456214059
 40
0.5210276487055622
 40
0.561727357832229
 40
0.6053724887643313
 40
0.6506730920244856
 40
0.6966372056778115
 40
0.7438373955555116
 40
0.7922314135260539
 40
0.8420872579476628
 40
0.8930557521928559
 40
0.9456730859170506
 40
1.0
 40
1.0
 40
1.0
 40
1.0
 10
24.65882352940736
 20
-7.3125
 30
0.0
 10
24.65468432494593
 20
-7.573546573993796
 30
0.0
 10
24.64666376017488
 20
-8.07937830433771
 30
0.0
 10
24.61258174799818
 20
-8.812256346768535
 30
0.0
 10
24.5373712489246
 20
-9.490562526560634
 30
0.0
 10
24.44917876008734
 20
-10.11612828535453
 30
0.0
 10
24.32100118647582
 20
-10.68692393527627
 30
0.0
 10
24.16725140074042
 20
-11.20438331263555
 30
0.0
 10
23.99298461196297
 20
-11.67382665570724
 30
0.0
 10
23.7811928402513
 20
-12.09433087238639
 30
0.0
 10
23.52619285360659
 20
-12.47811222448457
 30
0.0
 10
23.22433623517879
 20
-12.83991224364121
 30
0.0
 10
22.87051834325123
 20
-13.18584059977229
 30
0.0
 10
22.46524484137565
 20
-13.51889298496216
 30
0.0
 10
22.00583518609375
 20
-13.8311532315646
 30
0.0
 10
21.49715040409551
 20
-14.12924512084113
 30
0.0
 10
20.93589174936088
 20
-14.4097560635278
 30
0.0
 10
20.3301654385992
 20
-14.67886363764193
 30
0.0
 10
19.68342687719656
 20
-14.91915153398682
 30
0.0
 10
19.00702933473343
 20
-15.12756108986807
 30
0.0
 10
18.30738783885147
 20
-15.31330342107038
 30
0.0
 10
17.576708753059
 20
-15.45155168214178
 30
0.0
 10
16.8233654777577
 20
-15.57165300431824
 30
0.0
 10
16.04221723018069
 20
-15.64375825027727
 30
0.0
 10
15.23677372751865
 20
-15.69732677256587
 30
0.0
 10
14.69017052367233
 20
-15.70300026122353
 30
0.0
 10
14.4124999999956
 20
-15.70588235294118
 30
0.0
  0
SPLINE
  5
FF
330
1F
100
AcDbEntity
  8
0
  6
Continuous
 62
     7
370
    15
100
AcDbSpline
210
0.0
220
0.0
230
1.0
 70
     8
 71
     3
 72
    15
 73
    11
 74
     0
 42
0.000000001
 43
0.00000001
 40
0.0
 40
0.0
 40
0.0
 40
0.0
 40
0.0973846725139846
 40
0.2010097400951724
 40
0.3103995331187626
 40
0.4291619638053266
 40
0.5561685346997843
 40
0.6940589364264176
 40
0.8415051615477385
 40
1.0
 40
1.0
 40
1.0
 40
1.0
 10
23.0264705882309
 20
-0.8492647058823531
 30
0.0
 10
23.15754033076324
 20
-1.026603754452587
 30
0.0
 10
23.42807874508081
 20
-1.392645710970015
 30
0.0
 10
23.76232786536317
 20
-2.013309555826424
 30
0.0
 10
24.03576273324919
 20
-2.713380868025522
 30
0.0
 10
24.26806037945284
 20
-3.483693867519987
 30
0.0
 10
24.4392256699317
 20
-4.335457412416966
 30
0.0
 10
24.57467643517369
 20
-5.259067112327942
 30
0.0
 10
24.64068709284335
 20
-6.261916932705462
 30
0.0
 10
24.65263423273419
 20
-6.953974759368919
 30
0.0
 10
24.65882352940736
 20
-7.3125
 30
0.0
  0
SPLINE
  5
100
330
1F
100
AcDbEntity
  8
0
  6
Continuous
 62
     7
370
    15
100
AcDbSpline
210
0.0
220
0.0
230
1.0
 70
     8
 71
     3
 72
    15
 73
    11
 74
     0
 42
0.000000001
 43
0.00000001
 40
0.0
 40
0.0
 40
0.0
 40
0.0
 40
0.1777985535850103
 40
0.3397926429948278
 40
0.4863587996776463
 40
0.6181470672028873
 40
0.7353466194962001
 40
0.8374128240628248
 40
0.9255540520625325
 40
1.0
 40
1.0
 40
1.0
 40
1.0
 10
15.09080882352501
 20
4.257352941176469
 30
0.0
 10
15.59372374762613
 20
4.005788836481101
 30
0.0
 10
16.55484962754031
 20
3.525022090669545
 30
0.0
 10
17.91366157902627
 20
2.803752695867391
 30
0.0
 10
19.12412990413562
 20
2.114596564330665
 30
0.0
 10
20.19049525056404
 20
1.46012782484752
 30
0.0
 10
21.11261326798454
 20
0.8406307758205194
 30
0.0
 10
21.88863613186162
 20
0.2550801833209915
 30
0.0
 10
22.52883100755429
 20
-0.2875336560329895
 30
0.0
 10
22.8701749207348
 20
-0.6728395725155042
 30
0.0
 10
23.0264705882309
 20
-0.8492647058823531
 30
0.0
  0
SPLINE
  5
101
330
1F
100
AcDbEntity
  8
0
  6
Continuous
 62
     7
370
    15
100
AcDbSpline
210
0.0
220
0.0
230
1.0
 70
     8
 71
     3
 72
    15
 73
    11
 74
     0
 42
0.000000001
 43
0.00000001
 40
0.0
 40
0.0
 40
0.0
 40
0.0
 40
0.0748571538595353
 40
0.1618790340052836
 40
0.2633715131162249
 40
0.3803667493453045
 40
0.5117431167387194
 40
0.658321347227488
 40
0.8205780204538611
 40
1.0
 40
1.0
 40
1.0
 40
1.0
 10
12.43272058823089
 20
6.110294117647057
 30
0.0
 10
12.47843563749632
 20
6.042397026682556
 30
0.0
 10
12.57729469949692
 20
5.895569169485014
 30
0.0
 10
12.78559001845995
 20
5.69595884734157
 30
0.0
 10
13.03091408063647
 20
5.470453621692089
 30
0.0
 10
13.34397810355202
 20
5.251062969264042
 30
0.0
 10
13.70102625221094
 20
5.010197001734183
 30
0.0
 10
14.11877329695373
 20
4.773125824157334
 30
0.0
 10
14.58058090485537
 20
4.507939322551905
 30
0.0
 10
14.91513046600686
 20
4.343633213748067
 30
0.0
 10
15.09080882352501
 20
4.257352941176469
 30
0.0
  0
SPLINE
  5
102
330
1F
100
AcDbEntity
  8
0
  6
Continuous
 62
     7
370
    15
100
AcDbSpline
210
0.0
220
0.0
230
1.0
 70
     8
 71
     3
 72
    11
 73
     7
 74
     0
 42
0.000000001
 43
0.00000001
 40
0.0
 40
0.0
 40
0.0
 40
0.0
 40
0.3019913432200358
 40
0.5672493410574604
 40
0.796505773957251
 40
1.0
 40
1.0
 40
1.0
 40
1.0
 10
11.95294117646618
 20
8.409926470588234
 30
0.0
 10
11.95620820373404
 20
8.17045922593082
 30
0.0
 10
11.96234486661034
 20
7.720652833176742
 30
0.0
 10
12.05901003227047
 20
7.096436728444805
 30
0.0
 10
12.19712250176167
 20
6.557410385086932
 30
0.0
 10
12.35736776199274
 20
6.253298141633677
 30
0.0
 10
12.43272058823089
 20
6.110294117647057
 30
0.0
  0
SPLINE
  5
103
330
1F
100
AcDbEntity
  8
0
  6
Continuous
 62
     7
370
    15
100
AcDbSpline
210
0.0
220
0.0
230
1.0
 70
     8
 71
     3
 72
    15
 73
    11
 74
     0
 42
0.000000001
 43
0.00000001
 40
0.0
 40
0.0
 40
0.0
 40
0.0
 40
0.1279048582462952
 40
0.2434295991461951
 40
0.3532699155439093
 40
0.4603147950232508
 40
0.5734319285396187
 40
0.6979602258979297
 40
0.8388511524953326
 40
1.0
 40
1.0
 40
1.0
 40
1.0
 10
13.86654411764265
 20
10.76470588235294
 30
0.0
 10
13.71896951215559
 20
10.75693550410387
 30
0.0
 10
13.43810428506079
 20
10.7421468550383
 30
0.0
 10
13.03864083311342
 20
10.64030217134292
 30
0.0
 10
12.70275974511792
 20
10.44713906342514
 30
0.0
 10
12.41985917095027
 20
10.18601981149515
 30
0.0
 10
12.21159271975839
 20
9.842563757610957
 30
0.0
 10
12.05450864598481
 20
9.432555400446889
 30
0.0
 10
11.97215729113997
 20
8.944331164756138
 30
0.0
 10
11.95962669201806
 20
8.595852239376567
 30
0.0
 10
11.95294117646618
 20
8.409926470588234
 30
0.0
  0
SPLINE
  5
104
330
1F
100
AcDbEntity
  8
0
  6
Continuous
 62
     7
370
    15
100
AcDbSpline
210
0.0
220
0.0
230
1.0
 70
     8
 71
     3
 72
    15
 73
    11
 74
     0
 42
0.000000001
 43
0.00000001
 40
0.0
 40
0.0
 40
0.0
 40
0.0
 40
0.2136030936402357
 40
0.3846816048080031
 40
0.5166014205411352
 40
0.6142400712530512
 40
0.696957183092454
 40
0.7861726513633747
 40
0.8859642240423713
 40
1.0
 40
1.0
 40
1.0
 40
1.0
 10
15.48235294117208
 20
8.19485294117647
 30
0.0
 10
15.47991337901535
 20
8.446963702612482
 30
0.0
 10
15.47551992820205
 20
8.90099445022851
 30
0.0
 10
15.40541857390236
 20
9.507166091945237
 30
0.0
 10
15.30334757088957
 20
9.970449594508965
 30
0.0
 10
15.13390968394368
 20
10.30513135523773
 30
0.0
 10
14.89349668459956
 20
10.52194133677239
 30
0.0
 10
14.60328045169883
 20
10.6640078461007
 30
0.0
 10
14.2540900874697
 20
10.75350049905147
 30
0.0
 10
14.00133849393359
 20
10.76080847979733
 30
0.0
 10
13.86654411764265
 20
10.76470588235294
 30
0.0
  0
SPLINE
  5
108
330
1F
100
AcDbEntity
  8
0
  6
Continuous
 62
     7
370
    15
100
AcDbSpline
210
0.0
220
0.0
230
1.0
 70
     8
 71
     3
 72
    31
 73
    27
 74
     0
 42
0.000000001
 43
0.00000001
 40
0.0
 40
0.0
 40
0.0
 40
0.0
 40
0.0560196509891562
 40
0.1100140269522166
 40
0.1621113069440036
 40
0.2122964516206828
 40
0.2608077740927419
 40
0.3076397199960162
 40
0.3526572555592868
 40
0.396675711687507
 40
0.4386102578811567
 40
0.4776636604324574
 40
0.5142993958140109
 40
0.5486487974106564
 40
0.580763943751174
 40
0.6110221798015102
 40
0.6401991587732548
 40
0.6677087004407184
 40
0.6965015352851005
 40
0.7286317520846082
 40
0.7638166041757901
 40
0.8031832970298158
 40
0.8463340015362698
 40
0.8934840232926196
 40
0.9446814714705658
 40
1.0
 40
1.0
 40
1.0
 40
1.0
 10
13.57426470587796
 20
15.70588235294117
 30
0.0
 10
13.8702429123703
 20
15.70206917979872
 30
0.0
 10
14.45149884330463
 20
15.69458069092992
 30
0.0
 10
15.30762864015335
 20
15.65453639237536
 30
0.0
 10
16.12876196044791
 20
15.56561988234948
 30
0.0
 10
16.91991446124133
 20
15.46827617108892
 30
0.0
 10
17.67494207692038
 20
15.32029572547716
 30
0.0
 10
18.39784570219952
 20
15.15340311500254
 30
0.0
 10
19.08598248987479
 20
14.9471103050503
 30
0.0
 10
19.73739281125898
 20
14.7122608470434
 30
0.0
 10
20.3450708423831
 20
14.45306971076175
 30
0.0
 10
20.90752292143402
 20
14.18707771337034
 30
0.0
 10
21.40779009189323
 20
13.89009393144241
 30
0.0
 10
21.86556498852159
 20
13.59324940654482
 30
0.0
 10
22.25632252009203
 20
13.26240256369324
 30
0.0
 10
22.60460256057714
 20
12.92592482952359
 30
0.0
 10
22.89654289051862
 20
12.56963249068126
 30
0.0
 10
23.13788997467747
 20
12.18625128484552
 30
0.0
 10
23.33144595693577
 20
11.75997251766133
 30
0.0
 10
23.50372400471759
 20
11.28141980436318
 30
0.0
 10
23.63553215125491
 20
10.73274099525213
 30
0.0
 10
23.76116750915871
 20
10.12332579536905
 30
0.0
 10
23.84274259990543
 20
9.442474782194274
 30
0.0
 10
23.91052713062615
 20
8.697864075286576
 30
0.0
 10
23.94825166278887
 20
7.886414753557853
 30
0.0
 10
23.95133819942635
 20
7.323563779115476
 30
0.0
 10
23.95294117646618
 20
7.031249999999999
 30
0.0
  0
SPLINE
  5
10C
330
1F
100
AcDbEntity
  8
0
  6
Continuous
 62
     7
370
    15
100
AcDbSpline
210
0.0
220
0.0
230
1.0
 70
     8
 71
     3
 72
    23
 73
    19
 74
     0
 42
0.000000001
 43
0.00000001
 40
0.0
 40
0.0
 40
0.0
 40
0.0
 40
0.0687223241814151
 40
0.133113493346389
 40
0.1946557495955728
 40
0.2525314257760307
 40
0.3079260302619237
 40
0.3611487362599089
 40
0.4130840680616704
 40
0.4640292374856771
 40
0.5160204576619913
 40
0.5716605194117821
 40
0.6311803287791464
 40
0.6945644497447145
 40
0.7631129976861418
 40
0.8364967476773391
 40
0.915373664172766
 40
1.0
 40
1.0
 40
1.0
 40
1.0
 10
-17.48377256552523
 20
-25.88989626048736
 30
0.0
 10
-17.41913686216828
 20
-25.89026059888146
 30
0.0
 10
-17.29393905532417
 20
-25.89096631361067
 30
0.0
 10
-17.11143131643771
 20
-25.90667947235145
 30
0.0
 10
-16.94028894136848
 20
-25.93178206512275
 30
0.0
 10
-16.78044826643402
 20
-25.97142248167543
 30
0.0
 10
-16.63302841087107
 20
-26.02466466985204
 30
0.0
 10
-16.4958157433181
 20
-26.08832342193461
 30
0.0
 10
-16.37117796396652
 20
-26.16641582662461
 30
0.0
 10
-16.25583769389853
 20
-26.25581249921098
 30
0.0
 10
-16.1506688817853
 20
-26.3620192549216
 30
0.0
 10
-16.05238284108522
 20
-26.48502626699595
 30
0.0
 10
-15.96250063466964
 20
-26.62714132839992
 30
0.0
 10
-15.87936718456619
 20
-26.78699063916813
 30
0.0
 10
-15.80285200767655
 20
-26.96435455215493
 30
0.0
 10
-15.73076815462582
 20
-27.15914836287621
 30
0.0
 10
-15.666687524528
 20
-27.37264656898421
 30
0.0
 10
-15.63188795144269
 20
-27.52240982419637
 30
0.0
 10
-15.61387631976731
 20
-27.59992458521869
 30
0.0
  0
SPLINE
  5
10D
330
1F
100
AcDbEntity
  8
0
  6
Continuous
 62
     7
370
    15
100
AcDbSpline
210
0.0
220
0.0
230
1.0
 70
     8
 71
     3
 72
    15
 73
    11
 74
     0
 42
0.000000001
 43
0.00000001
 40
0.0
 40
0.0
 40
0.0
 40
0.0
 40
0.1813498120787601
 40
0.3486709894764167
 40
0.5007650757777962
 40
0.6380269474524198
 40
0.7574325187375474
 40
0.8581246350247849
 40
0.9385632378902944
 40
1.0
 40
1.0
 40
1.0
 40
1.0
 10
-15.61387631976731
 20
-27.59992458521869
 30
0.0
 10
-15.57906643120049
 20
-27.74770187289082
 30
0.0
 10
-15.5121394344144
 20
-28.03182487541371
 30
0.0
 10
-15.40990730299441
 20
-28.43845186759072
 30
0.0
 10
-15.30522167161062
 20
-28.80620384453638
 30
0.0
 10
-15.20683301205772
 20
-29.13396643441549
 30
0.0
 10
-15.11324844231475
 20
-29.41821773550238
 30
0.0
 10
-15.02695507420516
 20
-29.65449141958492
 30
0.0
 10
-14.95230235639927
 20
-29.84365810518427
 30
0.0
 10
-14.89691197498223
 20
-29.9488097320097
 30
0.0
 10
-14.87292609352298
 20
-29.99434389140271
 30
0.0
  0
SPLINE
  5
10F
330
1F
100
AcDbEntity
  8
0
  6
Continuous
 62
     7
370
    15
100
AcDbSpline
210
0.0
220
0.0
230
1.0
 70
     8
 71
     3
 72
    19
 73
    15
 74
     0
 42
0.000000001
 43
0.00000001
 40
0.0
 40
0.0
 40
0.0
 40
0.0
 40
0.0324425429394534
 40
0.0699161309046148
 40
0.1126256000636435
 40
0.1601181630368172
 40
0.2120662538653298
 40
0.2684856638133081
 40
0.3304254713124276
 40
0.3970536777677513
 40
0.5377248576975004
 40
0.6857392766057171
 40
0.8395080427838464
 40
1.0
 40
1.0
 40
1.0
 40
1.0
 10
-12.52843962104937
 20
-29.99246036305146
 30
0.0
 10
-12.54440833819899
 20
-29.9650915587442
 30
0.0
 10
-12.57882213001228
 20
-29.90610971788725
 30
0.0
 10
-12.62165092475537
 20
-29.80472596326513
 30
0.0
 10
-12.67202292781058
 20
-29.69080380955813
 30
0.0
 10
-12.71962298477722
 20
-29.56044099040044
 30
0.0
 10
-12.7705612627621
 20
-29.41717922827909
 30
0.0
 10
-12.82453710360448
 20
-29.25997069989115
 30
0.0
 10
-12.87530029930117
 20
-29.08673060711683
 30
0.0
 10
-12.95297877354111
 20
-28.83576744710096
 30
0.0
 10
-13.04518580063421
 20
-28.50151854601204
 30
0.0
 10
-13.1654123405497
 20
-28.08688481391768
 30
0.0
 10
-13.28495746543389
 20
-27.65194897790602
 30
0.0
 10
-13.36764902069605
 20
-27.35667687946678
 30
0.0
 10
-13.40987933635857
 20
-27.20588235294117
 30
0.0
  0
SPLINE
  5
110
330
1F
100
AcDbEntity
  8
0
  6
Continuous
 62
     7
370
    15
100
AcDbSpline
210
0.0
220
0.0
230
1.0
 70
     8
 71
     3
 72
    15
 73
    11
 74
     0
 42
0.000000001
 43
0.00000001
 40
0.0
 40
0.0
 40
0.0
 40
0.0
 40
0.1460111687043582
 40
0.2820510562616736
 40
0.4103009939620167
 40
0.5317778694046184
 40
0.6485408804266043
 40
0.7629819773909533
 40
0.8794460850869139
 40
1.0
 40
1.0
 40
1.0
 40
1.0
 10
-13.40987933635857
 20
-27.20588235294117
 30
0.0
 10
-13.44458738120698
 20
-27.08192263878511
 30
0.0
 10
-13.51163321610536
 20
-26.84246857084044
 30
0.0
 10
-13.64777429507429
 20
-26.50687211664062
 30
0.0
 10
-13.80121698956069
 20
-26.20312676351979
 30
0.0
 10
-13.97852311027979
 20
-25.93229099472491
 30
0.0
 10
-14.18330485420065
 20
-25.69700043308621
 30
0.0
 10
-14.41919097033985
 20
-25.49987586111991
 30
0.0
 10
-14.68556039667011
 20
-25.3386576120633
 30
0.0
 10
-14.88099083589725
 20
-25.26414401705985
 30
0.0
 10
-14.98039215687139
 20
-25.22624434389139
 30
0.0
  0
SPLINE
  5
112
330
1F
100
AcDbEntity
  8
0
  6
Continuous
 62
     7
370
    15
100
AcDbSpline
210
0.0
220
0.0
230
1.0
 70
     8
 71
     3
 72
    23
 73
    19
 74
     0
 42
0.000000001
 43
0.00000001
 40
0.0
 40
0.0
 40
0.0
 40
0.0
 40
0.064203091230703
 40
0.1273977294267147
 40
0.1900122826768979
 40
0.2521039795454059
 40
0.3138454530216365
 40
0.3753417992963297
 40
0.4372598397427988
 40
0.4995319137615289
 40
0.5617150671112887
 40
0.6231481530328135
 40
0.6835996598135616
 40
0.7445709189585973
 40
0.8061401771819215
 40
0.8690216633553414
 40
0.9336807533326063
 40
0.9999999999999999
 40
0.9999999999999999
 40
0.9999999999999999
 40
0.9999999999999999
 10
-14.97926903634914
 20
-25.18647298913555
 30
0.0
 10
-14.90952222065056
 20
-25.16233278495351
 30
0.0
 10
-14.77112411887048
 20
-25.11443155244682
 30
0.0
 10
-14.57109166332798
 20
-25.02645262068796
 30
0.0
 10
-14.37793450993444
 20
-24.92954080846854
 30
0.0
 10
-14.19553616016259
 20
-24.81676967819684
 30
0.0
 10
-14.01949921237283
 20
-24.69679312475574
 30
0.0
 10
-13.85244254179847
 20
-24.56457234593664
 30
0.0
 10
-13.69704783087232
 20
-24.41816144294836
 30
0.0
 10
-13.54709603485107
 20
-24.26505238704982
 30
0.0
 10
-13.4116867585008
 20
-24.09946232339983
 30
0.0
 10
-13.29237192690964
 20
-23.92439492943746
 30
0.0
 10
-13.19236297096885
 20
-23.73930281351606
 30
0.0
 10
-13.10626383131892
 20
-23.54713450125559
 30
0.0
 10
-13.04078281480676
 20
-23.34396500365616
 30
0.0
 10
-12.99182657455318
 20
-23.13205315815443
 30
0.0
 10
-12.9592197129865
 20
-22.91131105104138
 30
0.0
 10
-12.95174734248922
 20
-22.76091657884516
 30
0.0
 10
-12.94796380091362
 20
-22.68476621417797
 30
0.0
  0
SPLINE
  5
113
330
1F
100
AcDbEntity
  8
0
  6
Continuous
 62
     7
370
    15
100
AcDbSpline
210
0.0
220
0.0
230
1.0
 70
     8
 71
     3
 72
    31
 73
    27
 74
     0
 42
0.000000001
 43
0.00000001
 40
0.0
 40
0.0
 40
0.0
 40
0.0
 40
0.0390142941492522
 40
0.0767533570309238
 40
0.1126244668107436
 40
0.1474256324749257
 40
0.1807099945264688
 40
0.2131134641507613
 40
0.2447806560540092
 40
0.2753575024860465
 40
0.3057364488615062
 40
0.3360944035900076
 40
0.3660294342997329
 40
0.3961603983591288
 40
0.4270007261560002
 40
0.4582438821773736
 40
0.490647351801666
 40
0.5238269460227227
 40
0.5903315515274129
 40
0.6546661229453961
 40
0.7166987621060242
 40
0.7770387581769517
 40
0.8350721616074805
 40
0.8916127143854977
 40
0.9467383545386856
 40
1.0
 40
1.0
 40
1.0
 40
1.0
 10
-12.94796380091362
 20
-22.68476621417797
 30
0.0
 10
-12.95442902493077
 20
-22.60671074311623
 30
0.0
 10
-12.96714814898757
 20
-22.45315114222484
 30
0.0
 10
-13.00414822189026
 20
-22.2299860355451
 30
0.0
 10
-13.04900015774364
 20
-22.01705595493802
 30
0.0
 10
-13.10466351412194
 20
-21.81576183309886
 30
0.0
 10
-13.17397447351419
 20
-21.62627034039683
 30
0.0
 10
-13.24984867825206
 20
-21.44603250623886
 30
0.0
 10
-13.34077255897148
 20
-21.27894499360348
 30
0.0
 10
-13.44166015383327
 20
-21.1226776793883
 30
0.0
 10
-13.55267294647569
 20
-20.97657563141029
 30
0.0
 10
-13.6769544924682
 20
-20.84322475698275
 30
0.0
 10
-13.81244945393271
 20
-20.72232307533044
 30
0.0
 10
-13.95593401075643
 20
-20.6092880828205
 30
0.0
 10
-14.1127676895889
 20
-20.51057326339745
 30
0.0
 10
-14.27987802832979
 20
-20.42062610035072
 30
0.0
 10
-14.45875717774846
 20
-20.34409321735674
 30
0.0
 10
-14.70955643057797
 20
-20.25785073024402
 30
0.0
 10
-15.02693433974305
 20
-20.17022770179966
 30
0.0
 10
-15.4010775090055
 20
-20.0706987057628
 30
0.0
 10
-15.76863630223393
 20
-19.99725850670966
 30
0.0
 10
-16.12539022411026
 20
-19.93502826402409
 30
0.0
 10
-16.47421817785735
 20
-19.89488171526857
 30
0.0
 10
-16.8136876657618
 20
-19.86612500826039
 30
0.0
 10
-17.14490214328952
 20
-19.86136054719532
 30
0.0
 10
-17.36226671955406
 20
-19.86962102994444
 30
0.0
 10
-17.46907993967681
 20
-19.87368024132729
 30
0.0
  0
SPLINE
  5
114
330
1F
100
AcDbEntity
  8
0
  6
Continuous
 62
     7
370
    15
100
AcDbSpline
210
0.0
220
0.0
230
1.0
 70
     8
 71
     3
 72
    13
 73
     9
 74
     0
 42
0.000000001
 43
0.00000001
 40
0.0
 40
0.0
 40
0.0
 40
0.0
 40
0.2790594417498781
 40
0.5443468287983173
 40
0.6698284318520047
 40
0.7874729287020787
 40
0.8979228274536314
 40
1.0
 40
1.0
 40
1.0
 40
1.0
 10
-17.46907993967682
 20
-19.8736802413273
 30
0.0
 10
-17.75509004108053
 20
-19.87646764738921
 30
0.0
 10
-18.31299516239496
 20
-19.88190489631674
 30
0.0
 10
-18.99863096897625
 20
-19.92006306832392
 30
0.0
 10
-19.51810158923095
 20
-19.96059804325493
 30
0.0
 10
-19.87887023503338
 20
-19.99462826876704
 30
0.0
 10
-20.21528216897569
 20
-20.03134965922699
 30
0.0
 10
-20.43105478520935
 20
-20.0611173166035
 30
0.0
 10
-20.53469079940533
 20
-20.07541478129713
 30
0.0
  0
SPLINE
  5
123
330
1F
100
AcDbEntity
  8
0
  6
Continuous
 62
     7
370
    15
100
AcDbSpline
210
0.0
220
0.0
230
1.0
 70
     8
 71
     3
 72
    11
 73
     7
 74
     0
 42
0.000000001
 43
0.00000001
 40
0.0
 40
0.0
 40
0.0
 40
0.0
 40
0.2207460774094476
 40
0.4603574959247466
 40
0.7201142532440701
 40
1.0
 40
1.0
 40
1.0
 40
1.0
 10
-55.37329948506712
 20
-26.30844829668646
 30
0.0
 10
-55.3130827920227
 20
-26.31826518273236
 30
0.0
 10
-55.18750318332425
 20
-26.33873792286394
 30
0.0
 10
-54.98874053728795
 20
-26.34996293372032
 30
0.0
 10
-54.77394539655675
 20
-26.36397824539653
 30
0.0
 10
-54.62484320739809
 20
-26.36341453862961
 30
0.0
 10
-54.54751131222586
 20
-26.36312217194569
 30
0.0
  0
SPLINE
  5
124
330
1F
100
AcDbEntity
  8
0
  6
Continuous
 62
     7
370
    15
100
AcDbSpline
210
0.0
220
0.0
230
1.0
 70
     8
 71
     3
 72
    31
 73
    27
 74
     0
 42
0.000000001
 43
0.00000001
 40
0.0
 40
0.0
 40
0.0
 40
0.0
 40
0.0563888854701848
 40
0.1128889521353142
 40
0.1700515649581328
 40
0.2278352032012636
 40
0.2864849575097487
 40
0.3464231443271809
 40
0.4079358798280339
 40
0.4708274430109442
 40
0.5022607491425045
 40
0.5333048294591838
 40
0.5638906902999491
 40
0.5942477188918952
 40
0.6243090105941506
 40
0.6547004738642536
 40
0.6853489640463365
 40
0.7164883578192527
 40
0.7481826174042425
 40
0.7807075061383735
 40
0.8142300629067499
 40
0.8487012199451581
 40
0.8845056656041758
 40
0.9216354306350877
 40
0.9600118936783373
 40
1.0
 40
1.0
 40
1.0
 40
1.0
 10
-54.54751131222586
 20
-26.36312217194569
 30
0.0
 10
-54.42745031569653
 20
-26.36468497028546
 30
0.0
 10
-54.18709160001161
 20
-26.36781364831315
 30
0.0
 10
-53.82549184114539
 20
-26.34422117135452
 30
0.0
 10
-53.46336477544781
 20
-26.29714446977762
 30
0.0
 10
-53.10056091762553
 20
-26.22534668725418
 30
0.0
 10
-52.73778191957688
 20
-26.12788924438222
 30
0.0
 10
-52.37289086506508
 20
-26.00952321580498
 30
0.0
 10
-52.00794352474737
 20
-25.86487075211369
 30
0.0
 10
-51.70463394695703
 20
-25.73001526312123
 30
0.0
 10
-51.468164470968
 20
-25.60596204416231
 30
0.0
 10
-51.30011814559168
 20
-25.5005840929691
 30
0.0
 10
-51.14351106350485
 20
-25.38273229295698
 30
0.0
 10
-50.99627131026813
 20
-25.25668683284502
 30
0.0
 10
-50.85867935957795
 20
-25.12047784564109
 30
0.0
 10
-50.73548090148294
 20
-24.97045586368135
 30
0.0
 10
-50.61905451302132
 20
-24.81229235727009
 30
0.0
 10
-50.51633948537341
 20
-24.64161450381556
 30
0.0
 10
-50.42100125178774
 20
-24.46227217667175
 30
0.0
 10
-50.33812980785834
 20
-24.27117022608422
 30
0.0
 10
-50.26718892840567
 20
-24.06915715717274
 30
0.0
 10
-50.2049206167562
 20
-23.85709425244016
 30
0.0
 10
-50.15109762813663
 20
-23.63469672674085
 30
0.0
 10
-50.11329338539394
 20
-23.40064640149002
 30
0.0
 10
-50.0822329228302
 20
-23.15668717121632
 30
0.0
 10
-50.07022831249757
 20
-22.99027284731074
 30
0.0
 10
-50.06410256411124
 20
-22.90535444947209
 30
0.0
  0
SPLINE
  5
125
330
1F
100
AcDbEntity
  8
0
  6
Continuous
 62
     7
370
    15
100
AcDbSpline
210
0.0
220
0.0
230
1.0
 70
     8
 71
     3
 72
    15
 73
    11
 74
     0
 42
0.000000001
 43
0.00000001
 40
0.0
 40
0.0
 40
0.0
 40
0.0
 40
0.1340458592622965
 40
0.2633533103175401
 40
0.3896859559751285
 40
0.5139951757308467
 40
0.637168192851557
 40
0.7574695523074315
 40
0.8782647488448595
 40
1.0
 40
1.0
 40
1.0
 40
1.0
 10
-50.06410256411123
 20
-22.90535444947209
 30
0.0
 10
-50.06820132991103
 20
-22.78695474195412
 30
0.0
 10
-50.07625397359232
 20
-22.55434065684113
 30
0.0
 10
-50.13639001668736
 20
-22.21442136772953
 30
0.0
 10
-50.23242817939122
 20
-21.89227443532578
 30
0.0
 10
-50.36508785616882
 20
-21.58913725449949
 30
0.0
 10
-50.53051671694807
 20
-21.30877370900963
 30
0.0
 10
-50.72664514678808
 20
-21.05299434144376
 30
0.0
 10
-50.95309273811643
 20
-20.82452510146157
 30
0.0
 10
-51.12566968130224
 20
-20.69732881450811
 30
0.0
 10
-51.2122926093601
 20
-20.63348416289592
 30
0.0
  0
SPLINE
  5
126
330
1F
100
AcDbEntity
  8
0
  6
Continuous
 62
     7
370
    15
100
AcDbSpline
210
0.0
220
0.0
230
1.0
 70
     8
 71
     3
 72
    15
 73
    11
 74
     0
 42
0.000000001
 43
0.00000001
 40
0.0
 40
0.0
 40
0.0
 40
0.0
 40
0.1005257397576714
 40
0.2063364304974103
 40
0.3184638980130036
 40
0.4377761959698567
 40
0.5649943892115297
 40
0.7011832754348661
 40
0.8458937571370336
 40
1.0
 40
1.0
 40
1.0
 40
1.0
 10
-51.2122926093601
 20
-20.63348416289592
 30
0.0
 10
-51.31159010108015
 20
-20.57089371548373
 30
0.0
 10
-51.5154054626806
 20
-20.44242224605311
 30
0.0
 10
-51.85447100069977
 20
-20.28819693128507
 30
0.0
 10
-52.22536782382593
 20
-20.1560371927759
 30
0.0
 10
-52.63046236758487
 20
-20.04965133055241
 30
0.0
 10
-53.06946864351633
 20
-19.96638297520344
 30
0.0
 10
-53.54276366867585
 20
-19.91259394533067
 30
0.0
 10
-54.04922618432638
 20
-19.87717764849262
 30
0.0
 10
-54.39787268791953
 20
-19.87487022796249
 30
0.0
 10
-54.57767722474471
 20
-19.87368024132729
 30
0.0
  0
SPLINE
  5
127
330
1F
100
AcDbEntity
  8
0
  6
Continuous
 62
     7
370
    15
100
AcDbSpline
210
0.0
220
0.0
230
1.0
 70
     8
 71
     3
 72
    15
 73
    11
 74
     0
 42
0.000000001
 43
0.00000001
 40
0.0
 40
0.0
 40
0.0
 40
0.0
 40
0.1547670588193321
 40
0.3010223458237197
 40
0.4387614183623492
 40
0.5673912668202191
 40
0.6882419214341722
 40
0.8006621448356306
 40
0.9041507753595632
 40
1.0
 40
1.0
 40
1.0
 40
1.0
 10
-54.57767722474471
 20
-19.87368024132729
 30
0.0
 10
-54.73668868420699
 20
-19.87490926299057
 30
0.0
 10
-55.04596640070132
 20
-19.87729971343248
 30
0.0
 10
-55.49656272661741
 20
-19.89164135461611
 30
0.0
 10
-55.92015457673569
 20
-19.90849347956943
 30
0.0
 10
-56.31756461673516
 20
-19.92776979357489
 30
0.0
 10
-56.68825961210542
 20
-19.95715929072315
 30
0.0
 10
-57.03286721826164
 20
-19.98815366047121
 30
0.0
 10
-57.35108249283598
 20
-20.02535497377759
 30
0.0
 10
-57.55349967863779
 20
-20.05661367124298
 30
0.0
 10
-57.65082956260294
 20
-20.07164404223227
 30
0.0
  0
SPLINE
  5
12A
330
1F
100
AcDbEntity
  8
0
  6
Continuous
 62
     7
370
    15
100
AcDbSpline
210
0.0
220
0.0
230
1.0
 70
     8
 71
     3
 72
    15
 73
    11
 74
     0
 42
0.000000001
 43
0.00000001
 40
0.0
 40
0.0
 40
0.0
 40
0.0
 40
0.0875352004204973
 40
0.1879131692622487
 40
0.3016610347348047
 40
0.4294125021507891
 40
0.5657591134398043
 40
0.706189746537022
 40
0.8504123114372536
 40
1.0
 40
1.0
 40
1.0
 40
1.0
 10
-67.68855978389817
 20
-29.57436493978601
 30
0.0
 10
-67.60972958390398
 20
-29.61094236294234
 30
0.0
 10
-67.44050357375808
 20
-29.68946368323103
 30
0.0
 10
-67.15520747414732
 20
-29.7814109033901
 30
0.0
 10
-66.82874361152578
 20
-29.87330346823382
 30
0.0
 10
-66.46183950971604
 20
-29.95088046015931
 30
0.0
 10
-66.06672330501988
 20
-30.02145823230841
 30
0.0
 10
-65.65190545492798
 20
-30.07123343705124
 30
0.0
 10
-65.22224045999855
 20
-30.10432316905922
 30
0.0
 10
-64.93080630229497
 20
-30.11015368161524
 30
0.0
 10
-64.78242835596643
 20
-30.1131221719457
 30
0.0
  0
SPLINE
  5
12B
330
1F
100
AcDbEntity
  8
0
  6
Continuous
 62
     7
370
    15
100
AcDbSpline
210
0.0
220
0.0
230
1.0
 70
     8
 71
     3
 72
    23
 73
    19
 74
     0
 42
0.000000001
 43
0.00000001
 40
0.0
 40
0.0
 40
0.0
 40
0.0
 40
0.0869436253042873
 40
0.1690575766810753
 40
0.2462254933041801
 40
0.3188550664580876
 40
0.3874907587326801
 40
0.4524510527127145
 40
0.5144588543102893
 40
0.5738297412380571
 40
0.6308577480636112
 40
0.6850737484069876
 40
0.7376118921490736
 40
0.7889513639995601
 40
0.8400077629074316
 40
0.8917521787703592
 40
0.9449582234438618
 40
1.0
 40
1.0
 40
1.0
 40
1.0
 10
-64.78242835596643
 20
-30.1131221719457
 30
0.0
 10
-64.61137501938849
 20
-30.10960834760214
 30
0.0
 10
-64.27877027161234
 20
-30.10277589006056
 30
0.0
 10
-63.7962144777802
 20
-30.05743388210976
 30
0.0
 10
-63.34407857534973
 20
-29.9942783464912
 30
0.0
 10
-62.92437042896363
 20
-29.90050579011878
 30
0.0
 10
-62.53420182987773
 20
-29.7878291180177
 30
0.0
 10
-62.17613097383788
 20
-29.64540304866102
 30
0.0
 10
-61.84820005856539
 20
-29.48032078103952
 30
0.0
 10
-61.55308778645816
 20
-29.28910403210395
 30
0.0
 10
-61.29102316048079
 20
-29.07852637221504
 30
0.0
 10
-61.06197527202397
 20
-28.85093118823329
 30
0.0
 10
-60.86873501332137
 20
-28.60637267951261
 30
0.0
 10
-60.70793929344318
 20
-28.34651239159877
 30
0.0
 10
-60.58482702109036
 20
-28.06835747544636
 30
0.0
 10
-60.49637098475432
 20
-27.77389702157232
 30
0.0
 10
-60.43976967439438
 20
-27.46318541738352
 30
0.0
 10
-60.43270324080621
 20
-27.2501194322093
 30
0.0
 10
-60.42911010558935
 20
-27.14177978883861
 30
0.0
  0
SPLINE
  5
12C
330
1F
100
AcDbEntity
  8
0
  6
Continuous
 62
     7
370
    15
100
AcDbSpline
210
0.0
220
0.0
230
1.0
 70
     8
 71
     3
 72
    23
 73
    19
 74
     0
 42
0.000000001
 43
0.00000001
 40
0.0
 40
0.0
 40
0.0
 40
0.0
 40
0.056086537114684
 40
0.1108362518671627
 40
0.1642739877837072
 40
0.2173057516409576
 40
0.2704175366477072
 40
0.3237137997211096
 40
0.3783116138435741
 40
0.434160391466441
 40
0.4922229037469815
 40
0.5535300759639834
 40
0.6180898706741744
 40
0.6862990132668361
 40
0.7585084706160882
 40
0.8344781641749796
 40
0.9148061878563447
 40
1.0
 40
1.0
 40
1.0
 40
1.0
 10
-60.42911010558936
 20
-27.14177978883862
 30
0.0
 10
-60.43074631943725
 20
-27.0606148962416
 30
0.0
 10
-60.43397974798325
 20
-26.90021967590094
 30
0.0
 10
-60.46492378619467
 20
-26.66412502186335
 30
0.0
 10
-60.51584391413252
 20
-26.43624059845325
 30
0.0
 10
-60.58787886385056
 20
-26.21653105520199
 30
0.0
 10
-60.6803645718977
 20
-26.00488415345833
 30
0.0
 10
-60.79427129493011
 20
-25.80122994808853
 30
0.0
 10
-60.9313027197069
 20
-25.60765101075089
 30
0.0
 10
-61.08635781977029
 20
-25.41923736209445
 30
0.0
 10
-61.2653968380017
 20
-25.23929117844848
 30
0.0
 10
-61.4679730689122
 20
-25.06651534416679
 30
0.0
 10
-61.69259553223523
 20
-24.89768312753057
 30
0.0
 10
-61.94322513079043
 20
-24.73887920161009
 30
0.0
 10
-62.21405716038217
 20
-24.58175925294892
 30
0.0
 10
-62.50936588827977
 20
-24.4328178282836
 30
0.0
 10
-62.82909680534581
 20
-24.29177141687197
 30
0.0
 10
-63.05195957286421
 20
-24.2041987128658
 30
0.0
 10
-63.16666666667533
 20
-24.15912518853696
 30
0.0
  0
SPLINE
  5
12D
330
1F
100
AcDbEntity
  8
0
  6
Continuous
 62
     7
370
    15
100
AcDbSpline
210
0.0
220
0.0
230
1.0
 70
     8
 71
     3
 72
    23
 73
    19
 74
     0
 42
0.000000001
 43
0.00000001
 40
0.0
 40
0.0
 40
0.0
 40
0.0
 40
0.1016220013680686
 40
0.1961201221671141
 40
0.2847768515498513
 40
0.3664008078450017
 40
0.4416667712726589
 40
0.5109622938547178
 40
0.5737505879998194
 40
0.6304716555425818
 40
0.6826348553844905
 40
0.7314871817871057
 40
0.7781028818254947
 40
0.8233036516296725
 40
0.8664852050167146
 40
0.9101635903229134
 40
0.9543637408585485
 40
1.0
 40
1.0
 40
1.0
 40
1.0
 10
-63.16666666667533
 20
-24.15912518853696
 30
0.0
 10
-63.25607161484881
 20
-24.12624539275429
 30
0.0
 10
-63.42861406748776
 20
-24.06279073255356
 30
0.0
 10
-63.67649205663115
 20
-23.96370060512297
 30
0.0
 10
-63.90585518251307
 20
-23.86881740321347
 30
0.0
 10
-64.11558146862569
 20
-23.77396551622486
 30
0.0
 10
-64.30691578008742
 20
-23.68248910986746
 30
0.0
 10
-64.47765872109692
 20
-23.58953729308247
 30
0.0
 10
-64.63124807417685
 20
-23.5015369297149
 30
0.0
 10
-64.76666382951232
 20
-23.41450373884779
 30
0.0
 10
-64.88559731447343
 20
-23.32621027336886
 30
0.0
 10
-64.9861141301851
 20
-23.23077096065608
 30
0.0
 10
-65.07295067102167
 20
-23.13098455426454
 30
0.0
 10
-65.13954957063676
 20
-23.02294120775752
 30
0.0
 10
-65.19451626785695
 20
-22.91174630433403
 30
0.0
 10
-65.23224122695137
 20
-22.79434814857477
 30
0.0
 10
-65.25326746017058
 20
-22.67045918726522
 30
0.0
 10
-65.25485145199184
 20
-22.58617783076229
 30
0.0
 10
-65.25565610860593
 20
-22.54336349924585
 30
0.0
  0
SPLINE
  5
12E
330
1F
100
AcDbEntity
  8
0
  6
Continuous
 62
     7
370
    15
100
AcDbSpline
210
0.0
220
0.0
230
1.0
 70
     8
 71
     3
 72
    23
 73
    19
 74
     0
 42
0.000000001
 43
0.00000001
 40
0.0
 40
0.0
 40
0.0
 40
0.0
 40
0.0467962994539279
 40
0.0918394076825301
 40
0.1377038213573284
 40
0.184193895455671
 40
0.2320261983632269
 40
0.2824873473976605
 40
0.3354776496507059
 40
0.3921160224525679
 40
0.4520081143082004
 40
0.5154329053899088
 40
0.5830635986921803
 40
0.6552271003915292
 40
0.7328352125302715
 40
0.8159062327761089
 40
0.9048355202013393
 40
1.0
 40
1.0
 40
1.0
 40
1.0
 10
-65.25565610860593
 20
-22.54336349924585
 30
0.0
 10
-65.25473913772085
 20
-22.50683443325966
 30
0.0
 10
-65.25293954963519
 20
-22.43514483766096
 30
0.0
 10
-65.23346374222275
 20
-22.32901514711523
 30
0.0
 10
-65.19904920713633
 20
-22.22723763480947
 30
0.0
 10
-65.15164944994196
 20
-22.12835289752893
 30
0.0
 10
-65.08988238662283
 20
-22.03360505621303
 30
0.0
 10
-65.01715096277745
 20
-21.94028190257875
 30
0.0
 10
-64.9261845499907
 20
-21.8543650059658
 30
0.0
 10
-64.825519905972
 20
-21.76845734983315
 30
0.0
 10
-64.70780642847186
 20
-21.69125853204956
 30
0.0
 10
-64.57490502140699
 20
-21.62360989794736
 30
0.0
 10
-64.42744246259667
 20
-21.56468260482167
 30
0.0
 10
-64.2639247363456
 20
-21.51912087498506
 30
0.0
 10
-64.08680214956696
 20
-21.47856878366399
 30
0.0
 10
-63.89386259772484
 20
-21.45094662388097
 30
0.0
 10
-63.68601531810211
 20
-21.43486611551443
 30
0.0
 10
-63.54250913557155
 20
-21.42982873399495
 30
0.0
 10
-63.46832579186386
 20
-21.42722473604827
 30
0.0
  0
SPLINE
  5
12F
330
1F
100
AcDbEntity
  8
0
  6
Continuous
 62
     7
370
    15
100
AcDbSpline
210
0.0
220
0.0
230
1.0
 70
     8
 71
     3
 72
    15
 73
    11
 74
     0
 42
0.000000001
 43
0.00000001
 40
0.0
 40
0.0
 40
0.0
 40
0.0
 40
0.1644212923093816
 40
0.318037529893529
 40
0.4596623268353988
 40
0.5906085570010607
 40
0.7108266029938668
 40
0.8194221431939344
 40
0.9151757514896426
 40
1.0
 40
1.0
 40
1.0
 40
1.0
 10
-63.46832579186386
 20
-21.42722473604827
 30
0.0
 10
-63.34886822816276
 20
-21.43048912069469
 30
0.0
 10
-63.1178033341154
 20
-21.43680336877649
 30
0.0
 10
-62.78466783618914
 20
-21.46433907182765
 30
0.0
 10
-62.47802193346606
 20
-21.50930762390216
 30
0.0
 10
-62.19875158896296
 20
-21.56952718732926
 30
0.0
 10
-61.94721584742584
 20
-21.64108011898213
 30
0.0
 10
-61.7213211023364
 20
-21.7089762547681
 30
0.0
 10
-61.52338456965504
 20
-21.7801827137035
 30
0.0
 10
-61.40356762028726
 20
-21.83379203387175
 30
0.0
 10
-61.34728506788196
 20
-21.85897435897436
 30
0.0
  0
SPLINE
  5
131
330
1F
100
AcDbEntity
  8
0
  6
Continuous
 62
     7
370
    15
100
AcDbSpline
210
0.0
220
0.0
230
1.0
 70
     8
 71
     3
 72
    15
 73
    11
 74
     0
 42
0.000000001
 43
0.00000001
 40
0.0
 40
0.0
 40
0.0
 40
0.0
 40
0.0913698209121958
 40
0.1920404399845413
 40
0.3021415769453005
 40
0.4224815878653984
 40
0.5519488570589505
 40
0.6914531656978344
 40
0.8404075970479487
 40
0.9999999999999999
 40
0.9999999999999999
 40
0.9999999999999999
 40
0.9999999999999999
 10
-60.87237447564026
 20
-20.3138587917138
 30
0.0
 10
-60.94624023678277
 20
-20.2853152226308
 30
0.0
 10
-61.1014907683914
 20
-20.22532255206734
 30
0.0
 10
-61.35043293769449
 20
-20.14335473017715
 30
0.0
 10
-61.62910757091194
 20
-20.07440019882274
 30
0.0
 10
-61.93320515613987
 20
-20.00470108485039
 30
0.0
 10
-62.26617743791714
 20
-19.94917376773015
 30
0.0
 10
-62.62580706112793
 20
-19.90472431731665
 30
0.0
 10
-63.01367738914281
 20
-19.88212652821639
 30
0.0
 10
-63.28102408987112
 20
-19.87655964795119
 30
0.0
 10
-63.41930618402074
 20
-19.8736802413273
 30
0.0
  0
SPLINE
  5
132
330
1F
100
AcDbEntity
  8
0
  6
Continuous
 62
     7
370
    15
100
AcDbSpline
210
0.0
220
0.0
230
1.0
 70
     8
 71
     3
 72
    23
 73
    19
 74
     0
 42
0.000000001
 43
0.00000001
 40
0.0
 40
0.0
 40
0.0
 40
0.0
 40
0.0852623263567094
 40
0.1657486678136103
 40
0.2420941708287596
 40
0.3139774135914145
 40
0.3823584914716887
 40
0.4474552293336161
 40
0.5098135030943421
 40
0.5700536798082914
 40
0.6279596495432419
 40
0.6832038637802468
 40
0.7364261950462119
 40
0.7884024539369776
 40
0.8400998007437522
 40
0.8919679542278137
 40
0.9450078065628836
 40
1.0
 40
1.0
 40
1.0
 40
1.0
 10
-63.41930618402073
 20
-19.8736802413273
 30
0.0
 10
-63.57839752959164
 20
-19.87822608325596
 30
0.0
 10
-63.88766868973727
 20
-19.88706313094119
 30
0.0
 10
-64.33787231428674
 20
-19.92876260421483
 30
0.0
 10
-64.76015001687112
 20
-19.99327525996133
 30
0.0
 10
-65.15433051515295
 20
-20.08448410864019
 30
0.0
 10
-65.52134358949814
 20
-20.19625904302883
 30
0.0
 10
-65.86043709589615
 20
-20.33400544585241
 30
0.0
 10
-66.17169541174623
 20
-20.4960605690707
 30
0.0
 10
-66.45246419809553
 20
-20.68323214030758
 30
0.0
 10
-66.7039380094034
 20
-20.8878240531721
 30
0.0
 10
-66.92177436515006
 20
-21.10988064137536
 30
0.0
 10
-67.10912767748472
 20
-21.34431999383712
 30
0.0
 10
-67.26099583996827
 20
-21.59562445346322
 30
0.0
 10
-67.38031938223135
 20
-21.86100865141094
 30
0.0
 10
-67.46782894155895
 20
-22.14051381730066
 30
0.0
 10
-67.52203916682635
 20
-22.43507674985295
 30
0.0
 10
-67.52942357477455
 20
-22.63677186770409
 30
0.0
 10
-67.53318250377939
 20
-22.7394419306184
 30
0.0
  0
SPLINE
  5
133
330
1F
100
AcDbEntity
  8
0
  6
Continuous
 62
     7
370
    15
100
AcDbSpline
210
0.0
220
0.0
230
1.0
 70
     8
 71
     3
 72
    23
 73
    19
 74
     0
 42
0.000000001
 43
0.00000001
 40
0.0
 40
0.0
 40
0.0
 40
0.0
 40
0.0551376260265951
 40
0.1091371540058234
 40
0.1625308547494086
 40
0.2157806999685133
 40
0.2694265116934981
 40
0.3243979514478162
 40
0.3806637959868684
 40
0.4393432799777276
 40
0.5002530330584789
 40
0.5631116604593406
 40
0.6286972412695483
 40
0.6966047950569938
 40
0.7679734452412698
 40
0.8418165389668302
 40
0.9194377351257744
 40
1.0
 40
1.0
 40
1.0
 40
1.0
 10
-67.53318250377939
 20
-22.7394419306184
 30
0.0
 10
-67.52984074974722
 20
-22.82004447938828
 30
0.0
 10
-67.52322621896779
 20
-22.97958585634413
 30
0.0
 10
-67.48386592323682
 20
-23.21437780159462
 30
0.0
 10
-67.42527855490711
 20
-23.44231343490978
 30
0.0
 10
-67.33584647399245
 20
-23.65944518713979
 30
0.0
 10
-67.22885045753749
 20
-23.87083077868211
 30
0.0
 10
-67.09584332377304
 20
-24.07242260526601
 30
0.0
 10
-66.94003577944302
 20
-24.26632962638225
 30
0.0
 10
-66.75989702183465
 20
-24.45015672731708
 30
0.0
 10
-66.5603276814175
 20
-24.627416504184
 30
0.0
 10
-66.33976399848285
 20
-24.79498105131693
 30
0.0
 10
-66.10267820835354
 20
-24.95696859202102
 30
0.0
 10
-65.84635579733231
 20
-25.11207090805281
 30
0.0
 10
-65.57237150212063
 20
-25.26065189654221
 30
0.0
 10
-65.27783729680996
 20
-25.40001795485791
 30
0.0
 10
-64.96612534693084
 20
-25.53400060249833
 30
0.0
 10
-64.74947798815211
 20
-25.61490452302622
 30
0.0
 10
-64.63914027150187
 20
-25.65610859728507
 30
0.0
  0
SPLINE
  5
134
330
1F
100
AcDbEntity
  8
0
  6
Continuous
 62
     7
370
    15
100
AcDbSpline
210
0.0
220
0.0
230
1.0
 70
     8
 71
     3
 72
    23
 73
    19
 74
     0
 42
0.000000001
 43
0.00000001
 40
0.0
 40
0.0
 40
0.0
 40
0.0
 40
0.0956197811948049
 40
0.1849859080267843
 40
0.2692107113815245
 40
0.3477217407299992
 40
0.4209322128110559
 40
0.4886602926087673
 40
0.5520184165726172
 40
0.6096854317077718
 40
0.663474905077177
 40
0.7147293336660133
 40
0.7640400056117711
 40
0.811816912493211
 40
0.8579986534724384
 40
0.9044944171601008
 40
0.9518993153730048
 40
1.0
 40
1.0
 40
1.0
 40
1.0
 10
-64.63914027150187
 20
-25.65610859728507
 30
0.0
 10
-64.55782539707072
 20
-25.68500168199799
 30
0.0
 10
-64.40051374361599
 20
-25.74089820722038
 30
0.0
 10
-64.17556423295001
 20
-25.83277377849749
 30
0.0
 10
-63.96655686416079
 20
-25.92259319246024
 30
0.0
 10
-63.77350262473015
 20
-26.0125431561702
 30
0.0
 10
-63.59837158944615
 20
-26.10511821444489
 30
0.0
 10
-63.43882067496692
 20
-26.19756658310316
 30
0.0
 10
-63.29608367372119
 20
-26.29072876298615
 30
0.0
 10
-63.17024558720367
 20
-26.38602996476642
 30
0.0
 10
-63.05910610482582
 20
-26.48222309565924
 30
0.0
 10
-62.96390758288231
 20
-26.58440042487541
 30
0.0
 10
-62.88504311093391
 20
-26.6927853545996
 30
0.0
 10
-62.81756439991219
 20
-26.80342028702622
 30
0.0
 10
-62.76844120355985
 20
-26.92073815716727
 30
0.0
 10
-62.73276710491162
 20
-27.04210185159332
 30
0.0
 10
-62.70843682289419
 20
-27.16846489251863
 30
0.0
 10
-62.70723951571887
 20
-27.25478897204389
 30
0.0
 10
-62.70663650076281
 20
-27.29826546003017
 30
0.0
  0
SPLINE
  5
135
330
1F
100
AcDbEntity
  8
0
  6
Continuous
 62
     7
370
    15
100
AcDbSpline
210
0.0
220
0.0
230
1.0
 70
     8
 71
     3
 72
    23
 73
    19
 74
     0
 42
0.000000001
 43
0.00000001
 40
0.0
 40
0.0
 40
0.0
 40
0.0
 40
0.0532713343107826
 40
0.1042819178102066
 40
0.1540278543660959
 40
0.2034982168513502
 40
0.2535182092866016
 40
0.3050169434634339
 40
0.3583656930147856
 40
0.4142459107128701
 40
0.4728786583664603
 40
0.5355350067829763
 40
0.6014415901500466
 40
0.6714916762171409
 40
0.7461477317512553
 40
0.8251742934882446
 40
0.9101733899095621
 40
1.0
 40
1.0
 40
1.0
 40
1.0
 10
-62.70663650076282
 20
-27.29826546003017
 30
0.0
 10
-62.70884278748111
 20
-27.34485255918543
 30
0.0
 10
-62.71316172961386
 20
-27.43604967500728
 30
0.0
 10
-62.73543433159546
 20
-27.56937005885262
 30
0.0
 10
-62.77501893134484
 20
-27.69529357678984
 30
0.0
 10
-62.83342330916095
 20
-27.81241992482901
 30
0.0
 10
-62.90253980556708
 20
-27.92538177009268
 30
0.0
 10
-62.99063282667444
 20
-28.02897505138855
 30
0.0
 10
-63.09315878703669
 20
-28.12556274732504
 30
0.0
 10
-63.21049967021729
 20
-28.21439340965547
 30
0.0
 10
-63.34379774873525
 20
-28.29416440039867
 30
0.0
 10
-63.49279955678945
 20
-28.362711842942
 30
0.0
 10
-63.65568769073921
 20
-28.42377701958798
 30
0.0
 10
-63.83370745150213
 20
-28.47242871504281
 30
0.0
 10
-64.0261320442595
 20
-28.50903652990356
 30
0.0
 10
-64.23306769468418
 20
-28.53799402831257
 30
0.0
 10
-64.45475740972935
 20
-28.55411376856566
 30
0.0
 10
-64.6076944446711
 20
-28.557723152016
 30
0.0
 10
-64.68627450981258
 20
-28.55957767722473
 30
0.0
  0
SPLINE
  5
136
330
1F
100
AcDbEntity
  8
0
  6
Continuous
 62
     7
370
    15
100
AcDbSpline
210
0.0
220
0.0
230
1.0
 70
     8
 71
     3
 72
    15
 73
    11
 74
     0
 42
0.000000001
 43
0.00000001
 40
0.0
 40
0.0
 40
0.0
 40
0.0
 40
0.1379564553410791
 40
0.2741596525122395
 40
0.4077108220839623
 40
0.5396784464913285
 40
0.6666787131951843
 40
0.7857407182510968
 40
0.8967749028069917
 40
0.9999999999999999
 40
0.9999999999999999
 40
0.9999999999999999
 40
0.9999999999999999
 10
-64.68627450981258
 20
-28.55957767722473
 30
0.0
 10
-64.80761601951936
 20
-28.55630839969924
 30
0.0
 10
-65.04875693644327
 20
-28.54981139317544
 30
0.0
 10
-65.40649417592154
 20
-28.52024094150226
 30
0.0
 10
-65.75634740857384
 20
-28.46870635181919
 30
0.0
 10
-66.09490148719685
 20
-28.3996887046101
 30
0.0
 10
-66.41663213054849
 20
-28.31486654586839
 30
0.0
 10
-66.71679711613095
 20
-28.22179491822198
 30
0.0
 10
-66.99118036518153
 20
-28.11727040925428
 30
0.0
 10
-67.16101382009747
 20
-28.03532942944295
 30
0.0
 10
-67.24283559578542
 20
-27.99585218702866
 30
0.0
  0
SPLINE
  5
138
330
1F
100
AcDbEntity
  8
0
  6
Continuous
 62
     7
370
    15
100
AcDbSpline
210
0.0
220
0.0
230
1.0
 70
     8
 71
     3
 72
    15
 73
    11
 74
     0
 42
0.000000001
 43
0.00000001
 40
0.0
 40
0.0
 40
0.0
 40
0.0
 40
0.075297297873255
 40
0.1657621582853706
 40
0.268361891768714
 40
0.3867619927272607
 40
0.5174874261481842
 40
0.6640844704823443
 40
0.8249157892940706
 40
1.0
 40
1.0
 40
1.0
 40
1.0
 10
-18.2571607218695
 20
-21.38342855922416
 30
0.0
 10
-18.23148299780528
 20
-21.37685875317662
 30
0.0
 10
-18.17495513982148
 20
-21.3623957477207
 30
0.0
 10
-18.08137312083113
 20
-21.34908952610611
 30
0.0
 10
-17.97269460001731
 20
-21.33536089695091
 30
0.0
 10
-17.84939161781229
 20
-21.32480256524339
 30
0.0
 10
-17.7105441435892
 20
-21.31462692542357
 30
0.0
 10
-17.55645556078909
 20
-21.31013555556704
 30
0.0
 10
-17.38677820125978
 20
-21.30553707551679
 30
0.0
 10
-17.26860645873937
 20
-21.3062102285294
 30
0.0
 10
-17.20701357466928
 20
-21.30656108597284
 30
0.0
  0
SPLINE
  5
139
330
1F
100
AcDbEntity
  8
0
  6
Continuous
 62
     7
370
    15
100
AcDbSpline
210
0.0
220
0.0
230
1.0
 70
     8
 71
     3
 72
    19
 73
    15
 74
     0
 42
0.000000001
 43
0.00000001
 40
0.0
 40
0.0
 40
0.0
 40
0.0
 40
0.1168448665043468
 40
0.233706506470543
 40
0.3511036318401248
 40
0.4723392457242273
 40
0.5330064321595157
 40
0.5920730029220383
 40
0.6514888111589254
 40
0.7126351352881064
 40
0.7776348374692625
 40
0.8459060602911044
 40
0.9198140829978727
 40
1.0
 40
1.0
 40
1.0
 40
1.0
 10
-17.20701357466928
 20
-21.30656108597284
 30
0.0
 10
-17.09559465948381
 20
-21.30600267558112
 30
0.0
 10
-16.87274083456401
 20
-21.30488577463602
 30
0.0
 10
-16.54122506784496
 20
-21.35860182595739
 30
0.0
 10
-16.21552038604424
 20
-21.45255100470326
 30
0.0
 10
-15.95129311050709
 20
-21.56198674075584
 30
0.0
 10
-15.75202771328696
 20
-21.67694751956342
 30
0.0
 10
-15.61955801998448
 20
-21.78595211627663
 30
0.0
 10
-15.50800496816192
 20
-21.91645303562288
 30
0.0
 10
-15.41169462951006
 20
-22.06536463892467
 30
0.0
 10
-15.33770341246793
 20
-22.2358612982451
 30
0.0
 10
-15.28130125969389
 20
-22.42519957834239
 30
0.0
 10
-15.24102053198299
 20
-22.63361425521034
 30
0.0
 10
-15.23080569457955
 20
-22.78010526428523
 30
0.0
 10
-15.22549019608707
 20
-22.85633484162895
 30
0.0
  0
SPLINE
  5
13A
330
1F
100
AcDbEntity
  8
0
  6
Continuous
 62
     7
370
    15
100
AcDbSpline
210
0.0
220
0.0
230
1.0
 70
     8
 71
     3
 72
    23
 73
    19
 74
     0
 42
0.000000001
 43
0.00000001
 40
0.0
 40
0.0
 40
0.0
 40
0.0
 40
0.0600813643652919
 40
0.1175494582713975
 40
0.1732742174907545
 40
0.2282343791362956
 40
0.2825091880208499
 40
0.3373804412852137
 40
0.3933383595112701
 40
0.4511839915403136
 40
0.5106527509374074
 40
0.5720503985048537
 40
0.6352022908711942
 40
0.7005578153141184
 40
0.7701757863818629
 40
0.8426374038835591
 40
0.9189283412237758
 40
1.0
 40
1.0
 40
1.0
 40
1.0
 10
-15.22549019608707
 20
-22.85633484162895
 30
0.0
 10
-15.22821962605721
 20
-22.91548130468037
 30
0.0
 10
-15.23355976800919
 20
-23.03120162434707
 30
0.0
 10
-15.25905832340811
 20
-23.20056840351575
 30
0.0
 10
-15.30618047210226
 20
-23.35965629755024
 30
0.0
 10
-15.36447164905902
 20
-23.51189424779663
 30
0.0
 10
-15.44658207792364
 20
-23.65166122686066
 30
0.0
 10
-15.53946995499641
 20
-23.78568443944903
 30
0.0
 10
-15.65531363803195
 20
-23.90552523764609
 30
0.0
 10
-15.78273615832654
 20
-24.01938087726181
 30
0.0
 10
-15.92679705524261
 20
-24.12128952725717
 30
0.0
 10
-16.08523249395294
 20
-24.21023371201363
 30
0.0
 10
-16.25812645906771
 20
-24.28240692956597
 30
0.0
 10
-16.44276324664576
 20
-24.34633683235034
 30
0.0
 10
-16.64182578924935
 20
-24.39389826329057
 30
0.0
 10
-16.85407373241972
 20
-24.42975165529189
 30
0.0
 10
-17.07958301994489
 20
-24.45267140538375
 30
0.0
 10
-17.23461083528774
 20
-24.45678147620763
 30
0.0
 10
-17.31447963801769
 20
-24.45889894419305
 30
0.0
  0
SPLINE
  5
13D
330
1F
100
AcDbEntity
  8
0
  6
Continuous
 62
     7
370
    15
100
AcDbSpline
210
0.0
220
0.0
230
1.0
 70
     8
 71
     3
 72
    15
 73
    11
 74
     0
 42
0.000000001
 43
0.00000001
 40
0.0
 40
0.0
 40
0.0
 40
0.0
 40
0.1043255455315791
 40
0.2149577875189943
 40
0.3311069427048584
 40
0.453145335498764
 40
0.5810733262439687
 40
0.7149353530152491
 40
0.8543143392382859
 40
1.0
 40
1.0
 40
1.0
 40
1.0
 10
-101.6996323529455
 20
-4.411764705882353
 30
0.0
 10
-101.7496281388791
 20
-3.957759873033194
 30
0.0
 10
-101.8526420601081
 20
-3.022304669852444
 30
0.0
 10
-102.0041880413745
 20
-1.580619843635367
 30
0.0
 10
-102.1721023091049
 20
-0.0627039099710012
 30
0.0
 10
-102.3426216517967
 20
1.531096878148068
 30
0.0
 10
-102.5179100345104
 20
3.202372883698615
 30
0.0
 10
-102.7050242232394
 20
4.948742063467629
 30
0.0
 10
-102.905900879361
 20
6.771818073104632
 30
0.0
 10
-103.0382458763248
 20
8.012826687417446
 30
0.0
 10
-103.1058823529455
 20
8.647058823529413
 30
0.0
  0
SPLINE
  5
13F
330
1F
100
AcDbEntity
  8
0
  6
Continuous
 62
     7
370
    15
100
AcDbSpline
210
0.0
220
0.0
230
1.0
 70
     8
 71
     3
 72
    15
 73
    11
 74
     0
 42
0.000000001
 43
0.00000001
 40
0.0
 40
0.0
 40
0.0
 40
0.0
 40
0.1650807107268535
 40
0.318380012847362
 40
0.4607278895057373
 40
0.5911828779919305
 40
0.7106859801269102
 40
0.8184082284475647
 40
0.9151226478748371
 40
1.0
 40
1.0
 40
1.0
 40
1.0
 10
-103.1058823529455
 20
8.647058823529411
 30
0.0
 10
-103.2012226486521
 20
7.928275770597373
 30
0.0
 10
-103.3850990351681
 20
6.542007462087224
 30
0.0
 10
-103.6551903838237
 20
4.536471578884403
 30
0.0
 10
-103.9117226283937
 20
2.682573222404183
 30
0.0
 10
-104.1355565949766
 20
0.9740549266625331
 30
0.0
 10
-104.3440566756482
 20
-0.5830789016008716
 30
0.0
 10
-104.5394956739824
 20
-1.99242497961451
 30
0.0
 10
-104.7093738014561
 20
-3.25176429168213
 30
0.0
 10
-104.815479113172
 20
-4.042274378963534
 30
0.0
 10
-104.8650735294161
 20
-4.411764705882353
 30
0.0
  0
SPLINE
  5
140
330
1F
100
AcDbEntity
  8
0
  6
Continuous
 62
     7
370
    15
100
AcDbSpline
210
0.0
220
0.0
230
1.0
 70
     8
 71
     3
 72
    23
 73
    19
 74
     0
 42
0.000000001
 43
0.00000001
 40
0.0
 40
0.0
 40
0.0
 40
0.0
 40
0.0636688203567328
 40
0.1243974140906075
 40
0.1828502530290134
 40
0.2391994750654959
 40
0.2950306007845739
 40
0.3500116861826682
 40
0.4061798207690913
 40
0.4630218552084114
 40
0.5212800797675875
 40
0.5811472706588486
 40
0.6432330195355601
 40
0.7075750505134376
 40
0.774858266051386
 40
0.8458354047666916
 40
0.9207683626650879
 40
1.0
 40
1.0
 40
1.0
 40
1.0
 10
-52.34162895928469
 20
-23.00150829562594
 30
0.0
 10
-52.34413532387845
 20
-23.07073564004583
 30
0.0
 10
-52.34903230912935
 20
-23.20599340957795
 30
0.0
 10
-52.3775141831238
 20
-23.40317215898465
 30
0.0
 10
-52.42387611986549
 20
-23.58877700787377
 30
0.0
 10
-52.49144311356504
 20
-23.76199219591881
 30
0.0
 10
-52.57355511701751
 20
-23.92456123269665
 30
0.0
 10
-52.6753303898545
 20
-24.07547422298633
 30
0.0
 10
-52.79389191085221
 20
-24.21492736763761
 30
0.0
 10
-52.9306358234451
 20
-24.34205537295744
 30
0.0
 10
-53.08432308797244
 20
-24.45467078243715
 30
0.0
 10
-53.25236776887677
 20
-24.55637518422059
 30
0.0
 10
-53.4385317026175
 20
-24.6371648501314
 30
0.0
 10
-53.63688205236512
 20
-24.70879354045541
 30
0.0
 10
-53.85156442701886
 20
-24.75981813582537
 30
0.0
 10
-54.08000177265949
 20
-24.7998333030108
 30
0.0
 10
-54.3238882491795
 20
-24.82441486432489
 30
0.0
 10
-54.49152280892438
 20
-24.82831321600539
 30
0.0
 10
-54.57767722474471
 20
-24.83031674208144
 30
0.0
  0
SPLINE
  5
142
330
1F
100
AcDbEntity
  8
0
  6
Continuous
 62
     7
370
    15
100
AcDbSpline
210
0.0
220
0.0
230
1.0
 70
     8
 71
     3
 72
    11
 73
     7
 74
     0
 42
0.000000001
 43
0.00000001
 40
0.0
 40
0.0
 40
0.0
 40
0.0
 40
0.177236139257718
 40
0.4029970920911788
 40
0.6757535383266592
 40
1.0
 40
1.0
 40
1.0
 40
1.0
 10
-55.37329948506711
 20
-21.38600068933823
 30
0.0
 10
-55.3162236362363
 20
-21.3751409805133
 30
0.0
 10
-55.18644535736058
 20
-21.35044832417509
 30
0.0
 10
-54.96590553773248
 20
-21.32776141190036
 30
0.0
 10
-54.69660868876145
 20
-21.31407478943774
 30
0.0
 10
-54.50102339789088
 20
-21.309205637864
 30
0.0
 10
-54.39479638009917
 20
-21.30656108597284
 30
0.0
  0
SPLINE
  5
143
330
1F
100
AcDbEntity
  8
0
  6
Continuous
 62
     7
370
    15
100
AcDbSpline
210
0.0
220
0.0
230
1.0
 70
     8
 71
     3
 72
    23
 73
    19
 74
     0
 42
0.000000001
 43
0.00000001
 40
0.0
 40
0.0
 40
0.0
 40
0.0
 40
0.0768819582417234
 40
0.1496189905697638
 40
0.2186364056643616
 40
0.2848515008273476
 40
0.3480693587501997
 40
0.4087739858751661
 40
0.4678197115905643
 40
0.5257038998761432
 40
0.582358000373453
 40
0.638130352216282
 40
0.6939236934665556
 40
0.7500830794957998
 40
0.8087973829385756
 40
0.8692539786588561
 40
0.9324255174708942
 40
1.0
 40
1.0
 40
1.0
 40
1.0
 10
-54.39479638009917
 20
-21.30656108597284
 30
0.0
 10
-54.31746908686124
 20
-21.30829998018219
 30
0.0
 10
-54.16698343558046
 20
-21.31168401984845
 30
0.0
 10
-53.94753122942291
 20
-21.32949512122638
 30
0.0
 10
-53.74098853115326
 20
-21.3640348792205
 30
0.0
 10
-53.54661722395648
 20
-21.41047366906179
 30
0.0
 10
-53.36495196237442
 20
-21.4709762149371
 30
0.0
 10
-53.19551802184536
 20
-21.54385214771379
 30
0.0
 10
-53.04094911055513
 20
-21.6340886182106
 30
0.0
 10
-52.89667355283839
 20
-21.73287531920242
 30
0.0
 10
-52.76770477752122
 20
-21.84639172249524
 30
0.0
 10
-52.6554670197357
 20
-21.97364635717481
 30
0.0
 10
-52.56094499679817
 20
-22.11398275583075
 30
0.0
 10
-52.48287968847987
 20
-22.26726503148716
 30
0.0
 10
-52.42026901194367
 20
-22.43267859319201
 30
0.0
 10
-52.37843899395159
 20
-22.61159000020885
 30
0.0
 10
-52.34854521432649
 20
-22.80194535409708
 30
0.0
 10
-52.34398556057588
 20
-22.93351047269472
 30
0.0
 10
-52.34162895928469
 20
-23.00150829562594
 30
0.0
  0
SPLINE
  5
144
330
1F
100
AcDbEntity
  8
0
  6
Continuous
 62
     7
370
    15
100
AcDbSpline
210
0.0
220
0.0
230
1.0
 70
     8
 71
     3
 72
    11
 73
     7
 74
     0
 42
0.000000001
 43
0.00000001
 40
0.0
 40
0.0
 40
0.0
 40
0.0
 40
0.2928168463860217
 40
0.5551924121935159
 40
0.7922817693930296
 40
1.0
 40
1.0
 40
1.0
 40
1.0
 10
-54.57767722474471
 20
-24.83031674208144
 30
0.0
 10
-54.65562025872491
 20
-24.8303213604574
 30
0.0
 10
-54.80340335789845
 20
-24.83033011708231
 30
0.0
 10
-55.01407371595533
 20
-24.82059928323845
 30
0.0
 10
-55.20181674452356
 20
-24.80532462392003
 30
0.0
 10
-55.31871397672781
 20
-24.78637539198906
 30
0.0
 10
-55.37330316742948
 20
-24.77752639517344
 30
0.0
  0
SPLINE
  5
145
330
1F
100
AcDbEntity
  8
0
  6
Continuous
 62
     7
370
    15
100
AcDbSpline
210
0.0
220
0.0
230
1.0
 70
     8
 71
     3
 72
    23
 73
    19
 74
     0
 42
0.000000001
 43
0.00000001
 40
0.0
 40
0.0
 40
0.0
 40
0.0
 40
0.0705860039219247
 40
0.1377355461916538
 40
0.2018511924578586
 40
0.2629702938666959
 40
0.3219517399559229
 40
0.3793622895509859
 40
0.4356732135795643
 40
0.4918504410182437
 40
0.5480856075752087
 40
0.6050114440433605
 40
0.6634036864074918
 40
0.72354622552671
 40
0.7871277199887826
 40
0.8538739686801476
 40
0.924558885430565
 40
1.0
 40
1.0
 40
1.0
 40
1.0
 10
-38.51772247361344
 20
-21.41591251885369
 30
0.0
 10
-38.38878844364903
 20
-21.41833112440243
 30
0.0
 10
-38.13719750418343
 20
-21.42305058630378
 30
0.0
 10
-37.77017291649119
 20
-21.46312248151
 30
0.0
 10
-37.42486269813674
 20
-21.52919517917484
 30
0.0
 10
-37.09956282834922
 20
-21.61752891983264
 30
0.0
 10
-36.79895099012897
 20
-21.74051183951647
 30
0.0
 10
-36.51789222549485
 20
-21.88473244892103
 30
0.0
 10
-36.25973406720915
 20
-22.0581193218257
 30
0.0
 10
-36.0230515810844
 20
-22.25627457207506
 30
0.0
 10
-35.80973310690332
 20
-22.48139973962924
 30
0.0
 10
-35.62668012414262
 20
-22.73669810700375
 30
0.0
 10
-35.46981747789787
 20
-23.0167971766248
 30
0.0
 10
-35.34017471381329
 20
-23.32390736085925
 30
0.0
 10
-35.24232989949328
 20
-23.65831541352622
 30
0.0
 10
-35.16846477794692
 20
-24.01827740712313
 30
0.0
 10
-35.12340501888178
 20
-24.40500679145191
 30
0.0
 10
-35.1151312584123
 20
-24.67182585295248
 30
0.0
 10
-35.1108597285154
 20
-24.80957767722473
 30
0.0
  0
SPLINE
  5
146
330
1F
100
AcDbEntity
  8
0
  6
Continuous
 62
     7
370
    15
100
AcDbSpline
210
0.0
220
0.0
230
1.0
 70
     8
 71
     3
 72
    23
 73
    19
 74
     0
 42
0.000000001
 43
0.00000001
 40
0.0
 40
0.0
 40
0.0
 40
0.0
 40
0.0798632737081344
 40
0.1544074096420176
 40
0.2244490517096841
 40
0.2899893817503165
 40
0.3521946064549673
 40
0.4112730281780527
 40
0.4684693848198445
 40
0.52446840997137
 40
0.5799666430694603
 40
0.6352014358487795
 40
0.6912818530251268
 40
0.7484308682131117
 40
0.8073606305473303
 40
0.8685880261463281
 40
0.9325421589770629
 40
1.0
 40
1.0
 40
1.0
 40
1.0
 10
-35.11085972851541
 20
-24.80957767722473
 30
0.0
 10
-35.11565811574764
 20
-24.96806058022646
 30
0.0
 10
-35.1249353029776
 20
-25.27447094119509
 30
0.0
 10
-35.172891321135
 20
-25.71805042445369
 30
0.0
 10
-35.25477425234026
 20
-26.12741073445936
 30
0.0
 10
-35.36005979089378
 20
-26.50624126383761
 30
0.0
 10
-35.50018051191418
 20
-26.85047160840426
 30
0.0
 10
-35.66843090854464
 20
-27.16302293310175
 30
0.0
 10
-35.86678932738133
 20
-27.44289776936199
 30
0.0
 10
-36.09760274409409
 20
-27.68675105342943
 30
0.0
 10
-36.35108214023646
 20
-27.90053396798069
 30
0.0
 10
-36.62700078647711
 20
-28.0847701057838
 30
0.0
 10
-36.92396762978589
 20
-28.23992596379261
 30
0.0
 10
-37.24295154422617
 20
-28.36418992006433
 30
0.0
 10
-37.58202864577957
 20
-28.46027313266875
 30
0.0
 10
-37.941596901674
 20
-28.52799472672995
 30
0.0
 10
-38.32269037340992
 20
-28.5659083187547
 30
0.0
 10
-38.58362553466085
 20
-28.56795427308688
 30
0.0
 10
-38.71757164405085
 20
-28.56900452488687
 30
0.0
  0
SPLINE
  5
147
330
1F
100
AcDbEntity
  8
0
  6
Continuous
 62
     7
370
    15
100
AcDbSpline
210
0.0
220
0.0
230
1.0
 70
     8
 71
     3
 72
    11
 73
     7
 74
     0
 42
0.000000001
 43
0.00000001
 40
0.0
 40
0.0
 40
0.0
 40
0.0
 40
0.2673151238770091
 40
0.5325009082064907
 40
0.7807432507705453
 40
1.0
 40
1.0
 40
1.0
 40
1.0
 10
-38.71757164405085
 20
-28.56900452488687
 30
0.0
 10
-38.79550389552482
 20
-28.56844178359872
 30
0.0
 10
-38.95074761719155
 20
-28.56732078362431
 30
0.0
 10
-39.17829956287708
 20
-28.56453017949873
 30
0.0
 10
-39.39195212690928
 20
-28.55591370958494
 30
0.0
 10
-39.5271091756254
 20
-28.53787289446312
 30
0.0
 10
-39.59049773756517
 20
-28.52941176470587
 30
0.0
  0
SPLINE
  5
149
330
1F
100
AcDbEntity
  8
0
  6
Continuous
 62
     7
370
    15
100
AcDbSpline
210
0.0
220
0.0
230
1.0
 70
     8
 71
     3
 72
    11
 73
     7
 74
     0
 42
0.000000001
 43
0.00000001
 40
0.0
 40
0.0
 40
0.0
 40
0.0
 40
0.1910830289792452
 40
0.4214823246455397
 40
0.6899159109697667
 40
1.0
 40
1.0
 40
1.0
 40
1.0
 10
-39.59049405520281
 20
-21.49221474948152
 30
0.0
 10
-39.52271226200127
 20
-21.48174818447703
 30
0.0
 10
-39.37320224052085
 20
-21.45866150758735
 30
0.0
 10
-39.1263152737496
 20
-21.43864467412019
 30
0.0
 10
-38.83660456918054
 20
-21.42029967877664
 30
0.0
 10
-38.6289987146419
 20
-21.4174434504168
 30
0.0
 10
-38.51772247361345
 20
-21.41591251885369
 30
0.0
  0
SPLINE
  5
14C
330
1F
100
AcDbEntity
  8
0
  6
Continuous
 62
     7
370
    15
100
AcDbSpline
210
0.0
220
0.0
230
1.0
 70
     8
 71
     3
 72
    19
 73
    15
 74
     0
 42
0.000000001
 43
0.00000001
 40
0.0
 40
0.0
 40
0.0
 40
0.0
 40
0.1349185179492764
 40
0.2569497323258032
 40
0.3649378337927039
 40
0.4589737734741591
 40
0.540227289310368
 40
0.6077528222754218
 40
0.6627413802929579
 40
0.704318281968133
 40
0.7717214120537578
 40
0.8393284238212597
 40
0.9127986027281895
 40
1.0
 40
1.0
 40
1.0
 40
1.0
 10
-13.4941176470632
 20
-6.849264705882353
 30
0.0
 10
-13.49280753680794
 20
-7.060670679340509
 30
0.0
 10
-13.49031245692921
 20
-7.463289305143759
 30
0.0
 10
-13.47860704657829
 20
-8.034978438008507
 30
0.0
 10
-13.46529436534133
 20
-8.542662385990852
 30
0.0
 10
-13.43553936573664
 20
-8.985566346719054
 30
0.0
 10
-13.40646860101949
 20
-9.365029359154768
 30
0.0
 10
-13.36160486366564
 20
-9.681387690040424
 30
0.0
 10
-13.31403738952487
 20
-9.934011235150964
 30
0.0
 10
-13.2480107022562
 20
-10.18322691478627
 30
0.0
 10
-13.09964404268028
 20
-10.42457395497512
 30
0.0
 10
-12.83907123058531
 20
-10.63187811731708
 30
0.0
 10
-12.49363895032714
 20
-10.7478678611164
 30
0.0
 10
-12.24134139430837
 20
-10.7587822878655
 30
0.0
 10
-12.10441176471026
 20
-10.76470588235294
 30
0.0
  0
SPLINE
  5
14D
330
1F
100
AcDbEntity
  8
0
  6
Continuous
 62
     7
370
    15
100
AcDbSpline
210
0.0
220
0.0
230
1.0
 70
     8
 71
     3
 72
    19
 73
    15
 74
     0
 42
0.000000001
 43
0.00000001
 40
0.0
 40
0.0
 40
0.0
 40
0.0
 40
0.0856701925581191
 40
0.1595742326477181
 40
0.2270701221241913
 40
0.2998086265698398
 40
0.3441572853781094
 40
0.4013196246805769
 40
0.4691776241481284
 40
0.5501726915198965
 40
0.6445072055918736
 40
0.7499808669443704
 40
0.8688328616982234
 40
1.0
 40
1.0
 40
1.0
 40
1.0
 10
-12.10441176471026
 20
-10.76470588235294
 30
0.0
 10
-11.96329554816836
 20
-10.75841989738362
 30
0.0
 10
-11.70044435924933
 20
-10.74671125989883
 30
0.0
 10
-11.34730219088233
 20
-10.60534302129964
 30
0.0
 10
-11.07836284330116
 20
-10.36872881143375
 30
0.0
 10
-10.93624897127524
 20
-10.09437743749044
 30
0.0
 10
-10.86143044224835
 20
-9.818469685437282
 30
0.0
 10
-10.80781046047925
 20
-9.54571224073907
 30
0.0
 10
-10.76445476934799
 20
-9.210494478652715
 30
0.0
 10
-10.73397903822018
 20
-8.81280471235706
 30
0.0
 10
-10.70714974499484
 20
-8.353149723580156
 30
0.0
 10
-10.68369472388955
 20
-7.831094994253199
 30
0.0
 10
-10.67511208877729
 20
-7.248187133917378
 30
0.0
 10
-10.67214490446393
 20
-6.838234539372039
 30
0.0
 10
-10.6705882352985
 20
-6.623161764705882
 30
0.0
  0
SPLINE
  5
14E
330
1F
100
AcDbEntity
  8
0
  6
Continuous
 62
     7
370
    15
100
AcDbSpline
210
0.0
220
0.0
230
1.0
 70
     8
 71
     3
 72
    19
 73
    15
 74
     0
 42
0.000000001
 43
0.00000001
 40
0.0
 40
0.0
 40
0.0
 40
0.0
 40
0.0805572545074975
 40
0.1550289699329376
 40
0.2252444095022417
 40
0.2981000196901678
 40
0.3400922330405394
 40
0.3942764217413128
 40
0.4601644517157459
 40
0.5402313143947406
 40
0.6343572655745995
 40
0.7416965433287858
 40
0.8635191579485495
 40
1.0
 40
1.0
 40
1.0
 40
1.0
 10
-12.03823529412203
 20
10.76470588235294
 30
0.0
 10
-12.14933674801212
 20
10.76095221541123
 30
0.0
 10
-12.36314671534451
 20
10.75372844490163
 30
0.0
 10
-12.66076243862078
 20
10.65545627708543
 30
0.0
 10
-12.91988654777052
 20
10.50255961183331
 30
0.0
 10
-13.10174788739862
 20
10.31916301064384
 30
0.0
 10
-13.22045747215966
 20
10.11813080006747
 30
0.0
 10
-13.29412365220378
 20
9.906679591360913
 30
0.0
 10
-13.35035156658891
 20
9.637413921843615
 30
0.0
 10
-13.40853851070657
 20
9.312473528717018
 30
0.0
 10
-13.44033211990753
 20
8.926690409509307
 30
0.0
 10
-13.4778017567108
 20
8.484103494243607
 30
0.0
 10
-13.49062297867162
 20
7.981677673166471
 30
0.0
 10
-13.49290950558869
 20
7.626830350350415
 30
0.0
 10
-13.4941176470632
 20
7.439338235294118
 30
0.0
  0
SPLINE
  5
14F
330
1F
100
AcDbEntity
  8
0
  6
Continuous
 62
     7
370
    15
100
AcDbSpline
210
0.0
220
0.0
230
1.0
 70
     8
 71
     3
 72
    19
 73
    15
 74
     0
 42
0.000000001
 43
0.00000001
 40
0.0
 40
0.0
 40
0.0
 40
0.0
 40
0.1243530198388444
 40
0.2379182029834395
 40
0.3394310258876128
 40
0.4288911469776985
 40
0.5078518486976871
 40
0.5751872951062391
 40
0.6309145070656265
 40
0.6753731790132794
 40
0.750735317943174
 40
0.8258911345015826
 40
0.9062620625648709
 40
1.0
 40
1.0
 40
1.0
 40
1.0
 10
-10.6705882352985
 20
7.439338235294118
 30
0.0
 10
-10.67215649119035
 20
7.608454170140692
 30
0.0
 10
-10.67515695409906
 20
7.932014943869423
 30
0.0
 10
-10.6836674140879
 20
8.393656576268336
 30
0.0
 10
-10.70736549374401
 20
8.80722337760638
 30
0.0
 10
-10.7328119146719
 20
9.173488210692849
 30
0.0
 10
-10.76973704721719
 20
9.492215073248918
 30
0.0
 10
-10.81943868000668
 20
9.762593988208286
 30
0.0
 10
-10.87295347228809
 20
9.984267119037707
 30
0.0
 10
-10.94938533516698
 20
10.21080495617997
 30
0.0
 10
-11.09193860938795
 20
10.44104961530924
 30
0.0
 10
-11.34739765865195
 20
10.6342498926371
 30
0.0
 10
-11.67308148225829
 20
10.74620845478755
 30
0.0
 10
-11.91044297106347
 20
10.7582323658172
 30
0.0
 10
-12.03823529412203
 20
10.76470588235294
 30
0.0
  0
LINE
  5
150
330
1F
100
AcDbEntity
  8
0
  6
Continuous
 62
     7
370
    15
100
AcDbLine
 10
-45.1289555937
 20
-29.9924603631
 30
0.0
 11
-45.1289555937
 21
-19.9924603631
 31
0.0
  0
LINE
  5
151
330
1F
100
AcDbEntity
  8
0
  6
Continuous
 62
     7
370
    15
100
AcDbLine
 10
-45.1289555937
 20
-19.9924603631
 30
0.0
 11
-47.4064856712
 21
-19.9924603631
 31
0.0
  0
LINE
  5
152
330
1F
100
AcDbEntity
  8
0
  6
Continuous
 62
     7
370
    15
100
AcDbLine
 10
-47.4064856712
 20
-19.9924603631
 30
0.0
 11
-47.4064856712
 21
-29.9924603631
 31
0.0
  0
LINE
  5
153
330
1F
100
AcDbEntity
  8
0
  6
Continuous
 62
     7
370
    15
100
AcDbLine
 10
-47.4064856712
 20
-29.9924603631
 30
0.0
 11
-45.1289555937
 21
-29.9924603631
 31
0.0
  0
LINE
  5
154
330
1F
100
AcDbEntity
  8
0
  6
Continuous
 62
     7
370
    15
100
AcDbLine
 10
-41.8680241327
 20
-20.0961538462
 30
0.0
 11
-41.8680241327
 21
-29.9749120652
 31
0.0
  0
LINE
  5
155
330
1F
100
AcDbEntity
  8
0
  6
Continuous
 62
     7
370
    15
100
AcDbLine
 10
-1.9087481146
 20
-27.967571644
 30
0.0
 11
-1.9550409331
 21
-27.967571644
 31
0.0
  0
LINE
  5
156
330
1F
100
AcDbEntity
  8
0
  6
Continuous
 62
     7
370
    15
100
AcDbLine
 10
-2.919306184
 20
-24.3947963801
 30
0.0
 11
-4.2723570949
 21
-19.9924603631
 31
0.0
  0
LINE
  5
157
330
1F
100
AcDbEntity
  8
0
  6
Continuous
 62
     7
370
    15
100
AcDbLine
 10
-4.2723570949
 20
-19.9924603631
 30
0.0
 11
-6.7918552036
 21
-19.9924603631
 31
0.0
  0
LINE
  5
158
330
1F
100
AcDbEntity
  8
0
  6
Continuous
 62
     7
370
    15
100
AcDbLine
 10
-6.7918552036
 20
-19.9924603631
 30
0.0
 11
-3.3236571897
 21
-29.9811463047
 31
0.0
  0
LINE
  5
159
330
1F
100
AcDbEntity
  8
0
  6
Continuous
 62
     7
370
    15
100
AcDbLine
 10
-3.3236571897
 20
-29.9811463047
 30
0.0
 11
-0.6952918788
 21
-29.9811463047
 31
0.0
  0
LINE
  5
15A
330
1F
100
AcDbEntity
  8
0
  6
Continuous
 62
     7
370
    15
100
AcDbLine
 10
-0.6952918788
 20
-29.9811463047
 30
0.0
 11
2.9442004266
 21
-19.9924603631
 31
0.0
  0
LINE
  5
15B
330
1F
100
AcDbEntity
  8
0
  6
Continuous
 62
     7
370
    15
100
AcDbLine
 10
2.9442004266
 20
-19.9924603631
 30
0.0
 11
0.4711424308
 21
-19.9924603631
 31
0.0
  0
LINE
  5
15C
330
1F
100
AcDbEntity
  8
0
  6
Continuous
 62
     7
370
    15
100
AcDbLine
 10
0.4711424308
 20
-19.9924603631
 30
0.0
 11
-0.9130262832
 21
-24.4136316636
 31
0.0
  0
LINE
  5
15D
330
1F
100
AcDbEntity
  8
0
  6
Continuous
 62
     7
370
    15
100
AcDbLine
 10
7.6719862073
 20
-28.4389140271
 30
0.0
 11
7.6719862073
 21
-28.4126992895
 31
0.0
  0
LINE
  5
15E
330
1F
100
AcDbEntity
  8
0
  6
Continuous
 62
     7
370
    15
100
AcDbLine
 10
7.6719862073
 20
-28.4126992895
 30
0.0
 11
8.6508630721
 21
-27.6000424208
 31
0.0
  0
LINE
  5
15F
330
1F
100
AcDbEntity
  8
0
  6
Continuous
 62
     7
370
    15
100
AcDbLine
 10
4.8118401207
 20
-20.8804675716
 30
0.0
 11
5.4500911016
 21
-22.2653432993
 31
0.0
  0
LINE
  5
160
330
1F
100
AcDbEntity
  8
0
  6
Continuous
 62
     7
370
    15
100
AcDbLine
 10
5.9468325792
 20
-27.6791101056
 30
0.0
 11
4.642129245
 21
-28.8430827559
 31
0.0
  0
LINE
  5
161
330
1F
100
AcDbEntity
  8
0
  6
Continuous
 62
     7
370
    15
100
AcDbLine
 10
4.642129245
 20
-28.8430827559
 30
0.0
 11
4.642129245
 21
-29.9924585219
 31
0.0
  0
LINE
  5
162
330
1F
100
AcDbEntity
  8
0
  6
Continuous
 62
     7
370
    15
100
AcDbLine
 10
4.642129245
 20
-29.9924585219
 30
0.0
 11
11.9694190852
 21
-29.9924585219
 31
0.0
  0
LINE
  5
163
330
1F
100
AcDbEntity
  8
0
  6
Continuous
 62
     7
370
    15
100
AcDbLine
 10
11.9694190852
 20
-29.9924585219
 30
0.0
 11
11.9694190852
 21
-28.4389140271
 31
0.0
  0
LINE
  5
164
330
1F
100
AcDbEntity
  8
0
  6
Continuous
 62
     7
370
    15
100
AcDbLine
 10
11.9694190852
 20
-28.4389140271
 30
0.0
 11
7.6719862073
 21
-28.4389140271
 31
0.0
  0
LINE
  5
165
330
1F
100
AcDbEntity
  8
0
  6
Continuous
 62
     7
370
    15
100
AcDbLine
 10
-22.6705882353
 20
-2.5808823529
 30
0.0
 11
-22.6705882353
 21
2.5808823529
 31
0.0
  0
LINE
  5
166
330
1F
100
AcDbEntity
  8
0
  6
Continuous
 62
     7
370
    15
100
AcDbLine
 10
-1.4941176471
 20
2.5808823529
 30
0.0
 11
-1.4941176471
 21
-2.5808823529
 31
0.0
  0
LINE
  5
167
330
1F
100
AcDbEntity
  8
0
  6
Continuous
 62
     7
370
    15
100
AcDbLine
 10
-55.5647058824
 20
4.4117647059
 30
0.0
 11
-52.3882352941
 21
4.4117647059
 31
0.0
  0
LINE
  5
168
330
1F
100
AcDbEntity
  8
0
  6
Continuous
 62
     7
370
    15
100
AcDbLine
 10
-55.5647058824
 20
15.0
 30
0.0
 11
-55.5647058824
 21
4.4117647059
 31
0.0
  0
LINE
  5
169
330
1F
100
AcDbEntity
  8
0
  6
Continuous
 62
     7
370
    15
100
AcDbLine
 10
-64.7411764706
 20
15.0
 30
0.0
 11
-55.5647058824
 21
15.0
 31
0.0
  0
LINE
  5
16A
330
1F
100
AcDbEntity
  8
0
  6
Continuous
 62
     7
370
    15
100
AcDbLine
 10
-64.7411764706
 20
-15.0
 30
0.0
 11
-64.7411764706
 21
15.0
 31
0.0
  0
LINE
  5
16B
330
1F
100
AcDbEntity
  8
0
  6
Continuous
 62
     7
370
    15
100
AcDbLine
 10
-55.5647058824
 20
-15.0
 30
0.0
 11
-64.7411764706
 21
-15.0
 31
0.0
  0
LINE
  5
16C
330
1F
100
AcDbEntity
  8
0
  6
Continuous
 62
     7
370
    15
100
AcDbLine
 10
-55.5647058824
 20
-2.2941176471
 30
0.0
 11
-55.5647058824
 21
-15.0
 31
0.0
  0
LINE
  5
16D
330
1F
100
AcDbEntity
  8
0
  6
Continuous
 62
     7
370
    15
100
AcDbLine
 10
-52.3882352941
 20
-2.2941176471
 30
0.0
 11
-55.5647058824
 21
-2.2941176471
 31
0.0
  0
LINE
  5
16E
330
1F
100
AcDbEntity
  8
0
  6
Continuous
 62
     7
370
    15
100
AcDbLine
 10
-52.3882352941
 20
-15.0
 30
0.0
 11
-52.3882352941
 21
-2.2941176471
 31
0.0
  0
LINE
  5
16F
330
1F
100
AcDbEntity
  8
0
  6
Continuous
 62
     7
370
    15
100
AcDbLine
 10
-43.2117647059
 20
-15.0
 30
0.0
 11
-52.3882352941
 21
-15.0
 31
0.0
  0
LINE
  5
170
330
1F
100
AcDbEntity
  8
0
  6
Continuous
 62
     7
370
    15
100
AcDbLine
 10
-43.2117647059
 20
15.0
 30
0.0
 11
-43.2117647059
 21
-15.0
 31
0.0
  0
LINE
  5
171
330
1F
100
AcDbEntity
  8
0
  6
Continuous
 62
     7
370
    15
100
AcDbLine
 10
-52.3882352941
 20
15.0
 30
0.0
 11
-43.2117647059
 21
15.0
 31
0.0
  0
LINE
  5
172
330
1F
100
AcDbEntity
  8
0
  6
Continuous
 62
     7
370
    15
100
AcDbLine
 10
-52.3882352941
 20
4.4117647059
 30
0.0
 11
-52.3882352941
 21
15.0
 31
0.0
  0
LINE
  5
173
330
1F
100
AcDbEntity
  8
0
  6
Continuous
 62
     7
370
    15
100
AcDbLine
 10
-105.4882352941
 20
-15.0
 30
0.0
 11
-114.7529411765
 21
-15.0
 31
0.0
  0
LINE
  5
174
330
1F
100
AcDbEntity
  8
0
  6
Continuous
 62
     7
370
    15
100
AcDbLine
 10
-104.9533088235
 20
-9.7058823529
 30
0.0
 11
-105.4882352941
 21
-15.0
 31
0.0
  0
LINE
  5
175
330
1F
100
AcDbEntity
  8
0
  6
Continuous
 62
     7
370
    15
100
AcDbLine
 10
-101.2584558824
 20
-9.7058823529
 30
0.0
 11
-104.9533088235
 21
-9.7058823529
 31
0.0
  0
LINE
  5
176
330
1F
100
AcDbEntity
  8
0
  6
Continuous
 62
     7
370
    15
100
AcDbLine
 10
-100.7235294118
 20
-15.0
 30
0.0
 11
-101.2584558824
 21
-9.7058823529
 31
0.0
  0
LINE
  5
177
330
1F
100
AcDbEntity
  8
0
  6
Continuous
 62
     7
370
    15
100
AcDbLine
 10
-91.4588235294
 20
-15.0
 30
0.0
 11
-100.7235294118
 21
-15.0
 31
0.0
  0
LINE
  5
178
330
1F
100
AcDbEntity
  8
0
  6
Continuous
 62
     7
370
    15
100
AcDbLine
 10
-97.0176470588
 20
15.0
 30
0.0
 11
-91.4588235294
 21
-15.0
 31
0.0
  0
LINE
  5
179
330
1F
100
AcDbEntity
  8
0
  6
Continuous
 62
     7
370
    15
100
AcDbLine
 10
-109.9
 20
15.0
 30
0.0
 11
-97.0176470588
 21
15.0
 31
0.0
  0
LINE
  5
17A
330
1F
100
AcDbEntity
  8
0
  6
Continuous
 62
     7
370
    15
100
AcDbLine
 10
-114.7529411765
 20
-15.0
 30
0.0
 11
-109.9
 21
15.0
 31
0.0
  0
LINE
  5
17B
330
1F
100
AcDbEntity
  8
0
  6
Continuous
 62
     7
370
    15
100
AcDbLine
 10
-153.1176470588
 20
-4.0588235294
 30
0.0
 11
-153.1176470588
 21
-7.9466911765
 31
0.0
  0
LINE
  5
17C
330
1F
100
AcDbEntity
  8
0
  6
Continuous
 62
     7
370
    15
100
AcDbLine
 10
-161.5882352941
 20
-4.0588235294
 30
0.0
 11
-153.1176470588
 21
-4.0588235294
 31
0.0
  0
LINE
  5
17D
330
1F
100
AcDbEntity
  8
0
  6
Continuous
 62
     7
370
    15
100
AcDbLine
 10
-161.5882352941
 20
-6.0716911765
 30
0.0
 11
-161.5882352941
 21
-4.0588235294
 31
0.0
  0
LINE
  5
17E
330
1F
100
AcDbEntity
  8
0
  6
Continuous
 62
     7
370
    15
100
AcDbLine
 10
-149.9411764706
 20
5.8235294118
 30
0.0
 11
-149.9411764706
 21
8.1948529412
 31
0.0
  0
LINE
  5
17F
330
1F
100
AcDbEntity
  8
0
  6
Continuous
 62
     7
370
    15
100
AcDbLine
 10
-141.4705882353
 20
5.8235294118
 30
0.0
 11
-149.9411764706
 21
5.8235294118
 31
0.0
  0
LINE
  5
180
330
1F
100
AcDbEntity
  8
0
  6
Continuous
 62
     7
370
    15
100
AcDbLine
 10
-141.4705882353
 20
7.03125
 30
0.0
 11
-141.4705882353
 21
5.8235294118
 31
0.0
  0
LINE
  5
181
330
1F
100
AcDbEntity
  8
0
  6
Continuous
 62
     7
370
    15
100
AcDbLine
 10
-192.7176470588
 20
-9.0
 30
0.0
 11
-192.7176470588
 21
-15.0
 31
0.0
  0
LINE
  5
182
330
1F
100
AcDbEntity
  8
0
  6
Continuous
 62
     7
370
    15
100
AcDbLine
 10
-199.7764705882
 20
-9.0
 30
0.0
 11
-192.7176470588
 21
-9.0
 31
0.0
  0
LINE
  5
183
330
1F
100
AcDbEntity
  8
0
  6
Continuous
 62
     7
370
    15
100
AcDbLine
 10
-199.7764705882
 20
-2.2941176471
 30
0.0
 11
-199.7764705882
 21
-9.0
 31
0.0
  0
LINE
  5
184
330
1F
100
AcDbEntity
  8
0
  6
Continuous
 62
     7
370
    15
100
AcDbLine
 10
-193.7764705882
 20
-2.2941176471
 30
0.0
 11
-199.7764705882
 21
-2.2941176471
 31
0.0
  0
LINE
  5
185
330
1F
100
AcDbEntity
  8
0
  6
Continuous
 62
     7
370
    15
100
AcDbLine
 10
-193.7764705882
 20
3.3529411765
 30
0.0
 11
-193.7764705882
 21
-2.2941176471
 31
0.0
  0
LINE
  5
186
330
1F
100
AcDbEntity
  8
0
  6
Continuous
 62
     7
370
    15
100
AcDbLine
 10
-199.7764705882
 20
3.3529411765
 30
0.0
 11
-193.7764705882
 21
3.3529411765
 31
0.0
  0
LINE
  5
187
330
1F
100
AcDbEntity
  8
0
  6
Continuous
 62
     7
370
    15
100
AcDbLine
 10
-199.7764705882
 20
9.0
 30
0.0
 11
-199.7764705882
 21
3.3529411765
 31
0.0
  0
LINE
  5
188
330
1F
100
AcDbEntity
  8
0
  6
Continuous
 62
     7
370
    15
100
AcDbLine
 10
-193.4235294118
 20
9.0
 30
0.0
 11
-199.7764705882
 21
9.0
 31
0.0
  0
LINE
  5
189
330
1F
100
AcDbEntity
  8
0
  6
Continuous
 62
     7
370
    15
100
AcDbLine
 10
-193.4235294118
 20
15.0
 30
0.0
 11
-193.4235294118
 21
9.0
 31
0.0
  0
LINE
  5
18A
330
1F
100
AcDbEntity
  8
0
  6
Continuous
 62
     7
370
    15
100
AcDbLine
 10
-208.9529411765
 20
15.0
 30
0.0
 11
-193.4235294118
 21
15.0
 31
0.0
  0
LINE
  5
18B
330
1F
100
AcDbEntity
  8
0
  6
Continuous
 62
     7
370
    15
100
AcDbLine
 10
-208.9529411765
 20
-15.0
 30
0.0
 11
-208.9529411765
 21
15.0
 31
0.0
  0
LINE
  5
18C
330
1F
100
AcDbEntity
  8
0
  6
Continuous
 62
     7
370
    15
100
AcDbLine
 10
-192.7176470588
 20
-15.0
 30
0.0
 11
-208.9529411765
 21
-15.0
 31
0.0
  0
LINE
  5
18D
330
1F
100
AcDbEntity
  8
0
  6
Continuous
 62
     7
370
    15
100
AcDbLine
 10
47.5
 20
-45.0
 30
0.0
 11
-232.5
 21
-45.0
 31
0.0
  0
LINE
  5
18E
330
1F
100
AcDbEntity
  8
0
  6
Continuous
 62
     7
370
    15
100
AcDbLine
 10
-232.5
 20
-45.0
 30
0.0
 11
-232.5
 21
45.0
 31
0.0
  0
LINE
  5
18F
330
1F
100
AcDbEntity
  8
0
  6
Continuous
 62
     7
370
    15
100
AcDbLine
 10
-232.5
 20
45.0
 30
0.0
 11
47.5
 21
45.0
 31
0.0
  0
LINE
  5
190
330
1F
100
AcDbEntity
  8
0
  6
Continuous
 62
     7
370
    15
100
AcDbLine
 10
47.5
 20
45.0
 30
0.0
 11
47.5
 21
-45.0
 31
0.0
  0
LINE
  5
191
330
1F
100
AcDbEntity
  8
0
  6
Continuous
 62
     7
370
    15
100
AcDbLine
 10
-178.9176470588
 20
15.0
 30
0.0
 11
-178.9176470588
 21
-7.6819852941
 31
0.0
  0
LINE
  5
192
330
1F
100
AcDbEntity
  8
0
  6
Continuous
 62
     7
370
    15
100
AcDbLine
 10
-188.0941176471
 20
15.0
 30
0.0
 11
-178.9176470588
 21
15.0
 31
0.0
  0
LINE
  5
193
330
1F
100
AcDbEntity
  8
0
  6
Continuous
 62
     7
370
    15
100
AcDbLine
 10
-188.0941176471
 20
-2.7959558824
 30
0.0
 11
-188.0941176471
 21
15.0
 31
0.0
  0
LINE
  5
194
330
1F
100
AcDbEntity
  8
0
  6
Continuous
 62
     7
370
    15
100
AcDbLine
 10
-167.2705882353
 20
15.0
 30
0.0
 11
-167.2705882353
 21
-5.1011029412
 31
0.0
  0
LINE
  5
195
330
1F
100
AcDbEntity
  8
0
  6
Continuous
 62
     7
370
    15
100
AcDbLine
 10
-176.4470588235
 20
15.0
 30
0.0
 11
-167.2705882353
 21
15.0
 31
0.0
  0
LINE
  5
196
330
1F
100
AcDbEntity
  8
0
  6
Continuous
 62
     7
370
    15
100
AcDbLine
 10
-176.4470588235
 20
-7.2904411765
 30
0.0
 11
-176.4470588235
 21
15.0
 31
0.0
  0
LINE
  5
197
330
1F
100
AcDbEntity
  8
0
  6
Continuous
 62
     7
370
    15
100
AcDbLine
 10
-131.9058823529
 20
9.0
 30
0.0
 11
-137.2
 21
9.0
 31
0.0
  0
LINE
  5
198
330
1F
100
AcDbEntity
  8
0
  6
Continuous
 62
     7
370
    15
100
AcDbLine
 10
-131.9058823529
 20
-15.0
 30
0.0
 11
-131.9058823529
 21
9.0
 31
0.0
  0
LINE
  5
199
330
1F
100
AcDbEntity
  8
0
  6
Continuous
 62
     7
370
    15
100
AcDbLine
 10
-122.7294117647
 20
-15.0
 30
0.0
 11
-131.9058823529
 21
-15.0
 31
0.0
  0
LINE
  5
19A
330
1F
100
AcDbEntity
  8
0
  6
Continuous
 62
     7
370
    15
100
AcDbLine
 10
-122.7294117647
 20
9.0
 30
0.0
 11
-122.7294117647
 21
-15.0
 31
0.0
  0
LINE
  5
19B
330
1F
100
AcDbEntity
  8
0
  6
Continuous
 62
     7
370
    15
100
AcDbLine
 10
-117.0823529412
 20
9.0
 30
0.0
 11
-122.7294117647
 21
9.0
 31
0.0
  0
LINE
  5
19C
330
1F
100
AcDbEntity
  8
0
  6
Continuous
 62
     7
370
    15
100
AcDbLine
 10
-117.0823529412
 20
15.0
 30
0.0
 11
-117.0823529412
 21
9.0
 31
0.0
  0
LINE
  5
19D
330
1F
100
AcDbEntity
  8
0
  6
Continuous
 62
     7
370
    15
100
AcDbLine
 10
-137.2
 20
15.0
 30
0.0
 11
-117.0823529412
 21
15.0
 31
0.0
  0
LINE
  5
19E
330
1F
100
AcDbEntity
  8
0
  6
Continuous
 62
     7
370
    15
100
AcDbLine
 10
-137.2
 20
9.0
 30
0.0
 11
-137.2
 21
15.0
 31
0.0
  0
LINE
  5
19F
330
1F
100
AcDbEntity
  8
0
  6
Continuous
 62
     7
370
    15
100
AcDbLine
 10
-83.8352941177
 20
9.0
 30
0.0
 11
-89.1294117647
 21
9.0
 31
0.0
  0
LINE
  5
1A0
330
1F
100
AcDbEntity
  8
0
  6
Continuous
 62
     7
370
    15
100
AcDbLine
 10
-83.8352941177
 20
-15.0
 30
0.0
 11
-83.8352941177
 21
9.0
 31
0.0
  0
LINE
  5
1A1
330
1F
100
AcDbEntity
  8
0
  6
Continuous
 62
     7
370
    15
100
AcDbLine
 10
-74.6588235294
 20
-15.0
 30
0.0
 11
-83.8352941177
 21
-15.0
 31
0.0
  0
LINE
  5
1A2
330
1F
100
AcDbEntity
  8
0
  6
Continuous
 62
     7
370
    15
100
AcDbLine
 10
-74.6588235294
 20
9.0
 30
0.0
 11
-74.6588235294
 21
-15.0
 31
0.0
  0
LINE
  5
1A3
330
1F
100
AcDbEntity
  8
0
  6
Continuous
 62
     7
370
    15
100
AcDbLine
 10
-69.0117647059
 20
9.0
 30
0.0
 11
-74.6588235294
 21
9.0
 31
0.0
  0
LINE
  5
1A4
330
1F
100
AcDbEntity
  8
0
  6
Continuous
 62
     7
370
    15
100
AcDbLine
 10
-69.0117647059
 20
15.0
 30
0.0
 11
-69.0117647059
 21
9.0
 31
0.0
  0
LINE
  5
1A5
330
1F
100
AcDbEntity
  8
0
  6
Continuous
 62
     7
370
    15
100
AcDbLine
 10
-89.1294117647
 20
15.0
 30
0.0
 11
-69.0117647059
 21
15.0
 31
0.0
  0
LINE
  5
1A6
330
1F
100
AcDbEntity
  8
0
  6
Continuous
 62
     7
370
    15
100
AcDbLine
 10
-89.1294117647
 20
9.0
 30
0.0
 11
-89.1294117647
 21
15.0
 31
0.0
  0
LINE
  5
1A7
330
1F
100
AcDbEntity
  8
0
  6
Continuous
 62
     7
370
    15
100
AcDbLine
 10
-28.3529411765
 20
-15.0
 30
0.0
 11
-37.5294117647
 21
-15.0
 31
0.0
  0
LINE
  5
1A8
330
1F
100
AcDbEntity
  8
0
  6
Continuous
 62
     7
370
    15
100
AcDbLine
 10
-28.3529411765
 20
15.0
 30
0.0
 11
-28.3529411765
 21
-15.0
 31
0.0
  0
LINE
  5
1A9
330
1F
100
AcDbEntity
  8
0
  6
Continuous
 62
     7
370
    15
100
AcDbLine
 10
-37.5294117647
 20
15.0
 30
0.0
 11
-28.3529411765
 21
15.0
 31
0.0
  0
LINE
  5
1AA
330
1F
100
AcDbEntity
  8
0
  6
Continuous
 62
     7
370
    15
100
AcDbLine
 10
-37.5294117647
 20
-15.0
 30
0.0
 11
-37.5294117647
 21
15.0
 31
0.0
  0
LINE
  5
1AB
330
1F
100
AcDbEntity
  8
0
  6
Continuous
 62
     7
370
    15
100
AcDbLine
 10
12.3058823529
 20
-4.0588235294
 30
0.0
 11
12.3058823529
 21
-7.9466911765
 31
0.0
  0
LINE
  5
1AC
330
1F
100
AcDbEntity
  8
0
  6
Continuous
 62
     7
370
    15
100
AcDbLine
 10
3.8352941176
 20
-4.0588235294
 30
0.0
 11
12.3058823529
 21
-4.0588235294
 31
0.0
  0
LINE
  5
1AD
330
1F
100
AcDbEntity
  8
0
  6
Continuous
 62
     7
370
    15
100
AcDbLine
 10
3.8352941176
 20
-6.0716911765
 30
0.0
 11
3.8352941176
 21
-4.0588235294
 31
0.0
  0
LINE
  5
1AE
330
1F
100
AcDbEntity
  8
0
  6
Continuous
 62
     7
370
    15
100
AcDbLine
 10
15.4823529412
 20
5.8235294118
 30
0.0
 11
15.4823529412
 21
8.1948529412
 31
0.0
  0
LINE
  5
1AF
330
1F
100
AcDbEntity
  8
0
  6
Continuous
 62
     7
370
    15
100
AcDbLine
 10
23.9529411765
 20
5.8235294118
 30
0.0
 11
15.4823529412
 21
5.8235294118
 31
0.0
  0
LINE
  5
1B0
330
1F
100
AcDbEntity
  8
0
  6
Continuous
 62
     7
370
    15
100
AcDbLine
 10
23.9529411765
 20
7.03125
 30
0.0
 11
23.9529411765
 21
5.8235294118
 31
0.0
  0
LINE
  5
1B1
330
1F
100
AcDbEntity
  8
0
  6
Continuous
 62
     7
370
    15
100
AcDbLine
 10
-20.5346907994
 20
-29.9924603631
 30
0.0
 11
-18.2571607219
 21
-29.9924603631
 31
0.0
  0
LINE
  5
1B2
330
1F
100
AcDbEntity
  8
0
  6
Continuous
 62
     7
370
    15
100
AcDbLine
 10
-18.2571607219
 20
-29.9924603631
 30
0.0
 11
-18.2571607219
 21
-25.8898962605
 31
0.0
  0
LINE
  5
1B3
330
1F
100
AcDbEntity
  8
0
  6
Continuous
 62
     7
370
    15
100
AcDbLine
 10
-18.2571607219
 20
-25.8898962605
 30
0.0
 11
-17.4837725655
 21
-25.8898962605
 31
0.0
  0
LINE
  5
1B4
330
1F
100
AcDbEntity
  8
0
  6
Continuous
 62
     7
370
    15
100
AcDbLine
 10
-14.8729260935
 20
-29.9943438914
 30
0.0
 11
-12.528439621
 21
-29.9924603631
 31
0.0
  0
LINE
  5
1B5
330
1F
100
AcDbEntity
  8
0
  6
Continuous
 62
     7
370
    15
100
AcDbLine
 10
-14.9803921569
 20
-25.2262443439
 30
0.0
 11
-14.9792690363
 21
-25.1864729891
 31
0.0
  0
LINE
  5
1B6
330
1F
100
AcDbEntity
  8
0
  6
Continuous
 62
     7
370
    15
100
AcDbLine
 10
-20.5346907994
 20
-20.0754147813
 30
0.0
 11
-20.5346907994
 21
-29.9924603631
 31
0.0
  0
LINE
  5
1B7
330
1F
100
AcDbEntity
  8
0
  6
Continuous
 62
     7
370
    15
100
AcDbLine
 10
-27.6568590627
 20
-28.4389140271
 30
0.0
 11
-27.6568590627
 21
-25.5279053103
 31
0.0
  0
LINE
  5
1B8
330
1F
100
AcDbEntity
  8
0
  6
Continuous
 62
     7
370
    15
100
AcDbLine
 10
-27.6568590627
 20
-25.5279053103
 30
0.0
 11
-23.7568893318
 21
-25.5279053103
 31
0.0
  0
LINE
  5
1B9
330
1F
100
AcDbEntity
  8
0
  6
Continuous
 62
     7
370
    15
100
AcDbLine
 10
-23.7568893318
 20
-25.5279053103
 30
0.0
 11
-23.7568893318
 21
-23.9743608155
 31
0.0
  0
LINE
  5
1BA
330
1F
100
AcDbEntity
  8
0
  6
Continuous
 62
     7
370
    15
100
AcDbLine
 10
-23.7568893318
 20
-23.9743608155
 30
0.0
 11
-27.6568590627
 21
-23.9743608155
 31
0.0
  0
LINE
  5
1BB
330
1F
100
AcDbEntity
  8
0
  6
Continuous
 62
     7
370
    15
100
AcDbLine
 10
-27.6568590627
 20
-23.9743608155
 30
0.0
 11
-27.6568590627
 21
-21.546006699
 31
0.0
  0
LINE
  5
1BC
330
1F
100
AcDbEntity
  8
0
  6
Continuous
 62
     7
370
    15
100
AcDbLine
 10
-27.6568590627
 20
-21.546006699
 30
0.0
 11
-23.5238234116
 21
-21.546006699
 31
0.0
  0
LINE
  5
1BD
330
1F
100
AcDbEntity
  8
0
  6
Continuous
 62
     7
370
    15
100
AcDbLine
 10
-23.5238234116
 20
-21.546006699
 30
0.0
 11
-23.5238234116
 21
-19.9924603631
 31
0.0
  0
LINE
  5
1BE
330
1F
100
AcDbEntity
  8
0
  6
Continuous
 62
     7
370
    15
100
AcDbLine
 10
-23.5238234116
 20
-19.9924603631
 30
0.0
 11
-29.9343891403
 21
-19.9924603631
 31
0.0
  0
LINE
  5
1BF
330
1F
100
AcDbEntity
  8
0
  6
Continuous
 62
     7
370
    15
100
AcDbLine
 10
-29.9343891403
 20
-19.9924603631
 30
0.0
 11
-29.9343891403
 21
-29.9924585219
 31
0.0
  0
LINE
  5
1C0
330
1F
100
AcDbEntity
  8
0
  6
Continuous
 62
     7
370
    15
100
AcDbLine
 10
-29.9343891403
 20
-29.9924585219
 30
0.0
 11
-23.2752197634
 21
-29.9924585219
 31
0.0
  0
LINE
  5
1C1
330
1F
100
AcDbEntity
  8
0
  6
Continuous
 62
     7
370
    15
100
AcDbLine
 10
-23.2752197634
 20
-29.9924585219
 30
0.0
 11
-23.2752197634
 21
-28.4389140271
 31
0.0
  0
LINE
  5
1C2
330
1F
100
AcDbEntity
  8
0
  6
Continuous
 62
     7
370
    15
100
AcDbLine
 10
-23.2752197634
 20
-28.4389140271
 30
0.0
 11
-27.6568590627
 21
-28.4389140271
 31
0.0
  0
LINE
  5
1C3
330
1F
100
AcDbEntity
  8
0
  6
Continuous
 62
     7
370
    15
100
AcDbLine
 10
-55.3732994851
 20
-29.9924603631
 30
0.0
 11
-55.3732994851
 21
-26.3084482967
 31
0.0
  0
LINE
  5
1C4
330
1F
100
AcDbEntity
  8
0
  6
Continuous
 62
     7
370
    15
100
AcDbLine
 10
-57.6508295626
 20
-20.0716440422
 30
0.0
 11
-57.6508295626
 21
-29.9924603631
 31
0.0
  0
LINE
  5
1C5
330
1F
100
AcDbEntity
  8
0
  6
Continuous
 62
     7
370
    15
100
AcDbLine
 10
-57.6508295626
 20
-29.9924603631
 30
0.0
 11
-55.3732994851
 21
-29.9924603631
 31
0.0
  0
LINE
  5
1C6
330
1F
100
AcDbEntity
  8
0
  6
Continuous
 62
     7
370
    15
100
AcDbLine
 10
-61.3472850679
 20
-21.858974359
 30
0.0
 11
-60.8723744756
 21
-20.3138587917
 31
0.0
  0
LINE
  5
1C7
330
1F
100
AcDbEntity
  8
0
  6
Continuous
 62
     7
370
    15
100
AcDbLine
 10
-67.2428355958
 20
-27.995852187
 30
0.0
 11
-67.6885597839
 21
-29.5743649398
 31
0.0
  0
LINE
  5
1C8
330
1F
100
AcDbEntity
  8
0
  6
Continuous
 62
     7
370
    15
100
AcDbLine
 10
-17.314479638
 20
-24.4588989442
 30
0.0
 11
-18.2571607219
 21
-24.4570154158
 31
0.0
  0
LINE
  5
1C9
330
1F
100
AcDbEntity
  8
0
  6
Continuous
 62
     7
370
    15
100
AcDbLine
 10
-18.2571607219
 20
-24.4570154158
 30
0.0
 11
-18.2571607219
 21
-21.3834285592
 31
0.0
  0
LINE
  5
1CA
330
1F
100
AcDbEntity
  8
0
  6
Continuous
 62
     7
370
    15
100
AcDbLine
 10
-104.8650735294
 20
-4.4117647059
 30
0.0
 11
-101.6996323529
 21
-4.4117647059
 31
0.0
  0
LINE
  5
1CB
330
1F
100
AcDbEntity
  8
0
  6
Continuous
 62
     7
370
    15
100
AcDbLine
 10
-55.3733031674
 20
-24.7775263952
 30
0.0
 11
-55.3732994851
 21
-21.3860006893
 31
0.0
  0
LINE
  5
1CC
330
1F
100
AcDbEntity
  8
0
  6
Continuous
 62
     7
370
    15
100
AcDbLine
 10
-39.5904977376
 20
-28.5294117647
 30
0.0
 11
-39.5904940552
 21
-21.4922147495
 31
0.0
  0
LINE
  5
1CD
330
1F
100
AcDbEntity
  8
0
  6
Continuous
 62
     7
370
    15
100
AcDbLine
 10
-13.4941176471
 20
7.4393382353
 30
0.0
 11
-13.4941176471
 21
-6.8492647059
 31
0.0
  0
LINE
  5
1CE
330
1F
100
AcDbEntity
  8
0
  6
Continuous
 62
     7
370
    15
100
AcDbLine
 10
-10.6705882353
 20
-6.6231617647
 30
0.0
 11
-10.6705882353
 21
7.4393382353
 31
0.0
  0
ENDSEC
  0
SECTION
  2
OBJECTS
  0
DICTIONARY
  5
C
330
0
100
AcDbDictionary
281
     1
  3
ACAD_GROUP
350
D
  3
ACAD_LAYOUT
350
1A
  3
ACAD_MLINESTYLE
350
17
  3
ACAD_PLOTSETTINGS
350
19
  3
ACAD_PLOTSTYLENAME
350
E
  3
ACAD_SCALELIST
350
47
  0
DICTIONARY
  5
D
102
{ACAD_REACTORS
330
C
102
}
330
C
100
AcDbDictionary
281
     1
  0
DICTIONARY
  5
1A
102
{ACAD_REACTORS
330
C
102
}
330
C
100
AcDbDictionary
281
     1
  3
Layout1
350
1E
  3
Layout2
350
26
  3
Model
350
22
  0
DICTIONARY
  5
17
102
{ACAD_REACTORS
330
C
102
}
330
C
100
AcDbDictionary
281
     1
  3
Standard
350
18
  0
DICTIONARY
  5
19
102
{ACAD_REACTORS
330
C
102
}
330
C
100
AcDbDictionary
281
     1
  0
ACDBDICTIONARYWDFLT
  5
E
102
{ACAD_REACTORS
330
C
102
}
330
C
100
AcDbDictionary
281
     1
  3
Normal
350
F
100
AcDbDictionaryWithDefault
340
F
  0
DICTIONARY
  5
47
102
{ACAD_REACTORS
330
C
102
}
330
C
100
AcDbDictionary
281
     1
  3
A0
350
48
  3
A1
350
49
  3
A2
350
4A
  3
A3
350
4B
  3
A4
350
4C
  3
A5
350
4D
  3
A6
350
4E
  3
A7
350
4F
  3
A8
350
50
  3
A9
350
51
  3
B0
350
52
  3
B1
350
53
  3
B2
350
54
  3
B3
350
55
  3
B4
350
56
  3
B5
350
57
  3
B6
350
58
  3
B7
350
59
  3
B8
350
5A
  3
B9
350
5B
  3
C0
350
5C
  3
C1
350
5D
  3
C2
350
5E
  3
C3
350
5F
  3
C4
350
60
  3
C5
350
61
  3
C6
350
62
  3
C7
350
63
  3
C8
350
64
  3
C9
350
65
  3
D0
350
66
  3
D1
350
67
  3
D2
350
68
  0
LAYOUT
  5
1E
102
{ACAD_REACTORS
330
1A
102
}
330
1A
100
AcDbPlotSettings
  1

  2
none_device
  4

  6

 40
0.0
 41
0.0
 42
0.0
 43
0.0
 44
0.0
 45
0.0
 46
0.0
 47
0.0
 48
0.0
 49
0.0
140
0.0
141
0.0
142
1.0
143
1.0
 70
   688
 72
     1
 73
     0
 74
     5
  7

 75
    16
147
1.0
148
0.0
149
0.0
100
AcDbLayout
  1
Layout1
 70
     1
 71
     1
 10
0.0
 20
0.0
 11
420.0
 21
297.0
 12
0.0
 22
0.0
 32
0.0
 14
1.0000000000E+20
 24
1.0000000000E+20
 34
1.0000000000E+20
 15
-1.0000000000E+20
 25
-1.0000000000E+20
 35
-1.0000000000E+20
146
0.0
 13
0.0
 23
0.0
 33
0.0
 16
1.0
 26
0.0
 36
0.0
 17
0.0
 27
1.0
 37
0.0
 76
     0
330
1B
  0
LAYOUT
  5
26
102
{ACAD_REACTORS
330
1A
102
}
330
1A
100
AcDbPlotSettings
  1

  2
none_device
  4

  6

 40
0.0
 41
0.0
 42
0.0
 43
0.0
 44
0.0
 45
0.0
 46
0.0
 47
0.0
 48
0.0
 49
0.0
140
0.0
141
0.0
142
1.0
143
1.0
 70
   688
 72
     1
 73
     0
 74
     5
  7

 75
    16
147
1.0
148
0.0
149
0.0
100
AcDbLayout
  1
Layout2
 70
     1
 71
     2
 10
0.0
 20
0.0
 11
0.0
 21
0.0
 12
0.0
 22
0.0
 32
0.0
 14
0.0
 24
0.0
 34
0.0
 15
0.0
 25
0.0
 35
0.0
146
0.0
 13
0.0
 23
0.0
 33
0.0
 16
1.0
 26
0.0
 36
0.0
 17
0.0
 27
1.0
 37
0.0
 76
     0
330
23
  0
LAYOUT
  5
22
102
{ACAD_REACTORS
330
1A
102
}
330
1A
100
AcDbPlotSettings
  1

  2
none_device
  4
ANSI_A_(11.00_x_8.50_Inches)
  6

 40
6.35
 41
19.05
 42
6.35000508
 43
19.05000254
 44
279.4
 45
215.9
 46
224.7287653171
 47
88.89999873
 48
0.0
 49
0.0
140
0.0
141
0.0
142
0.0388928571
143
1.0
 70
  1696
 72
     0
 73
     0
 74
     0
  7

 75
     0
147
0.0179189148
148
-1300.4909072572
149
0.0
100
AcDbLayout
  1
Model
 70
     1
 71
     0
 10
0.0
 20
0.0
 11
420.0
 21
297.0
 12
0.0
 22
0.0
 32
0.0
 14
-232.5
 24
-45.0
 34
0.0
 15
47.5
 25
45.0
 35
0.0
146
0.0
 13
0.0
 23
0.0
 33
0.0
 16
1.0
 26
0.0
 36
0.0
 17
0.0
 27
1.0
 37
0.0
 76
     0
330
1F
331
29
  0
MLINESTYLE
  5
18
102
{ACAD_REACTORS
330
17
102
}
330
17
100
AcDbMlineStyle
  2
Standard
 70
     0
  3

 62
   256
 51
90.0
 52
90.0
 71
     2
 49
0.5
 62
   256
  6
BYLAYER
 49
-0.5
 62
   256
  6
BYLAYER
  0
ACDBPLACEHOLDER
  5
F
102
{ACAD_REACTORS
330
E
102
}
330
E
  0
SCALE
  5
48
102
{ACAD_REACTORS
330
47
102
}
330
47
100
AcDbScale
 70
     0
300
1:1
140
1.0
141
1.0
290
     1
  0
SCALE
  5
49
102
{ACAD_REACTORS
330
47
102
}
330
47
100
AcDbScale
 70
     0
300
1:2
140
1.0
141
2.0
290
     0
  0
SCALE
  5
4A
102
{ACAD_REACTORS
330
47
102
}
330
47
100
AcDbScale
 70
     0
300
1:4
140
1.0
141
4.0
290
     0
  0
SCALE
  5
4B
102
{ACAD_REACTORS
330
47
102
}
330
47
100
AcDbScale
 70
     0
300
1:5
140
1.0
141
5.0
290
     0
  0
SCALE
  5
4C
102
{ACAD_REACTORS
330
47
102
}
330
47
100
AcDbScale
 70
     0
300
1:8
140
1.0
141
8.0
290
     0
  0
SCALE
  5
4D
102
{ACAD_REACTORS
330
47
102
}
330
47
100
AcDbScale
 70
     0
300
1:10
140
1.0
141
10.0
290
     0
  0
SCALE
  5
4E
102
{ACAD_REACTORS
330
47
102
}
330
47
100
AcDbScale
 70
     0
300
1:16
140
1.0
141
16.0
290
     0
  0
SCALE
  5
4F
102
{ACAD_REACTORS
330
47
102
}
330
47
100
AcDbScale
 70
     0
300
1:20
140
1.0
141
20.0
290
     0
  0
SCALE
  5
50
102
{ACAD_REACTORS
330
47
102
}
330
47
100
AcDbScale
 70
     0
300
1:30
140
1.0
141
30.0
290
     0
  0
SCALE
  5
51
102
{ACAD_REACTORS
330
47
102
}
330
47
100
AcDbScale
 70
     0
300
1:40
140
1.0
141
40.0
290
     0
  0
SCALE
  5
52
102
{ACAD_REACTORS
330
47
102
}
330
47
100
AcDbScale
 70
     0
300
1:50
140
1.0
141
50.0
290
     0
  0
SCALE
  5
53
102
{ACAD_REACTORS
330
47
102
}
330
47
100
AcDbScale
 70
     0
300
1:100
140
1.0
141
100.0
290
     0
  0
SCALE
  5
54
102
{ACAD_REACTORS
330
47
102
}
330
47
100
AcDbScale
 70
     0
300
2:1
140
2.0
141
1.0
290
     0
  0
SCALE
  5
55
102
{ACAD_REACTORS
330
47
102
}
330
47
100
AcDbScale
 70
     0
300
4:1
140
4.0
141
1.0
290
     0
  0
SCALE
  5
56
102
{ACAD_REACTORS
330
47
102
}
330
47
100
AcDbScale
 70
     0
300
8:1
140
8.0
141
1.0
290
     0
  0
SCALE
  5
57
102
{ACAD_REACTORS
330
47
102
}
330
47
100
AcDbScale
 70
     0
300
10:1
140
10.0
141
1.0
290
     0
  0
SCALE
  5
58
102
{ACAD_REACTORS
330
47
102
}
330
47
100
AcDbScale
 70
     0
300
100:1
140
100.0
141
1.0
290
     0
  0
SCALE
  5
59
102
{ACAD_REACTORS
330
47
102
}
330
47
100
AcDbScale
 70
     0
300
1/128" = 1'-0"
140
0.0078125
141
12.0
290
     0
  0
SCALE
  5
5A
102
{ACAD_REACTORS
330
47
102
}
330
47
100
AcDbScale
 70
     0
300
1/64" = 1'-0"
140
0.015625
141
12.0
290
     0
  0
SCALE
  5
5B
102
{ACAD_REACTORS
330
47
102
}
330
47
100
AcDbScale
 70
     0
300
1/32" = 1'-0"
140
0.03125
141
12.0
290
     0
  0
SCALE
  5
5C
102
{ACAD_REACTORS
330
47
102
}
330
47
100
AcDbScale
 70
     0
300
1/16" = 1'-0"
140
0.0625
141
12.0
290
     0
  0
SCALE
  5
5D
102
{ACAD_REACTORS
330
47
102
}
330
47
100
AcDbScale
 70
     0
300
3/32" = 1'-0"
140
0.09375
141
12.0
290
     0
  0
SCALE
  5
5E
102
{ACAD_REACTORS
330
47
102
}
330
47
100
AcDbScale
 70
     0
300
1/8" = 1'-0"
140
0.125
141
12.0
290
     0
  0
SCALE
  5
5F
102
{ACAD_REACTORS
330
47
102
}
330
47
100
AcDbScale
 70
     0
300
3/16" = 1'-0"
140
0.1875
141
12.0
290
     0
  0
SCALE
  5
60
102
{ACAD_REACTORS
330
47
102
}
330
47
100
AcDbScale
 70
     0
300
1/4" = 1'-0"
140
0.25
141
12.0
290
     0
  0
SCALE
  5
61
102
{ACAD_REACTORS
330
47
102
}
330
47
100
AcDbScale
 70
     0
300
3/8" = 1'-0"
140
0.375
141
12.0
290
     0
  0
SCALE
  5
62
102
{ACAD_REACTORS
330
47
102
}
330
47
100
AcDbScale
 70
     0
300
1/2" = 1'-0"
140
0.5
141
12.0
290
     0
  0
SCALE
  5
63
102
{ACAD_REACTORS
330
47
102
}
330
47
100
AcDbScale
 70
     0
300
3/4" = 1'-0"
140
0.75
141
12.0
290
     0
  0
SCALE
  5
64
102
{ACAD_REACTORS
330
47
102
}
330
47
100
AcDbScale
 70
     0
300
1" = 1'-0"
140
1.0
141
12.0
290
     0
  0
SCALE
  5
65
102
{ACAD_REACTORS
330
47
102
}
330
47
100
AcDbScale
 70
     0
300
1-1/2" = 1'-0"
140
1.5
141
12.0
290
     0
  0
SCALE
  5
66
102
{ACAD_REACTORS
330
47
102
}
330
47
100
AcDbScale
 70
     0
300
3" = 1'-0"
140
3.0
141
12.0
290
     0
  0
SCALE
  5
67
102
{ACAD_REACTORS
330
47
102
}
330
47
100
AcDbScale
 70
     0
300
6" = 1'-0"
140
6.0
141
12.0
290
     0
  0
SCALE
  5
68
102
{ACAD_REACTORS
330
47
102
}
330
47
100
AcDbScale
 70
     0
300
1'-0" = 1'-0"
140
12.0
141
12.0
290
     0
  0
ENDSEC
  0
EOF
